<svg xmlns="http://www.w3.org/2000/svg" xmlns:xlink="http://www.w3.org/1999/xlink" width="430" height="932" viewBox="0 0 430 932">
  <defs>
    <clipPath id="clip-path">
      <rect id="Rectangle_761" data-name="Rectangle 761" width="430" height="932" fill="#fff"/>
    </clipPath>
  </defs>
  <g id="Mask_Group_2" data-name="Mask Group 2" clip-path="url(#clip-path)">
    <g id="Group_202" data-name="Group 202">
      <g id="Group_201" data-name="Group 201">
        <path id="Path_47" data-name="Path 47" d="M1315.285,347.805c-119.763-22.153-243.257-95.46-364.721-48.773-231.322,71.9-473.089-18.058-678.722-118.144,21.124,92.269-72,439.631,108.91,424.03,229.115,44.4,917.24,33.1,934.532-257.114" transform="translate(-1278.953 -93.628)" fill="#c0d7e1"/>
        <rect id="Rectangle_25" data-name="Rectangle 25" width="2224.353" height="1199.899" transform="translate(-1020.282 -211.208)" fill="#ebf1f9"/>
        <path id="Path_48" data-name="Path 48" d="M2306.9,207.241c-278.136-78.03-558.365,20.047-846.222,36.4C1156.141,288.111,858.585,343.45,548.43,376.433c-35.424,4.891-138.423,11.522-147.46,33.366,33.788,55.708,179.417,85.089,278.4,103.752,518.152,91.547,1095.5,102.792,1627.528,32.272Z" transform="translate(-1102.824 -98.116)" fill="#c0d7e1"/>
        <path id="Path_49" data-name="Path 49" d="M286.258,1071.365l2224.353-30.8V182.814c-36.065,21.313-72.8,41.348-109.118,62.228-69.57,39.955-214.745,86.349-330.921,112.888-46.5,10.62-225.317,86.483-269.916,112.032-57.39,23.3-126.629,6.624-185.823,26-45.377,20.1-91.51,39.523-142.348,27.8-206.7-62.17-414.979-111.781-633.112-112.72-79.714.039-227.46-26.317-390.858-63.774-360.806-82.711-123.5,650.706-162.256,724.1" transform="translate(-1306.54 -91.112)" fill="#c0d7e1"/>
        <path id="Path_50" data-name="Path 50" d="M2489.511,282.284c-267.722-56.089-5.3,150.125-589.3,98.863C1561.243,366.778,1241.1,520.082,900.275,500.195,619.716,520.534,637.5,335.68,332.727,499.173c-114.245-9.618-53.676,258.754-67.578,316.481,83.126,23.953,177.352,23.313,266.354,21.3,652.162-22.868,1307.828-8.8,1958.009-65.788V282.284" transform="translate(-1285.44 26.151)" fill="#c0d7e1"/>
        <path id="Path_51" data-name="Path 51" d="M2492,862.595c-27.529-321.972-488.9-440.6-604.052-496.262-81.368-39.159-166.967-7.934-239.349,35.924-67.742,51.523-559.678,154.894-636.344,198.241-59.245,32.7-225.128,96.528-241.94,91.233C750.691,714.7,612.756,693.839,561.679,720.9-731.393,958.414,2545.331,837.617,2492,862.595" transform="translate(-1287.928 125.422)" fill="#c0d7e1"/>
        <path id="Path_52" data-name="Path 52" d="M1099.174,133.728c-.708,0-1.432,0-2.153.012H768.031a79.968,79.968,0,0,0-79.965,79.968v833.064a79.968,79.968,0,0,0,79.965,79.968h328.99c57.888.588,79.965-25.519,79.965-79.968V213.707c0-43.7-10.733-79.979-77.8-79.979h-.012" transform="translate(-727.551 -155.274)" fill="none"/>
      </g>
    </g>
  </g>
</svg>
