<svg xmlns="http://www.w3.org/2000/svg" xmlns:xlink="http://www.w3.org/1999/xlink" width="430" height="932" viewBox="0 0 430 932">
  <defs>
    <clipPath id="clip-path">
      <rect id="Rectangle_883" data-name="Rectangle 883" width="430" height="932" transform="translate(1963 -2299)" fill="#fff"/>
    </clipPath>
  </defs>
  <g id="Mask_Group_7" data-name="Mask Group 7" transform="translate(-1963 2299)" clip-path="url(#clip-path)">
    <g id="Group_50529" data-name="Group 50529">
      <g id="Group_50528" data-name="Group 50528" transform="translate(-1583)">
        <path id="Path_149318" data-name="Path 149318" d="M943.744,327.691C838.414,308.207,729.8,243.734,622.975,284.8,419.529,348.03,206.9,268.914,26.045,180.889c18.578,81.15-63.324,386.652,95.786,372.931,201.5,39.052,806.706,29.11,821.914-226.13" transform="translate(2667.934 -2348.466)" fill="#c0d7e1"/>
        <rect id="Rectangle_815" data-name="Rectangle 815" width="1956.301" height="1055.301" transform="translate(2682.395 -2430.079)" fill="#ebf1f9"/>
        <path id="Path_149319" data-name="Path 149319" d="M1832.1,203.652c-244.619-68.626-491.076,17.631-744.246,32.015-267.834,39.109-529.532,87.779-802.31,116.787-31.155,4.3-121.742,10.133-129.69,29.345,29.716,48.995,157.8,74.836,244.848,91.249,455.711,80.515,963.482,90.4,1431.4,28.383Z" transform="translate(2806.601 -2352)" fill="#c0d7e1"/>
        <path id="Path_149320" data-name="Path 149320" d="M36.181,964.287l1956.3-27.089V182.814c-31.719,18.745-64.03,36.366-95.969,54.729-61.186,35.14-188.867,75.943-291.043,99.284-40.891,9.34-198.165,76.061-237.389,98.531-50.474,20.488-111.37,5.826-163.43,22.868-39.908,17.673-80.483,34.761-125.194,24.449C897.67,428,714.486,384.365,522.64,383.539c-70.108.034-200.047-23.146-343.757-56.089C-138.442,254.707,70.27,899.742,36.181,964.287" transform="translate(2646.216 -2346.485)" fill="#8ab0be"/>
        <path id="Path_149321" data-name="Path 149321" d="M1975.869,281.108c-235.459-49.33-4.663,132.034-518.284,86.949-298.12-12.637-579.685,122.193-879.437,104.7-246.749,17.889-231.111-144.689-499.154-.9C-21.483,463.4,31.787,699.432,19.56,750.2c73.111,21.066,155.979,20.5,234.258,18.733,573.569-20.112,1150.223-7.737,1722.051-57.86V281.108" transform="translate(2662.827 -2254.165)" fill="#6397ac"/>
        <path id="Path_149322" data-name="Path 149322" d="M1977.828,800.638c-24.211-283.172-429.982-387.5-531.259-436.459-71.562-34.44-146.846-6.978-210.505,31.6C1176.485,441.089,743.831,532,676.4,570.126c-52.105,28.763-198,84.9-212.784,80.239-17.26,20.2-138.572,1.854-183.494,25.65-1137.247,208.9,1744.607,102.656,1697.7,124.624" transform="translate(2660.868 -2176.008)" fill="#296896"/>
        <path id="Path_149323" data-name="Path 149323" d="M804.512,133.728c-.621,0-1.258,0-1.893.01H513.277a70.331,70.331,0,0,0-70.331,70.331V936.743a70.331,70.331,0,0,0,70.331,70.331H802.619c50.912.517,70.327-22.444,70.327-70.331V204.069c0-38.433-9.437-70.341-68.423-70.341h-.01" transform="translate(3102.054 -2397)" fill="none"/>
      </g>
    </g>
  </g>
</svg>
