<svg xmlns="http://www.w3.org/2000/svg" xmlns:xlink="http://www.w3.org/1999/xlink" width="430" height="932" viewBox="0 0 430 932">
  <defs>
    <clipPath id="clip-path">
      <rect id="Rectangle_886" data-name="Rectangle 886" width="430" height="932" transform="translate(4596 -2263)" fill="#fff"/>
    </clipPath>
  </defs>
  <g id="Mask_Group_9" data-name="Mask Group 9" transform="translate(-4596 2263)" clip-path="url(#clip-path)">
    <g id="Group_50531" data-name="Group 50531">
      <path id="Path_149396" data-name="Path 149396" d="M1679.438,276.169c-105.33-19.483-213.942-83.956-320.767-42.9-203.445,63.235-416.076-15.882-596.927-103.906,18.578,81.15-63.324,386.65,95.783,372.929,201.505,39.052,806.7,29.109,821.911-226.128" transform="translate(2982.886 -2401.487)" fill="#c0d7e1"/>
      <rect id="Rectangle_882" data-name="Rectangle 882" width="1956.291" height="1055.296" transform="translate(3733.044 -2534.619)" fill="#ebf1f9"/>
      <path id="Path_149397" data-name="Path 149397" d="M2567.785,152.131c-244.617-68.626-491.074,17.631-744.242,32.015-267.833,39.109-529.529,87.779-802.306,116.787-31.155,4.3-121.742,10.133-129.69,29.345,29.716,48.995,157.795,74.835,244.847,91.248,455.708,80.515,963.477,90.4,1431.391,28.383Z" transform="translate(3121.551 -2405.02)" fill="#c0d7e1"/>
      <path id="Path_149398" data-name="Path 149398" d="M771.878,912.762l1956.291-27.088V131.293c-31.719,18.745-64.03,36.365-95.968,54.729-61.186,35.14-188.866,75.943-291.041,99.284-40.893,9.34-198.163,76.061-237.388,98.531-50.474,20.488-111.369,5.826-163.429,22.868-39.909,17.673-80.482,34.76-125.191,24.449-181.789-54.678-364.971-98.31-556.816-99.135-70.107.034-200.046-23.146-343.755-56.088-317.324-72.743-108.613,572.288-142.7,636.834" transform="translate(2961.167 -2399.506)" fill="#c0d7e1"/>
      <path id="Path_149399" data-name="Path 149399" d="M2711.557,229.586c-235.458-49.329-4.663,132.033-518.281,86.949-298.119-12.637-579.682,122.192-879.432,104.7-246.748,17.889-231.11-144.687-499.152-.9-100.477-8.459-47.207,227.571-59.434,278.341,73.108,21.066,155.979,20.5,234.255,18.733,573.568-20.112,1150.219-7.737,1722.044-57.86V229.586" transform="translate(2977.779 -2307.186)" fill="#c0d7e1"/>
      <path id="Path_149400" data-name="Path 149400" d="M2713.516,749.115c-24.211-283.17-429.979-387.5-531.256-436.456-71.562-34.44-146.846-6.978-210.5,31.6-59.578,45.314-492.23,136.227-559.657,174.35-52.105,28.762-198,84.9-212.783,80.238-17.259,20.2-138.571,1.855-183.493,25.65-1137.241,208.9,1744.6,102.656,1697.693,124.623" transform="translate(2975.82 -2229.031)" fill="#c0d7e1"/>
      <path id="Path_149401" data-name="Path 149401" d="M777.088,1009.634l1956.291-27.088V228.165c-31.719,18.745-64.03,36.365-95.968,54.729-61.185,35.14-188.866,75.943-291.041,99.284-40.89,9.34-198.163,76.061-237.388,98.531-50.474,20.488-111.369,5.826-163.429,22.868-39.908,17.673-80.482,34.76-125.193,24.448-181.787-54.678-364.969-98.31-556.814-99.135-70.107.034-200.048-23.146-343.755-56.088-317.326-72.743-108.613,572.288-142.7,636.833" transform="translate(2966.528 -2299.815)" fill="#8ab0be"/>
      <path id="Path_149402" data-name="Path 149402" d="M2714.76,399.182c-235.458-49.329-4.663,132.033-518.281,86.949-298.119-12.637-579.682,122.192-879.432,104.7-246.748,17.889-231.11-144.689-499.151-.9-100.477-8.459-47.207,227.571-59.434,278.341,73.11,21.066,155.979,20.5,234.257,18.733,573.566-20.112,1150.217-7.737,1722.042-57.86V399.182" transform="translate(2981.075 -2132.657)" fill="#6397ac"/>
    </g>
  </g>
</svg>
