<svg xmlns="http://www.w3.org/2000/svg" xmlns:xlink="http://www.w3.org/1999/xlink" width="430" height="721" viewBox="0 0 430 721">
  <defs>
    <clipPath id="clip-path">
      <rect id="Rectangle_5260" data-name="Rectangle 5260" width="430" height="721" transform="translate(-8235 3728)" fill="#fff"/>
    </clipPath>
  </defs>
  <g id="Mask_Group_10" data-name="Mask Group 10" transform="translate(8235 -3728)" clip-path="url(#clip-path)">
    <g id="Group_52247" data-name="Group 52247">
      <path id="Path_150487" data-name="Path 150487" d="M1011.255,385.885c-112.4-20.793-228.31-89.595-342.31-45.775C451.837,407.591,224.927,323.161,31.929,229.224c19.826,86.6-67.576,412.618,102.218,397.978,215.037,41.674,860.881,31.062,877.108-241.316" transform="translate(-9187.274 3471.091)" fill="#c0d7e1"/>
      <rect id="Rectangle_5234" data-name="Rectangle 5234" width="2087.673" height="1126.169" transform="translate(-9167.707 3420.188)" fill="#c0d7e1"/>
      <path id="Path_150488" data-name="Path 150488" d="M1957.041,253.573c-261.045-73.235-524.055,18.814-794.224,34.166C877,329.473,597.725,381.412,306.63,412.367c-33.247,4.592-129.919,10.814-138.4,31.316,31.709,52.286,168.392,79.861,261.291,97.377C915.834,626.98,1457.7,637.536,1957.041,571.35Z" transform="translate(-9037.075 3467.265)" fill="#c0d7e1"/>
      <path id="Path_150489" data-name="Path 150489" d="M43.093,1065.2l2087.673-28.906V231.247c-33.849,20-68.328,38.807-102.411,58.4C1963.06,327.15,1826.8,370.7,1717.768,395.6c-43.638,9.969-211.474,81.17-253.333,105.149-53.862,21.862-118.848,6.218-174.4,24.4-42.587,18.86-85.887,37.095-133.6,26.091-194-58.351-389.482-104.912-594.211-105.794-74.814.037-213.481-24.7-366.841-59.856C-143.258,307.967,79.472,996.319,43.093,1065.2" transform="translate(-9210.8 3473.237)" fill="#8ab0be"/>
      <path id="Path_150490" data-name="Path 150490" d="M2112.772,334.664c-251.272-52.642-4.975,140.9-553.089,92.789-318.141-13.487-618.614,130.4-938.5,111.731-263.319,19.09-246.631-154.4-532.674-.958C-18.709,529.2,38.139,781.081,25.089,835.259c78.018,22.483,166.455,21.881,249.989,19.991,612.087-21.463,1227.466-8.256,1837.694-61.745V334.664" transform="translate(-9192.807 3573.236)" fill="#8ab0be"/>
      <path id="Path_150491" data-name="Path 150491" d="M2114.894,887.831c-25.838-302.188-458.855-413.527-566.935-465.77-76.368-36.75-156.707-7.444-224.641,33.719-63.58,48.356-525.287,145.376-597.242,186.059-55.606,30.7-211.295,90.6-227.075,85.627-18.419,21.555-147.878,1.979-195.815,27.373C-910.431,977.764,2164.948,864.388,2114.894,887.831" transform="translate(-9194.928 3657.893)" fill="#8ab0be"/>
    </g>
  </g>
</svg>
