<svg xmlns="http://www.w3.org/2000/svg" width="154.168" height="159.284" viewBox="0 0 154.168 159.284">
  <g id="Group_199" data-name="Group 199" transform="translate(-949.732 155.906)">
    <path id="Path_18" data-name="Path 18" d="M648.563,357.455c-3.156-1.864-8-1.287-11.473-.459-7.837,1.877-15.768.822-23.707,1.608-.039-.322-.076-.643-.125-.96,6.034-.771,12.221.506,18.072-1.486a70.275,70.275,0,0,0,16.706-8.258c.625-.777,1.284-1.473,1.851-2.288,0,0,7.377-17.361-13.93-31.837l0,0a2.191,2.191,0,0,0-1.19-.266c-5.444.477-11.238,6.008-15.354,9.353-5.833,4.735-12,9.21-16.858,15-.219-.2-.442-.386-.667-.579a117.368,117.368,0,0,1,14.88-13.542c4.365-3.366,8.518-6.994,7.9-12.972-.178-1.734-1.317-4.533-3.315-5.536,0,0-8.9-8.933-13.887-7.71a13.482,13.482,0,0,1-.888,1.463c-2.916,3.909-5.49,8.917-8.956,13.958-3.9,5.669-7.854,10.967-10.949,17.1-.357-.069-.715-.14-1.078-.194,2.04-4.328,3.682-8.833,5.234-13.2,1.966-5.542,3.637-12.112,3.591-18.215-.044-6.318-10.47-9.014-16.95-9.208.907.03.378.016-1.241-.13-2.546,1.727-5.306,2.155-5.459,5.612-.176,4.081-1.31,7.882-1.1,12.07.393,7.893.2,16.343,1.121,24.152-.243.076-.482.159-.722.24-.779-6.267-3.192-11.65-5.7-17.408-2.554-5.878-6.938-16.964-8.638-16.987-11.466-.151-12.99,4.15-17.408,8.153-3.056,6.5,3.843,11.192,7.216,16.021,4.112,5.888,8.531,11.291,13.131,16.787-.176.153-.35.3-.521.462-6.889-7.8-12.571-16.445-19.356-24.3-3.273-3.784-5.973-8.628-10.95-10.15-1.861-.57-4.451-.874-6.479,2.439-2.717,4.433-5,8.792-4.915,15.281a19.213,19.213,0,0,0,2.341,9.435c1.307,3.01,6.441,7.561,8.881,9.1,7.158,4.528,13.669,10.087,20.7,14.806-.077.322-.156.643-.224.968-5.128-3.458-10.309-3.037-15.9-4.893-3.613-1.2-20.061-2.081-23.978-.968a12.489,12.489,0,0,1-1.313,2.267c0,.023.012.048.015.071-.041.023-.074.059-.117.087-7.089,10.511-1.8,19.775-1.8,19.775,4.047,5.616,10.025,6.248,16.685,4.594,4.2-1.04,8.069-3.141,12.262-4.274,4.675-1.269,9.517-1.747,14.3-2.457.064.279.122.564.192.84-12.512,1.723-32.31,9.647-38.142,11.557-.95.311-2.252,1.3-2.341,1.134,3.787,7.127,6.844,13.991,14.3,18.2.307.107,1.739.912,1.954,1.012,4.9,1.034,10.168-5.069,12.832-8.2,4.139-4.849,7.842-9.655,12.65-13.892-.02-.025-.036-.053-.056-.079a17.541,17.541,0,0,0,1.915-1.956c.232.416.465.823.712,1.226-6.108,4.948-10.4,10.668-15.566,16.522-4.213,4.773-13.825,11.6-13.687,18.74,0,0,8.769,15.221,26.871,19.159,4.043.881,7-6.772,7.993-8.8,5.184-10.544,9.236-20.18,11.116-31.866.457.169.922.327,1.389.477-.033.584-.071,1.169-.107,1.754a28.7,28.7,0,0,0-1.593,5.7l-.16-.015c-.881,5.738-3.475,11.406-5.888,16.649-2.766,6.014-7.824,11.93-4.522,18.791a14.917,14.917,0,0,0,4.017,5.215c1.43,1.353,9.961,6.7,14.338,6.187.559-.064.835.173,1.085-.089,1.433-1.488,3.754-7.332,4.652-11.739,1-4.887,2.334-7.941,2.535-12.929.376-9.241.922-19.011-1.132-28.1.35-.034.7-.077,1.04-.118,1.826,8.725-.222,17.913,1.78,26.445.98,4.178,5.273,19.915,11.958,18.477,3.131-.674,3.9-.888,5.1-1.249q5.321-1.605,10.638-3.205c1.437-1.491.764.2,2.2-2.793,1.519-3.159-3.412-13.289-6.3-20.9-2.786-7.323-7.827-14.9-12.356-21.314.25-.155.5-.319.745-.477,4.122,5.71,8.815,12.306,13.493,17.27,4.129,4.377,9.272,13,15.6,13.207,4.938-3.774,17.1-12.035,12.129-20,.051-.015-9.676-6.294-14.21-10.143a64.122,64.122,0,0,0-16.861-10.645q.252-.407.49-.815c6.56,2.727,12.444,6.188,19.28,8.391,5.566,1.793,15.635,6.877,21.407,3.823.961-1.312,2.258-2.733,2.867-3.519,3.1-3.5,10.566-21.813-4.1-30.472" transform="translate(446.569 -445)" fill="#fadf4a"/>
    <path id="Path_19" data-name="Path 19" d="M566.908,336.216a.45.45,0,0,1,.115-.4c.687-2.433.058-5.11-2.648-7.262a7.579,7.579,0,0,0-9.017-.411c-.468.3-5.919,6.277-4.68,6.654a.553.553,0,0,1,.408.524,8.179,8.179,0,0,1,1.164.311,7.553,7.553,0,0,1,3.33,2.347.988.988,0,0,1,.786-.207c2.853.5,4.254,2.1,4.684,4.071a9.645,9.645,0,0,0,5.858-5.631" transform="translate(477.036 -420.692)" fill="#c39a43"/>
    <path id="Path_20" data-name="Path 20" d="M541.95,337.371a8.883,8.883,0,0,1,7.234.347.692.692,0,0,1,.24.215,9.076,9.076,0,0,1,5.667-2.346c-.871-2.341,1.193-5.326,3.248-7.286-3.018-1.635-5.968-2.707-9.547-1.586-3.94,1.239-8.988,6.07-6.843,10.656" transform="translate(471.206 -421.081)" fill="#c39a43"/>
    <path id="Path_21" data-name="Path 21" d="M554.283,320.335c-4.412.917-6.683,4.264-8.429,8.1a.5.5,0,0,1-.288.268c3.96-1.223,8.646-.6,11.7,2.222.082-.059.168-.122.246-.176a9.638,9.638,0,0,1,6.757-1.519c-.007-5.485-3.961-10.15-9.992-8.9" transform="translate(473.863 -425.023)" fill="#c39a43"/>
    <path id="Path_22" data-name="Path 22" d="M548.7,359.653c3.5-.039,6.558-1.742,9.32-3.724a7,7,0,0,1-3.181-3.1,8.513,8.513,0,0,1-3.065-.156,9.519,9.519,0,0,1-5.329-3.386,9.987,9.987,0,0,1-6.049,1.469c-.991,5.145,3.266,8.957,8.3,8.9" transform="translate(470.443 -406.255)" fill="#c39a43"/>
    <path id="Path_23" data-name="Path 23" d="M538.238,349.212a8.02,8.02,0,0,1,4.174-5.592,9.815,9.815,0,0,1,.053-2.76,8.4,8.4,0,0,1,.26-1.088c-3.721-.635-6.059-3.854-6.576-7.444-7.86,3.785-8.054,16.235,2.091,16.884" transform="translate(464.115 -417.171)" fill="#c39a43"/>
    <path id="Path_24" data-name="Path 24" d="M571.428,352.778c1.905-3.1,1.279-6.8.426-10.13a11.532,11.532,0,0,1-8.016,2.911c-.082.133-.145.271-.23.4a9.216,9.216,0,0,1-2.758,2.6,8.756,8.756,0,0,1-1.274,8.753c4.269-.169,9.362-.49,11.853-4.532" transform="translate(482.881 -410.528)" fill="#c39a43"/>
    <path id="Path_25" data-name="Path 25" d="M548.308,353.921a10.41,10.41,0,0,1-1.236-7.618c-2.174.159-4.834-1.4-6.152-2.83a8.558,8.558,0,0,1-1.772-3.023c-2.51,2.965-4.124,6.654-1.8,10.429,2.272,3.69,7.158,4.593,10.962,3.042" transform="translate(467.849 -411.943)" fill="#c39a43"/>
    <path id="Path_26" data-name="Path 26" d="M561.072,355.933a8.41,8.41,0,0,0,4.535-9.068,10.48,10.48,0,0,1-9.425-.746c.182,3.384-2.262,6.708-5.633,8.118a8.951,8.951,0,0,0,10.523,1.7" transform="translate(477.071 -408.294)" fill="#c39a43"/>
    <path id="Path_27" data-name="Path 27" d="M535.086,335.151a8.32,8.32,0,0,0,5.051,7.168,10.29,10.29,0,0,1,4.594-4.683c-2.061-3.378-.3-7.316,2.38-10-4.16-1.981-9.505-.8-11.394,3.735a8.428,8.428,0,0,0-.588,2.258.991.991,0,0,1-.043,1.519" transform="translate(467.117 -420.785)" fill="#c39a43"/>
    <path id="Path_28" data-name="Path 28" d="M562.554,324.145a11.624,11.624,0,0,1,9.119,4.482,9.008,9.008,0,0,1,.651.986,7.468,7.468,0,0,0,.531-8.565,8.969,8.969,0,0,0-11.54-4.017,10.192,10.192,0,0,1,1.239,7.114" transform="translate(484 -427.501)" fill="#c39a43"/>
    <path id="Path_29" data-name="Path 29" d="M538.947,340.7a7.179,7.179,0,0,0,2.852,6.489c1.213.891,2.791,1.063,3.979,1.821a9.229,9.229,0,0,1,3.595-4.356,10.1,10.1,0,0,1-1.335-3.35,8.711,8.711,0,0,1,1.8-7.129c-4.783-.441-10.363.6-10.889,6.524" transform="translate(469.583 -416.04)" fill="#c39a43"/>
    <path id="Path_30" data-name="Path 30" d="M555.02,339.565q4.058-4.5-.32-5.924a6.048,6.048,0,0,0-2.392-.307,7.464,7.464,0,0,0-4.9,2.37c-2.873,3.126-1.7,7.738,1.349,10.235,6.777,5.547,17.834-4.737,10.947-9.938a4.4,4.4,0,0,1,.125,1.333,4.074,4.074,0,0,1-5.007,3.72.762.762,0,0,1,.2-1.489" transform="translate(473.99 -416.533)" fill="#c39a43"/>
    <path id="Path_31" data-name="Path 31" d="M548.389,355.062a7.091,7.091,0,0,0,3.871.676,1.025,1.025,0,0,1,1.057-.187c3.447-.916,5.976-4.354,5.13-7.888a10.268,10.268,0,0,1-2.171-2.95.894.894,0,0,1-.046-.176,10.262,10.262,0,0,1-8.989-3.133c-4.336,3.887-4.8,10.8,1.149,13.659" transform="translate(472.825 -411.329)" fill="#c39a43"/>
    <path id="Path_32" data-name="Path 32" d="M566.342,348.281c.108-.156.191-.325.286-.488a.791.791,0,0,1,.378-.718,6.646,6.646,0,0,0-1.257-7.331,10.787,10.787,0,0,0-5.925-2.551,11.96,11.96,0,0,1-4.98,8.524,10.671,10.671,0,0,1-2.25,1.075c3.231,4.431,9.924,6.849,13.749,1.489" transform="translate(478.386 -414.039)" fill="#c39a43"/>
    <path id="Path_33" data-name="Path 33" d="M564.744,352.562a9.79,9.79,0,0,1-2.538,1.56,12.824,12.824,0,0,1-8.6.235,18.477,18.477,0,0,1-4.372,3.476.376.376,0,0,1-.09.288,39.007,39.007,0,0,1,3.338,2.983,9.116,9.116,0,0,0,6.284,2.434c5.893-.309,7.776-5.322,8.368-10.3,0-.025.016-.044.018-.069a12.067,12.067,0,0,1-1.933-.311.882.882,0,0,1-.477-.3" transform="translate(476.167 -404.146)" fill="#c39a43"/>
    <path id="Path_34" data-name="Path 34" d="M571,335.732a1.029,1.029,0,0,1-.953-.927c-1.866-1.622-4.193-2.615-6.374-2.155a9.248,9.248,0,0,1-4.814,6.626,8.446,8.446,0,0,1,5.5,3.684,8.8,8.8,0,0,1,.966,6.627c4.065-.884,8.01-2.867,8.342-7.673A8.948,8.948,0,0,0,571,335.732" transform="translate(482.42 -417.036)" fill="#c39a43"/>
    <path id="Path_35" data-name="Path 35" d="M545.332,354.423a9.3,9.3,0,0,1-5.112-3.514,10.573,10.573,0,0,1-1.68-7.055,6.485,6.485,0,0,1-5.03-.8c-1.453,1.81-3.072,3.434-3.67,5.8a10.059,10.059,0,0,0,1.08,7.415c3.039,5.163,10.064,5.373,14.226,1.612a8.5,8.5,0,0,1,.186-3.462" transform="translate(463.558 -410.266)" fill="#c39a43"/>
    <path id="Path_36" data-name="Path 36" d="M576.969,336.749c-.094,0-.182.018-.279.01a1.045,1.045,0,0,1-.99-.754c-.025-.125-.048-.248-.072-.373a.97.97,0,0,1,0-.365,17.846,17.846,0,0,0-5.891-3.363,7.069,7.069,0,0,1-2.209,3.189,10.22,10.22,0,0,1,2.765,4.944,10,10,0,0,1-2.487,8.449,18.207,18.207,0,0,1,1.433,4.7c6.708.368,11.233-6.039,9.625-12.469a10.83,10.83,0,0,0-1.9-3.966" transform="translate(488.002 -417.444)" fill="#c39a43"/>
    <path id="Path_37" data-name="Path 37" d="M554.771,358.046a12.087,12.087,0,0,1-9.1.39,9.471,9.471,0,0,1-5.45-5.018,12.065,12.065,0,0,1-2.023,1.223c.429,9.139,14.507,17.032,19.054,6.558-.975-.848-2.231-2.04-2.484-3.153" transform="translate(469.122 -403.596)" fill="#c39a43"/>
    <path id="Path_38" data-name="Path 38" d="M578.838,330.548c-.991-3.488-4.177-6.8-7.919-6.935a6.514,6.514,0,0,1-2.288,3.481,16.876,16.876,0,0,1,.911,8.13,12.479,12.479,0,0,1,7.438,4.313,17.057,17.057,0,0,0,2.045-4.405,9.533,9.533,0,0,0-.186-4.584" transform="translate(488.71 -422.781)" fill="#c39a43"/>
    <path id="Path_39" data-name="Path 39" d="M573.5,345.623a10.669,10.669,0,0,1-1.719,7.055c-2.212,3.118-6.585,4.857-10.626,5a9.235,9.235,0,0,1,.178,2.217c4.425,2.6,9.974,3.319,14.086-.485,4.548-4.2,3.386-9.1.669-13.751a10.053,10.053,0,0,1-2.587-.036" transform="translate(483.894 -408.613)" fill="#c39a43"/>
    <path id="Path_40" data-name="Path 40" d="M550.326,322.493a11.462,11.462,0,0,1,4.9-.855,11.018,11.018,0,0,1,9.04,6.011,10.392,10.392,0,0,1,4.808-2.211,1.052,1.052,0,0,1,0-.344c1.034-5.261-2.86-9.7-7.929-10.457-3.784-.569-12.117,1.494-13.215,6.072a7.648,7.648,0,0,1,2.352,1.713.424.424,0,0,1,.043.071" transform="translate(475.385 -428.617)" fill="#c39a43"/>
    <path id="Path_41" data-name="Path 41" d="M535.382,348.415a10.6,10.6,0,0,1-3.887-6.787,11.344,11.344,0,0,1,1.547-6.964.463.463,0,0,1-.445-.015,8.688,8.688,0,0,1-1.371-1.027c-.01.007-.015.016-.026.021-4.065,2.291-7.878,7.116-5.329,11.885,1.522,2.849,3.7,4.551,6.2,6.3a10.27,10.27,0,0,1,3.309-3.417" transform="translate(460.654 -416.338)" fill="#c39a43"/>
    <path id="Path_42" data-name="Path 42" d="M574,336.462a12.936,12.936,0,0,0-.651-7.678.952.952,0,0,1-.559-1.241,9.5,9.5,0,0,0-1.686-2.424,10.392,10.392,0,0,0-12.867-1.1,7.47,7.47,0,0,1-.133,4.285,10.082,10.082,0,0,1,2.584,1.415,9.372,9.372,0,0,1,3.654,7.891c2.474-.633,5.3.4,7.61,2.171a6.181,6.181,0,0,0,2-3.139.836.836,0,0,1,.051-.178" transform="translate(481.931 -423.626)" fill="#c39a43"/>
    <path id="Path_43" data-name="Path 43" d="M544.818,319.883c-4.39,1.834-6.5,5.878-7.163,10.349a10.46,10.46,0,0,1,8.845.661.974.974,0,0,1,.386.416,11.73,11.73,0,0,1,1.062-.731,12.3,12.3,0,0,1,2.707-1.2.649.649,0,0,1-.847-.577,10.2,10.2,0,0,1,5.3-8.315c-3.516-1.09-6.489-2.188-10.288-.6" transform="translate(468.771 -425.695)" fill="#c39a43"/>
    <path id="Path_44" data-name="Path 44" d="M541.705,325.944a12.944,12.944,0,0,1,4.993-4.453,14.178,14.178,0,0,1,10.059-.835,4.836,4.836,0,0,1,.542-1.826,1.524,1.524,0,0,1-.145-.132c-7.357-10.114-20.867-2.413-24.741,6.511a13.274,13.274,0,0,1,9.29.735" transform="translate(465.398 -429.027)" fill="#c39a43"/>
    <path id="Path_45" data-name="Path 45" d="M531.443,341.736a12.082,12.082,0,0,1,6.167-4.883,9.918,9.918,0,0,1,.684-3.036,9.428,9.428,0,0,1,4.218-4.747.875.875,0,0,1-.053-.2,12.09,12.09,0,0,1,1.106-6.282c-4.885-1.631-10.7-.707-13.764,3.863-3.427,5.1-1.4,10.454,1.573,15.089a.458.458,0,0,1,.069.192" transform="translate(462.562 -423.919)" fill="#c39a43"/>
  </g>
</svg>
