<svg xmlns="http://www.w3.org/2000/svg" xmlns:xlink="http://www.w3.org/1999/xlink" width="430" height="932" viewBox="0 0 430 932">
  <defs>
    <clipPath id="clip-path">
      <rect id="Rectangle_885" data-name="Rectangle 885" width="430" height="932" transform="translate(2812 -2299)" fill="#fff"/>
    </clipPath>
    <clipPath id="clip-path-2">
      <path id="Path_149368" data-name="Path 149368" d="M866.256,133.728c-.307,0-.621,0-.933.005h-142.6a34.661,34.661,0,0,0-34.66,34.661V529.476a34.661,34.661,0,0,0,34.66,34.661h142.6c25.091.255,34.66-11.061,34.66-34.661V168.394c0-18.941-4.652-34.666-33.722-34.666h-.005" fill="none"/>
    </clipPath>
  </defs>
  <g id="Mask_Group_8" data-name="Mask Group 8" transform="translate(-2812 2299)" clip-path="url(#clip-path)">
    <g id="Group_50530" data-name="Group 50530" transform="translate(-430)">
      <g id="Group_50447" data-name="Group 50447" transform="translate(3417 -2397)">
        <g id="Group_50446" data-name="Group 50446" clip-path="url(#clip-path-2)">
          <path id="Path_149363" data-name="Path 149363" d="M720.928,253.237c-51.91-9.6-105.437-41.376-158.084-21.14C462.58,263.261,357.789,224.27,268.66,180.889c9.156,39.993-31.208,190.553,47.206,183.791,99.307,19.246,397.567,14.346,405.062-111.443" fill="#c0d7e1"/>
          <rect id="Rectangle_838" data-name="Rectangle 838" width="964.12" height="520.082" transform="translate(262.951 51.521)" fill="#ebf1f9"/>
          <path id="Path_149364" data-name="Path 149364" d="M1227.071,190.366c-120.555-33.821-242.017,8.689-366.785,15.778-132,19.274-260.968,43.26-395.4,57.556-15.354,2.12-60,4.994-63.915,14.462,14.645,24.146,77.766,36.881,120.668,44.97,224.587,39.68,474.831,44.554,705.433,13.988Z" fill="#c0d7e1"/>
          <path id="Path_149365" data-name="Path 149365" d="M262.951,567.946l964.12-13.35V182.814c-15.632,9.238-31.556,17.922-47.3,26.972-30.154,17.318-93.079,37.427-143.434,48.93-20.153,4.6-97.661,37.485-116.992,48.559-24.875,10.1-54.886,2.871-80.543,11.27-19.668,8.71-39.664,17.131-61.7,12.049-89.59-26.947-179.868-48.45-274.415-48.857-34.551.017-98.59-11.407-169.413-27.642-156.387-35.85-53.528,282.041-70.328,313.851" fill="#c0d7e1"/>
          <path id="Path_149366" data-name="Path 149366" d="M1227.071,276.754c-116.041-24.311-2.3,65.07-255.425,42.851-146.922-6.228-285.685,60.22-433.411,51.6-121.6,8.816-113.9-71.307-246-.443-49.518-4.169-23.265,112.154-29.291,137.175,36.03,10.382,76.871,10.1,115.448,9.232,282.672-9.912,566.863-3.813,848.676-28.515v-211.9" fill="#c0d7e1"/>
          <path id="Path_149367" data-name="Path 149367" d="M1227.071,571.311c-11.932-139.555-211.907-190.973-261.819-215.1-35.268-16.973-72.37-3.439-103.743,15.571-29.362,22.332-242.586,67.137-275.816,85.925-25.679,14.175-97.579,41.839-104.866,39.544-8.506,9.955-68.292.914-90.431,12.641-560.467,102.95,859.791,50.592,836.675,61.418" fill="#c0d7e1"/>
        </g>
      </g>
      <path id="Path_149379" data-name="Path 149379" d="M1430.5,327.69c-105.33-19.483-213.942-83.956-320.768-42.9C906.29,348.03,693.659,268.913,512.808,180.889c18.578,81.15-63.324,386.65,95.786,372.93,201.5,39.052,806.7,29.109,821.91-226.129" transform="translate(1881.884 -2384.195)" fill="#c0d7e1"/>
      <rect id="Rectangle_860" data-name="Rectangle 860" width="1956.292" height="1055.297" transform="translate(2383.108 -2465.806)" fill="#eef6f7"/>
      <path id="Path_149380" data-name="Path 149380" d="M2318.851,203.652c-244.618-68.626-491.074,17.631-744.242,32.015-267.833,39.109-529.529,87.779-802.307,116.787-31.155,4.3-121.742,10.133-129.69,29.345,29.716,48.995,157.8,74.835,244.847,91.248,455.709,80.515,963.478,90.4,1431.392,28.383Z" transform="translate(2020.55 -2387.728)" fill="#c9e0d9"/>
      <path id="Path_149381" data-name="Path 149381" d="M522.944,964.284,2479.236,937.2V182.814c-31.721,18.745-64.032,36.365-95.97,54.729-61.186,35.14-188.864,75.943-291.04,99.284-40.892,9.34-198.163,76.061-237.39,98.531-50.474,20.488-111.369,5.826-163.429,22.868-39.906,17.673-80.482,34.76-125.191,24.449C1384.427,428,1201.245,384.364,1009.4,383.538c-70.105.034-200.047-23.146-343.753-56.088-317.326-72.743-108.615,572.288-142.7,636.834" transform="translate(1860.166 -2382.214)" fill="#c9e0d9"/>
      <path id="Path_149382" data-name="Path 149382" d="M2462.623,281.108c-235.458-49.329-4.663,132.033-518.282,86.949-298.119-12.637-579.682,122.192-879.433,104.7-246.748,17.889-231.11-144.689-499.152-.9C465.28,463.4,518.55,699.43,506.323,750.2c73.11,21.066,155.979,20.5,234.257,18.733,573.566-20.112,1150.218-7.737,1722.043-57.86V281.108" transform="translate(1876.777 -2289.894)" fill="#c9e0d9"/>
      <path id="Path_149383" data-name="Path 149383" d="M2464.582,800.636c-24.211-283.17-429.978-387.5-531.256-436.456-71.562-34.44-146.846-6.978-210.5,31.595-59.578,45.314-492.23,136.228-559.657,174.35-52.105,28.762-198,84.9-212.783,80.239-17.26,20.2-138.571,1.855-183.493,25.65-1137.242,208.9,1744.6,102.656,1697.694,124.623" transform="translate(1874.818 -2211.738)" fill="#c9e0d9"/>
    </g>
  </g>
</svg>
