<svg xmlns="http://www.w3.org/2000/svg" xmlns:xlink="http://www.w3.org/1999/xlink" width="430" height="873.346" viewBox="0 0 430 873.346">
  <defs>
    <clipPath id="clip-path">
      <path id="Path_151205" data-name="Path 151205" d="M644.185,515.274H354.844A70.33,70.33,0,0,0,284.516,585.6V1318.27a70.33,70.33,0,0,0,70.328,70.328H644.185c50.913.518,70.331-22.441,70.331-70.328V585.6c0-38.435-9.445-70.344-68.442-70.344-.619,0-1.254.006-1.889.013" fill="none"/>
    </clipPath>
  </defs>
  <g id="Group_54594" data-name="Group 54594" transform="translate(-284.516 -515.261)" clip-path="url(#clip-path)">
    <path id="Path_151200" data-name="Path 151200" d="M936.186,692.355c-105.329-19.484-213.94-83.956-320.767-42.9C411.976,712.7,199.347,633.579,18.5,545.555,37.075,626.7-44.827,932.2,114.28,918.482c201.5,39.051,806.7,29.107,821.906-226.127" transform="translate(-584.991 65.403)" fill="#c0d7e1"/>
    <rect id="Rectangle_17496" data-name="Rectangle 17496" width="1956.28" height="1055.29" transform="translate(-578.078 348.459)" fill="#f4d5e4"/>
    <path id="Path_151201" data-name="Path 151201" d="M1776.334,569.545c-244.617-68.625-491.072,17.63-744.237,32.016-267.832,39.108-529.526,87.778-802.3,116.783-31.154,4.3-121.743,10.134-129.688,29.347,29.713,48.992,157.793,74.832,244.844,91.246,455.7,80.515,963.472,90.4,1431.382,28.383Z" transform="translate(-398.131 60.642)" fill="#e9acc5"/>
    <path id="Path_151202" data-name="Path 151202" d="M36.18,1328.256l1956.28-27.088V546.791c-31.719,18.745-64.029,36.366-95.969,54.729-61.186,35.14-188.864,75.941-291.038,99.283-40.893,9.341-198.164,76.061-237.389,98.531-50.471,20.486-111.366,5.825-163.429,22.868-39.9,17.671-80.481,34.758-125.189,24.447-181.785-54.678-364.97-98.307-556.813-99.134-70.107.035-200.044-23.145-343.751-56.087-317.323-72.744-108.614,572.285-142.7,636.829" transform="translate(-614.257 68.072)" fill="#e9acc5"/>
    <path id="Path_151203" data-name="Path 151203" d="M1970.075,613c-235.459-49.33-4.663,132.032-518.277,86.947-298.12-12.636-579.681,122.191-879.431,104.7-246.746,17.889-231.106-144.687-499.146-.9-100.477-8.46-47.207,227.571-59.433,278.338,73.108,21.067,155.977,20.5,234.252,18.733,573.565-20.113,1150.213-7.737,1722.035-57.86V613" transform="translate(-591.872 192.476)" fill="#e9acc5"/>
    <path id="Path_151204" data-name="Path 151204" d="M1972.714,1105.36c-24.21-283.169-429.975-387.5-531.254-436.454-71.56-34.439-146.844-6.978-210.5,31.6C1171.382,745.815,738.732,836.726,671.3,874.849c-52.1,28.765-197.994,84.9-212.781,80.241-17.261,20.2-138.571,1.854-183.491,25.651C-862.2,1189.632,2019.618,1083.393,1972.714,1105.36" transform="translate(-594.511 297.797)" fill="#e9acc5"/>
  </g>
</svg>
