<svg id="Group_54924" data-name="Group 54924" xmlns="http://www.w3.org/2000/svg" xmlns:xlink="http://www.w3.org/1999/xlink" width="430" height="873.351" viewBox="0 0 430 873.351">
  <defs>
    <clipPath id="clip-path">
      <path id="Path_151286" data-name="Path 151286" d="M1139.169,216.858c-.622,0-1.26,0-1.894.012H847.931A70.33,70.33,0,0,0,777.6,287.2v732.673a70.326,70.326,0,0,0,70.328,70.329h289.343c50.912.522,70.329-22.443,70.329-70.329V287.2c0-38.433-9.444-70.338-68.428-70.341h-.006" transform="translate(-777.603 -216.858)" fill="none"/>
    </clipPath>
  </defs>
  <rect id="Rectangle_17680" data-name="Rectangle 17680" width="430" height="72.75" fill="#c7bcd9"/>
  <g id="Group_54786" data-name="Group 54786" transform="translate(0 0)" clip-path="url(#clip-path)">
    <path id="Path_151281" data-name="Path 151281" d="M1426.434,394.272c-105.329-19.485-213.943-83.956-320.77-42.894-203.446,63.236-416.076-15.884-596.929-103.91C527.313,328.62,445.412,634.122,604.52,620.4c201.5,39.052,806.705,29.111,821.914-226.129" transform="translate(-1359.757 -151.775)" fill="#c7bcd9"/>
    <rect id="Rectangle_17600" data-name="Rectangle 17600" width="1956.301" height="1055.302" transform="translate(-862.607 -166.808)" fill="#c7bcd9"/>
    <path id="Path_151282" data-name="Path 151282" d="M2267.5,271.437c-244.62-68.625-491.079,17.631-744.246,32.015-267.835,39.108-529.533,87.779-802.31,116.786-31.155,4.3-121.744,10.135-129.691,29.348,29.717,48.993,157.8,74.833,244.848,91.249,455.712,80.514,963.481,90.4,1431.4,28.382Z" transform="translate(-1173.806 -156.511)" fill="#c7bcd9"/>
    <path id="Path_151283" data-name="Path 151283" d="M526.276,1030.193l1956.3-27.088V248.718c-31.718,18.747-64.026,36.366-95.967,54.732-61.184,35.138-188.868,75.94-291.04,99.28-40.893,9.344-198.165,76.062-237.392,98.533-50.475,20.489-111.369,5.827-163.428,22.868-39.908,17.672-80.482,34.763-125.192,24.45-181.788-54.679-364.973-98.311-556.818-99.136-70.107.034-200.051-23.146-343.756-56.089-317.328-72.742-108.614,572.292-142.7,636.838" transform="translate(-1388.88 -149.119)" fill="#c7bcd9"/>
    <path id="Path_151284" data-name="Path 151284" d="M2460.3,315.531c-235.461-49.33-4.664,132.035-518.285,86.95-298.121-12.639-579.685,122.191-879.435,104.7-246.749,17.888-231.112-144.687-499.153-.9-100.477-8.459-47.208,227.573-59.434,278.345,73.108,21.067,155.979,20.5,234.254,18.732C1311.817,783.245,1888.47,795.621,2460.3,745.5V315.531" transform="translate(-1366.605 -25.316)" fill="#9282b7"/>
    <path id="Path_151285" data-name="Path 151285" d="M2462.927,808.412c-24.212-283.172-429.981-387.5-531.259-436.459-71.564-34.441-146.847-6.978-210.5,31.6C1661.586,448.862,1228.932,539.776,1161.5,577.9c-52.106,28.763-198,84.9-212.787,80.238-17.259,20.2-138.572,1.854-183.492,25.65-1137.248,208.9,1744.606,102.656,1697.7,124.623" transform="translate(-1369.233 79.492)" fill="#9282b7"/>
  </g>
</svg>
