<svg xmlns="http://www.w3.org/2000/svg" xmlns:xlink="http://www.w3.org/1999/xlink" width="430" height="873.002" viewBox="0 0 430 873.002">
  <defs>
    <clipPath id="clip-path">
      <path id="Path_150173" data-name="Path 150173" d="M448.628,515.6V1318.27a70.33,70.33,0,0,0,70.331,70.328H808.3c50.913.518,70.328-22.441,70.328-70.328V515.6" transform="translate(-448.628 -515.261)" fill="none"/>
    </clipPath>
  </defs>
  <g id="Group_51363" data-name="Group 51363" transform="translate(0 -0.344)" clip-path="url(#clip-path)">
    <path id="Path_150168" data-name="Path 150168" d="M1100.3,692.355c-105.329-19.484-213.94-83.956-320.766-42.9C576.089,712.7,363.46,633.579,182.61,545.555,201.188,626.7,119.286,932.2,278.393,918.482c201.5,39.051,806.7,29.107,821.906-226.128" transform="translate(-1033.616 -449.858)" fill="#c0d7e1"/>
    <rect id="Rectangle_1147" data-name="Rectangle 1147" width="1956.279" height="1055.29" transform="translate(-862.593 -166.802)" fill="#fffade"/>
    <path id="Path_150169" data-name="Path 150169" d="M1940.445,569.545c-244.617-68.625-491.072,17.63-744.237,32.016-267.832,39.108-529.526,87.778-802.3,116.783-31.154,4.3-121.743,10.134-129.688,29.347,29.713,48.992,157.793,74.832,244.844,91.246,455.707,80.515,963.471,90.4,1431.382,28.383Z" transform="translate(-846.758 -454.619)" fill="#fffade"/>
    <path id="Path_150170" data-name="Path 150170" d="M200.293,1328.256l1956.279-27.088V546.791c-31.719,18.745-64.029,36.366-95.969,54.729-61.186,35.14-188.864,75.941-291.037,99.283-40.893,9.341-198.164,76.061-237.389,98.531-50.471,20.486-111.365,5.825-163.428,22.868-39.9,17.671-80.481,34.758-125.189,24.447-181.785-54.678-364.97-98.307-556.813-99.134C616.639,747.549,486.7,724.368,343,691.427c-317.323-72.744-108.614,572.285-142.7,636.829" transform="translate(-1062.882 -447.189)" fill="#efd450"/>
    <path id="Path_150171" data-name="Path 150171" d="M2134.186,613c-235.459-49.33-4.663,132.032-518.277,86.947-298.12-12.636-579.68,122.191-879.43,104.7-246.746,17.889-231.106-144.686-499.146-.9-100.477-8.46-47.207,227.571-59.433,278.338,73.108,21.067,155.976,20.505,234.252,18.733,573.565-20.113,1150.213-7.737,1722.034-57.859V613" transform="translate(-1040.5 -322.785)" fill="#efd450"/>
    <path id="Path_150172" data-name="Path 150172" d="M2136.825,1105.36c-24.21-283.169-429.975-387.5-531.254-436.454-71.56-34.439-146.844-6.978-210.5,31.6-59.574,45.312-492.225,136.223-559.653,174.346-52.1,28.766-197.994,84.9-212.781,80.241-17.26,20.2-138.571,1.854-183.491,25.651-1137.236,208.892,1744.585,102.653,1697.681,124.621" transform="translate(-1043.138 -217.464)" fill="#efd450"/>
  </g>
</svg>
