<svg xmlns="http://www.w3.org/2000/svg" width="15.787" height="20" viewBox="0 0 15.787 20">
  <g id="Account_00000180348602135161793410000017017337100434448264_" transform="translate(-22.73 -6.111)">
    <g id="Group_272" data-name="Group 272" transform="translate(26.187 6.111)">
      <g id="Group_271" data-name="Group 271" transform="translate(0 0)">
        <path id="Path_4352" data-name="Path 4352" d="M58.873,10.548a4.437,4.437,0,1,1-4.437-4.437A4.442,4.442,0,0,1,58.873,10.548Z" transform="translate(-50 -6.111)" fill="#262626"/>
      </g>
    </g>
    <g id="Group_273" data-name="Group 273" transform="translate(22.73 15.824)">
      <path id="Path_4353" data-name="Path 4353" d="M38.517,87.682V91.86c0,.2-.008.385-.023.579a.634.634,0,0,1-.631.586.65.65,0,0,1-.148-.018,30.934,30.934,0,0,0-7.091-.775,30.926,30.926,0,0,0-7.091.775.635.635,0,0,1-.781-.568c-.014-.194-.022-.383-.022-.579V87.682c0-.034,0-.068,0-.1a5.147,5.147,0,0,1,2.045-4.053,3.89,3.89,0,0,1,3.8-.513,8.9,8.9,0,0,0,1.031.336,3.958,3.958,0,0,0,2.032,0,9.343,9.343,0,0,0,1.042-.34,3.882,3.882,0,0,1,3.794.513,5.14,5.14,0,0,1,2.045,4.053C38.515,87.614,38.517,87.648,38.517,87.682Z" transform="translate(-22.73 -82.739)" fill="#296896"/>
    </g>
  </g>
</svg>
