<svg id="Layer_1" data-name="Layer 1" xmlns="http://www.w3.org/2000/svg" viewBox="0 0 105.88 105.88"><g id="Group_52250" data-name="Group 52250"><path id="Path_150511" data-name="Path 150511" d="M106.38,53.44A52.94,52.94,0,1,1,53.44.5a52.94,52.94,0,0,1,52.94,52.94h0" transform="translate(-0.5 -0.5)" fill="#fff"/><circle id="Ellipse_1408" data-name="Ellipse 1408" cx="53.08" cy="52.65" r="49.08" fill="#296896"/><g id="Group_54928" data-name="Group 54928"><g id="Account"><g id="Group_273" data-name="Group 273"><path id="Path_4353" data-name="Path 4353" d="M68.46,62v7.67c0,.36,0,.7,0,1.06a1.16,1.16,0,0,1-1.16,1.07,1.24,1.24,0,0,1-.27,0A56.94,56.94,0,0,0,54,70.3a56.94,56.94,0,0,0-13,1.42,1.16,1.16,0,0,1-1.4-.86.57.57,0,0,1,0-.18c0-.36,0-.7,0-1.06V61.77a9.42,9.42,0,0,1,3.75-7.44,7.14,7.14,0,0,1,7-.94A16,16,0,0,0,52.1,54a7.26,7.26,0,0,0,3.73,0,17.74,17.74,0,0,0,1.91-.62,7.11,7.11,0,0,1,7,.94,9.39,9.39,0,0,1,3.75,7.44A1.09,1.09,0,0,1,68.46,62Z" transform="translate(-0.5 -0.5)" fill="#fadf4a"/></g></g><g id="Group_53557" data-name="Group 53557"><g id="Group_271" data-name="Group 271"><path id="Path_4352" data-name="Path 4352" d="M62.12,43.2A8.14,8.14,0,1,1,54,35.06,8.13,8.13,0,0,1,62.12,43.2Z" transform="translate(-0.5 -0.5)" fill="#fadf4a"/></g></g></g></g></svg>