<svg id="Layer_1" data-name="Layer 1" xmlns="http://www.w3.org/2000/svg" viewBox="0 0 60 60"><g id="Group_51935" data-name="Group 51935"><g id="Ellipse_1400" data-name="Ellipse 1400"><circle cx="30" cy="30" r="30" fill="#296896"/><circle cx="30" cy="30" r="29" fill="none" stroke="#fadf4a" stroke-width="2"/></g><g id="plus"><path id="Path_150390" data-name="Path 150390" d="M41.42,28.76H31v-10a.91.91,0,0,0-1.81,0v10H18.8a.91.91,0,0,0,0,1.81H29.2V41.42a.91.91,0,1,0,1.81,0V30.57h10.4a.91.91,0,1,0,0-1.81Z" transform="translate(0 0)" fill="#fadf4a"/><path id="Path_150390_-_Outline" data-name="Path 150390 - Outline" d="M30.12,17a1.82,1.82,0,0,1,1.81,1.81v9h9.5a1.81,1.81,0,0,1,0,3.62h-9.5v10a1.81,1.81,0,1,1-3.62,0v-10h-9.5a1.81,1.81,0,1,1,0-3.61h9.5v-9A1.81,1.81,0,0,1,30.12,17Zm0,11.76v-10h0Zm11.3.9Z" transform="translate(0 0)" fill="#fadf4a"/></g></g></svg>