<svg xmlns="http://www.w3.org/2000/svg" width="138.165" height="138.163" viewBox="0 0 138.165 138.163">
  <g id="Group_55048" data-name="Group 55048" transform="translate(-84 -764)">
    <path id="Path_149634" data-name="Path 149634" d="M1112.6,483.425a69.082,69.082,0,1,1-69.081-69.081,69.081,69.081,0,0,1,69.081,69.081" transform="translate(-890.432 349.656)" fill="#fff"/>
    <path id="Path_149635" data-name="Path 149635" d="M1100.312,479.379a60.844,60.844,0,1,1-60.843-60.843,60.843,60.843,0,0,1,60.843,60.843" transform="translate(-886.624 353.464)" fill="#c0d7e1"/>
    <g id="Layer_1" data-name="Layer 1" transform="translate(116.029 797.088)">
      <path id="Path_150951" data-name="Path 150951" d="M42.442,67.836c.865-1.47.6-3.739.212-5.356-.882-3.658-.376-7.364-.751-11.055a4.1,4.1,0,0,0,.441-.065c.359,2.809-.245,5.7.686,8.426a32.974,32.974,0,0,0,3.854,7.789c.359.294.686.6,1.061.865,0,0,8.1,3.445,14.86-6.5h0a1.073,1.073,0,0,0,.131-.555c-.229-2.547-2.809-5.242-4.36-7.169-2.2-2.727-4.295-5.6-7.005-7.871.1-.1.18-.212.278-.31a55.336,55.336,0,0,1,6.319,6.94c1.568,2.041,3.266,3.968,6.058,3.69a3.478,3.478,0,0,0,2.58-1.551s4.164-4.148,3.592-6.483a7.4,7.4,0,0,1-.686-.408c-1.829-1.355-4.164-2.564-6.515-4.18a70.442,70.442,0,0,0-7.985-5.111c.033-.163.065-.327.1-.506,2.025.947,4.115,1.715,6.156,2.449a26.094,26.094,0,0,0,8.491,1.682c2.956-.016,4.213-4.882,4.295-7.9,0,.425,0,.18.065-.572-.8-1.192-1.012-2.482-2.613-2.547-1.911-.082-3.674-.6-5.634-.523-3.69.18-7.626.1-11.267.523-.033-.114-.082-.229-.114-.343A28.7,28.7,0,0,0,62.8,28.531c2.743-1.192,7.92-3.233,7.92-4.033.065-5.356-1.943-6.058-3.8-8.116-3.037-1.421-5.225,1.8-7.479,3.364C56.7,21.673,54.166,23.73,51.6,25.87c-.065-.082-.147-.163-.212-.245,3.641-3.217,7.675-5.862,11.332-9.03,1.764-1.519,4.033-2.792,4.735-5.111a2.357,2.357,0,0,0-1.143-3.021,12.308,12.308,0,0,0-7.136-2.286A9.051,9.051,0,0,0,54.77,7.271c-1.4.6-3.527,3-4.246,4.148-2.106,3.347-4.7,6.385-6.907,9.651-.147-.033-.294-.065-.457-.1,1.617-2.4,1.421-4.817,2.286-7.413C46,11.875,46.41,4.2,45.9,2.372a6.174,6.174,0,0,1-1.061-.6H44.81c0-.016-.033-.033-.033-.049A8.99,8.99,0,0,0,35.551.886c-2.629,1.894-2.923,4.67-2.139,7.789.49,1.96,1.47,3.772,1.992,5.715a57.628,57.628,0,0,1,1.143,6.679,3.436,3.436,0,0,0-.392.1c-.8-5.846-4.507-15.072-5.389-17.8-.147-.441-.6-1.045-.523-1.094-3.331,1.764-6.532,3.2-8.491,6.679-.049.147-.425.816-.474.914-.49,2.286,2.368,4.735,3.821,5.993a59.973,59.973,0,0,1,6.483,5.895s.033-.016.033-.033a9.513,9.513,0,0,0,.914.9c-.2.114-.392.212-.572.327-2.3-2.858-4.98-4.85-7.707-7.266-2.221-1.96-5.4-6.45-8.736-6.385A20.576,20.576,0,0,0,6.583,21.836c-.408,1.894,3.152,3.266,4.1,3.723a51.242,51.242,0,0,0,14.86,5.193c-.082.212-.147.425-.229.653-.278,0-.539-.033-.816-.049a14.989,14.989,0,0,0-2.662-.751v-.082a30.081,30.081,0,0,1-7.756-2.743c-2.809-1.29-5.568-3.658-8.769-2.106a7.021,7.021,0,0,0-2.433,1.878c-.637.669-3.119,4.654-2.89,6.695.033.261-.082.392.049.506a15.794,15.794,0,0,0,5.47,2.172c2.286.474,3.707,1.094,6.025,1.176,4.311.18,8.867.425,13.112-.523l.049.49c-4.066.849-8.361-.1-12.345.833-1.943.457-9.291,2.466-8.622,5.585a22.116,22.116,0,0,0,.588,2.384c.506,1.649,1,3.315,1.5,4.964.7.669-.1.359,1.306,1.029,1.47.7,6.205-1.584,9.749-2.939a48.824,48.824,0,0,0,9.944-5.764c.065.114.147.229.229.343a81.644,81.644,0,0,0-8.05,6.3c-2.041,1.927-6.058,4.327-6.156,7.283,1.764,2.3,5.617,7.985,9.324,5.666,0,.016,2.939-4.507,4.735-6.63a29.542,29.542,0,0,0,4.964-7.871c.131.082.245.147.376.229-1.274,3.054-2.89,5.813-3.919,9-.833,2.6-3.217,7.3-1.78,9.993.6.457,1.274,1.061,1.649,1.339,1.633,1.453,10.173,4.931,14.223-1.911ZM31,28.466c3.69-4.507,10.532-6.254,15.17-1.992a11,11,0,0,1,3.511,7.266,9.03,9.03,0,0,1-.457,3.543q-2.106,6.491-8.785.474a1.128,1.128,0,0,0-2.2-.294c-.669,3.674,1.535,7.12,5.5,7.413a6.61,6.61,0,0,0,1.976-.18C38,54.9,22.765,38.525,30.979,28.482Z" transform="translate(0 0)" fill="#fadf4a"/>
    </g>
  </g>
</svg>
