<svg xmlns="http://www.w3.org/2000/svg" xmlns:xlink="http://www.w3.org/1999/xlink" width="138.165" height="138.163" viewBox="0 0 138.165 138.163">
  <defs>
    <linearGradient id="linear-gradient" x1="-0.037" y1="0.965" x2="0.962" y2="0.965" gradientUnits="objectBoundingBox">
      <stop offset="0" stop-color="#b77a51"/>
      <stop offset="0.21" stop-color="#b3764d"/>
      <stop offset="0.41" stop-color="#a76d44"/>
      <stop offset="0.61" stop-color="#945d34"/>
      <stop offset="0.8" stop-color="#79471e"/>
      <stop offset="0.99" stop-color="#572b01"/>
      <stop offset="1" stop-color="#552a00"/>
    </linearGradient>
  </defs>
  <g id="Group_55047" data-name="Group 55047" transform="translate(-221 -657.588)">
    <path id="Path_149632" data-name="Path 149632" d="M1179.943,428.524a69.082,69.082,0,1,1-69.081-69.081,69.081,69.081,0,0,1,69.081,69.081" transform="translate(-820.779 298.145)" fill="#fff"/>
    <path id="Path_149633" data-name="Path 149633" d="M1167.659,424.478a60.844,60.844,0,1,1-60.843-60.843,60.843,60.843,0,0,1,60.843,60.843" transform="translate(-816.971 302.365)" fill="#c0d7e1"/>
    <g id="Layer_1" data-name="Layer 1" transform="translate(255.006 691.99)">
      <path id="Path_150952" data-name="Path 150952" d="M65.695,30.879c-1.423-.838-3.621-.585-5.187-.206-3.542.854-7.132.364-10.706.727a3.972,3.972,0,0,0-.063-.427c2.72-.348,5.519.237,8.16-.664a31.934,31.934,0,0,0,7.543-3.732c.285-.348.585-.664.838-1.028,0,0,3.337-7.844-6.294-14.391h0a1.039,1.039,0,0,0-.538-.127c-2.467.221-5.076,2.72-6.942,4.222a52.666,52.666,0,0,0-7.622,6.784c-.095-.095-.206-.174-.3-.269A53.59,53.59,0,0,1,51.3,15.65c1.977-1.518,3.843-3.163,3.574-5.867a3.368,3.368,0,0,0-1.5-2.5S49.359,3.252,47.1,3.805a7.166,7.166,0,0,1-.4.664C45.39,6.241,44.22,8.5,42.654,10.779a68.219,68.219,0,0,0-4.95,7.733c-.158-.032-.316-.063-.49-.095.917-1.961,1.66-3.985,2.372-5.962a25.271,25.271,0,0,0,1.629-8.223C41.2,1.37,36.487.152,33.561.073c.411,0,.174,0-.553-.063-1.154.775-2.4.98-2.467,2.53C30.461,4.39,29.955,6.1,30.034,8c.174,3.574.095,7.385.506,10.912-.111.032-.221.079-.332.111a27.79,27.79,0,0,0-2.578-7.86C26.476,8.5,24.5,3.489,23.725,3.489c-5.187-.063-5.867,1.882-7.86,3.685-1.376,2.941,1.74,5.06,3.258,7.243,1.866,2.657,3.859,5.108,5.93,7.591-.079.063-.158.142-.237.206-3.115-3.527-5.677-7.433-8.745-10.975-1.471-1.708-2.7-3.906-4.95-4.586A2.282,2.282,0,0,0,8.2,7.759,11.92,11.92,0,0,0,5.981,14.67a8.765,8.765,0,0,0,1.06,4.27c.585,1.36,2.91,3.416,4.017,4.112,3.242,2.04,6.183,4.554,9.346,6.689-.032.142-.063.285-.095.443-2.325-1.566-4.665-1.376-7.18-2.214-1.629-.538-9.061-.933-10.833-.443a5.979,5.979,0,0,1-.585,1.028v.032c-.016,0-.032.032-.047.032a8.706,8.706,0,0,0-.807,8.935C2.692,40.1,5.381,40.383,8.4,39.624c1.9-.474,3.653-1.423,5.535-1.929A55.81,55.81,0,0,1,20.4,36.588a3.328,3.328,0,0,0,.095.38c-5.661.775-14.6,4.365-17.237,5.219-.427.142-1.012.585-1.06.506,1.708,3.226,3.1,6.326,6.468,8.223.142.047.791.411.886.459,2.214.474,4.586-2.293,5.8-3.7A58.081,58.081,0,0,1,21.068,41.4s-.016-.032-.032-.032a9.213,9.213,0,0,0,.87-.886c.111.19.206.38.316.553-2.767,2.23-4.7,4.823-7.037,7.464-1.9,2.151-6.247,5.234-6.183,8.46a19.926,19.926,0,0,0,12.145,8.65c1.834.4,3.163-3.052,3.606-3.969a49.625,49.625,0,0,0,5.029-14.391c.206.079.411.142.633.221,0,.269-.032.522-.047.791a14.516,14.516,0,0,0-.727,2.578H29.56A29.132,29.132,0,0,1,26.9,58.348c-1.249,2.72-3.542,5.393-2.04,8.492A6.8,6.8,0,0,0,26.682,69.2c.648.617,4.507,3.02,6.484,2.8.253-.032.38.079.49-.047a15.3,15.3,0,0,0,2.1-5.3c.459-2.214,1.06-3.59,1.139-5.835.174-4.175.411-8.587-.506-12.7l.474-.047c.822,3.938-.095,8.1.807,11.955.443,1.882,2.388,9,5.408,8.35A21.419,21.419,0,0,0,45.39,67.8c1.6-.49,3.21-.965,4.807-1.455.648-.68.348.095,1-1.265.68-1.423-1.534-6.009-2.847-9.441a47.283,47.283,0,0,0-5.582-9.631c.111-.063.221-.142.332-.221a79.068,79.068,0,0,0,6.1,7.8c1.866,1.977,4.191,5.867,7.053,5.962,2.23-1.708,7.733-5.44,5.487-9.03.016,0-4.365-2.847-6.42-4.586A28.61,28.61,0,0,0,47.7,41.126c.079-.127.142-.237.221-.364,2.957,1.233,5.63,2.8,8.713,3.8,2.514.807,7.069,3.115,9.678,1.724.443-.585,1.028-1.233,1.3-1.6,1.407-1.581,4.776-9.852-1.85-13.774ZM27.567,41.964c-4.365-3.574-6.057-10.2-1.929-14.691a10.652,10.652,0,0,1,7.037-3.4,8.745,8.745,0,0,1,3.432.443q6.286,2.04.459,8.508a1.092,1.092,0,0,0-.285,2.135,5.837,5.837,0,0,0,7.18-5.329,6.4,6.4,0,0,0-.174-1.913c9.884,7.464-5.978,22.219-15.7,14.264Z" transform="translate(0)" fill="url(#linear-gradient)"/>
    </g>
  </g>
</svg>
