<svg xmlns="http://www.w3.org/2000/svg" xmlns:xlink="http://www.w3.org/1999/xlink" width="199.999" height="200" viewBox="0 0 199.999 200">
  <defs>
    <clipPath id="clip-path">
      <rect id="Rectangle_5257" data-name="Rectangle 5257" width="185.432" height="185.432" fill="none"/>
    </clipPath>
  </defs>
  <g id="Group_52243" data-name="Group 52243" transform="translate(-108 -216.63)">
    <path id="Path_150505" data-name="Path 150505" d="M600.188,350.221c0,12.129.06,24.26-.048,36.389a5.35,5.35,0,0,0,2.368,5c9.482,6.609,10.657,18.741,7.171,26.547-4.728,10.588-14.863,15.6-25.784,12.949-8.121-1.974-13.76-7.177-16.031-15.14-2.378-8.341-1.161-16.776,5.769-22.308,4.383-3.5,4.626-6.992,4.607-11.639-.093-23.265.067-46.53.045-69.795a10.778,10.778,0,0,1,8.278-10.87,10.58,10.58,0,0,1,12.486,6.12,17.062,17.062,0,0,1,1.088,6.651c.1,12.03.047,24.061.051,36.092m-4.745,1.537h.01q0-4.773,0-9.545c-.01-9.744,0-19.488-.052-29.232-.019-3.245-1.741-5.926-4.116-6.574-2.711-.739-5.495-.447-6.818,2.117a15.442,15.442,0,0,0-1.278,6.872c.007,23.663.035,47.327.324,70.987.052,4.332-.794,7.138-4.818,9.6-5.73,3.5-7.779,9.5-6.748,16.043a16.65,16.65,0,0,0,11.566,13.848c8.474,2.869,17.923-1.2,21.374-8.783,3.927-8.621,1.227-17.84-6.972-22.7a4.4,4.4,0,0,1-2.5-4.456c.067-12.727.033-25.454.033-38.181" transform="translate(-381.054 -40.683)" fill="#296896"/>
    <path id="Path_150506" data-name="Path 150506" d="M583.2,331.55h6.939v3.661c0,13.816.063,27.632-.055,41.447-.023,2.693.717,4.216,3.2,5.6,10.081,5.605,11.181,18.268,2.256,25.118-4.738,3.637-10.082,3.982-15.381,1.382a13.612,13.612,0,0,1-7.981-11.684c-.6-7.053,2.6-12,8.581-15.237a4.051,4.051,0,0,0,2.48-4.159c-.079-14.113-.041-28.227-.041-42.341Z" transform="translate(-378.621 -26.798)" fill="#296896"/>
    <path id="Path_150507" data-name="Path 150507" d="M568.092,331.731a7.186,7.186,0,0,0,7.119,7.119h.593a7.119,7.119,0,1,0,0-14.238h-.593a7.186,7.186,0,0,0-7.119,7.119" transform="translate(-380.446 -29.951)" fill="#dae3db"/>
    <path id="Path_150508" data-name="Path 150508" d="M585.253,291.449c-4.165,0-4.165,6.457,0,6.457s4.165-6.457,0-6.457" transform="translate(-374.068 -45.018)" fill="#dae3db"/>
    <path id="Path_150509" data-name="Path 150509" d="M582.777,282.745c-2.768,0-2.768,4.292,0,4.292s2.768-4.292,0-4.292" transform="translate(-374.717 -48.972)" fill="#dae3db"/>
    <path id="Path_150510" data-name="Path 150510" d="M594.467,315.115c4.164,0,4.164-6.459,0-6.459s-4.165,6.459,0,6.459" transform="translate(-369.882 -37.2)" fill="#dae3db"/>
    <path id="Path_150511" data-name="Path 150511" d="M713.326,370.958a100,100,0,1,1-100-100,100,100,0,0,1,100,100" transform="translate(-405.327 -54.328)" fill="#fff"/>
    <g id="Group_52209" data-name="Group 52209" transform="translate(115.283 223.873)" opacity="0.8">
      <g id="Group_52208" data-name="Group 52208" transform="translate(0 0)">
        <g id="Group_52207" data-name="Group 52207" clip-path="url(#clip-path)">
          <path id="Path_150512" data-name="Path 150512" d="M703.767,368.654a92.716,92.716,0,1,1-92.715-92.715,92.716,92.716,0,0,1,92.715,92.715" transform="translate(-518.335 -275.938)" fill="#fff"/>
        </g>
      </g>
    </g>
    <path id="Path_150513" data-name="Path 150513" d="M632.166,328.643c-.8-4.433,7.906-13.189,12.064-13.053,4.447.147,5.612,5.393,3.479,8.754-1.809,2.852-11.469,9.033-14.673,5.958q-3.056,2.568-5.941,5.285c4.682-1.089,11.354-.42,13.31,1.75,2.97,3.293.031,7.833-3.844,8.677-3.117.678-13.245-1.594-14.3-5.643q-4.106,4.252-7.869,8.787c4.108-2.376,14.152-1.443,16.467,1.456,2.769,3.466-.43,7.827-4.344,8.44-3.461.541-15.145-2.971-13.9-7.725q-4.354,5.417-8.3,11.155c4.2-2.259,14.013-1.313,16.3,1.547,2.768,3.466-.432,7.826-4.347,8.44-3.277.513-13.934-2.613-13.983-6.985q-4.265,6.411-8.118,13.114c3.666-2.835,14.6-1.956,17.026,1.085,2.768,3.464-.432,7.826-4.347,8.438-3.345.524-14.383-2.743-13.978-7.259-5.185,9.168-9.891,18.637-14.34,28.154-.5,1.081-2.19.359-1.686-.721,4.4-9.407,9.05-18.764,14.161-27.833a3.335,3.335,0,0,1-.986.384c-4.421.992-12.539-9.018-11.88-13.271.684-4.415,6.027-5.051,9.1-2.589,2.112,1.691,5.759,8.723,5.252,12.872q3.9-6.765,8.2-13.262a3.473,3.473,0,0,1-.551.057c-4.519.118-10.538-11.3-9.072-15.35,1.52-4.209,6.875-3.8,9.411-.78,1.518,1.806,3.4,7.833,2.992,11.985q3.992-5.716,8.378-11.123a3.026,3.026,0,0,1-1.664.182c-4.459-.7-8.333-13.026-6.171-16.758,2.243-3.877,7.429-2.512,9.38.918,1.248,2.193,2.043,9.209.544,13.143q3.656-4.324,7.615-8.4a3.335,3.335,0,0,1-.889-.019c-4.46-.694-8.333-13.024-6.172-16.757,2.244-3.876,7.429-2.512,9.381.918,1.229,2.157,2.016,8.975.614,12.942q3.7-3.58,7.673-6.914" transform="translate(-376.509 -34.05)" fill="#dae3db"/>
    <path id="Path_150514" data-name="Path 150514" d="M596.924,391.548c1.572,1.668,3.531,4.951,5.94,5.029,1.88-1.437,6.513-4.583,4.619-7.613.02-.006-3.685-2.4-5.41-3.864a24.406,24.406,0,0,0-6.421-4.052c.064-.1.125-.207.186-.311,2.5,1.038,4.738,2.357,7.342,3.2,2.12.684,5.954,2.619,8.152,1.456.368-.5.861-1.04,1.092-1.339,1.179-1.334,4.024-8.307-1.561-11.6-1.2-.71-3.048-.49-4.369-.174-2.984.714-6,.313-9.028.612-.015-.122-.029-.246-.047-.366,2.3-.292,4.654.193,6.882-.566a26.691,26.691,0,0,0,6.361-3.144c.239-.3.489-.56.705-.871,0,0,2.808-6.611-5.305-12.123h0a.836.836,0,0,0-.454-.1c-2.074.182-4.279,2.288-5.847,3.562a45.24,45.24,0,0,0-6.419,5.713c-.083-.074-.169-.147-.254-.22a44.587,44.587,0,0,1,5.666-5.157c1.662-1.283,3.245-2.664,3.01-4.94a2.854,2.854,0,0,0-1.262-2.107s-3.388-3.4-5.288-2.936a5.357,5.357,0,0,1-.339.557c-1.11,1.488-2.09,3.4-3.411,5.316a56.624,56.624,0,0,0-4.17,6.512c-.135-.026-.272-.054-.41-.074.777-1.648,1.4-3.364,1.992-5.028a21.155,21.155,0,0,0,1.369-6.937c-.017-2.405-3.988-3.432-6.456-3.506.346.012.144.006-.471-.049-.97.657-2.022.82-2.08,2.136-.067,1.555-.5,3-.42,4.6.15,3.006.077,6.225.426,9.2-.092.029-.183.061-.275.092a23.764,23.764,0,0,0-2.168-6.63c-.972-2.238-2.641-6.46-3.288-6.469-4.367-.057-4.948,1.581-6.63,3.105-1.163,2.475,1.463,4.261,2.749,6.1,1.566,2.243,3.249,4.3,5,6.393-.067.057-.134.115-.2.175-2.624-2.968-4.788-6.261-7.372-9.251-1.246-1.441-2.275-3.285-4.17-3.866a1.926,1.926,0,0,0-2.468.929,10.128,10.128,0,0,0-1.872,5.819,7.347,7.347,0,0,0,.892,3.594,11.293,11.293,0,0,0,3.383,3.466c2.725,1.725,5.205,3.842,7.883,5.638-.031.124-.06.244-.086.369-1.953-1.318-3.925-1.156-6.053-1.864-1.376-.457-7.641-.791-9.132-.368a4.864,4.864,0,0,1-.5.864l.006.026c-.016.009-.029.023-.045.033a7.361,7.361,0,0,0-.685,7.531c1.54,2.139,3.818,2.379,6.354,1.75,1.6-.4,3.073-1.2,4.668-1.629a47.534,47.534,0,0,1,5.445-.934c.025.106.047.214.074.318-4.766.656-12.3,3.674-14.526,4.4-.36.119-.856.5-.89.432,1.441,2.714,2.6,5.329,5.445,6.931.118.041.663.348.744.385,1.867.394,3.872-1.93,4.887-3.121a49.39,49.39,0,0,1,4.817-5.289l-.021-.031a6.754,6.754,0,0,0,.729-.745c.089.157.177.313.272.467a50.038,50.038,0,0,0-5.928,6.291c-1.6,1.818-5.265,4.417-5.212,7.136a16.8,16.8,0,0,0,10.233,7.3c1.54.334,2.663-2.58,3.044-3.352a41.614,41.614,0,0,0,4.234-12.135c.173.065.351.125.528.182-.012.223-.026.445-.041.668a11.093,11.093,0,0,0-.606,2.17l-.061-.006a24.661,24.661,0,0,1-2.241,6.341c-1.053,2.291-2.98,4.543-1.722,7.155a5.673,5.673,0,0,0,1.53,1.987c.544.515,3.793,2.551,5.46,2.356.212-.025.318.065.413-.034a12.679,12.679,0,0,0,1.771-4.471,27.4,27.4,0,0,0,.966-4.924c.142-3.52.35-7.24-.432-10.7.134-.013.265-.029.4-.045.7,3.323-.084,6.822.678,10.071.372,1.591,2.008,7.583,4.554,7.036,1.193-.257,1.485-.339,1.942-.476l4.052-1.22c.547-.569.291.076.839-1.065.577-1.2-1.3-5.06-2.4-7.958a39.44,39.44,0,0,0-4.7-8.117l.284-.182a67.957,67.957,0,0,0,5.138,6.577m-18.2-9.763c-3.684-3.019-5.106-8.6-1.632-12.376a9.016,9.016,0,0,1,5.928-2.868,7.358,7.358,0,0,1,2.891.371q5.3,1.723.388,7.166a.92.92,0,0,0-.24,1.8,4.925,4.925,0,0,0,6.053-4.5,5.315,5.315,0,0,0-.151-1.611c8.328,6.287-5.042,18.725-13.237,12.017" transform="translate(-386.17 -20.046)" fill="#fadf4a"/>
    <path id="Path_150515" data-name="Path 150515" d="M592.372,313.421c.662-.276,1.5-3.435,1.895-5.992.244,2.944.809,6.876,1.738,6.741,1.684-.244,0-4.476-.288-5.714.393.62,2.683,5.564,3.431,3.863.34-.777-1.914-4.645-3.549-6.716,2.184,1.927,6.331,5.211,6.973,4.34,1.011-1.369-3.182-3.15-4.261-3.819.717.157,5.841,2.013,5.158.284-.234-.592-2.734-1.371-5.076-1.85,2.775-.058,5.916-.346,5.862-1.181-.109-1.7-4.463-.355-5.72-.17.65-.342,5.762-2.228,4.126-3.109-.724-.391-4.542,1.419-6.774,2.864,1.968-2.222,4.983-6.019,4.155-6.645-1.358-1.025-3.181,3.15-3.861,4.223.164-.714,2.071-5.82.335-5.156-.672.259-1.613,3.41-2.08,5.96-.16-2.939-.6-6.808-1.529-6.7-1.691.193-.132,4.475.115,5.721-.374-.631-2.513-5.644-3.312-3.966-.317.666,1.258,3.73,2.708,5.912-2.325-1.846-5.694-4.212-6.238-3.428-.97,1.4,3.274,3.053,4.375,3.69-.721-.135-5.9-1.835-5.166-.128.252.583,2.755,1.283,5.1,1.691-2.789.14-5.976.521-5.9,1.36.16,1.694,4.471.221,5.721,0-.639.361-5.692,2.4-4.03,3.233.721.361,4.343-1.478,6.547-2.973-1.9,2.269-4.872,6.238-4.017,6.843,1.389.985,3.085-3.245,3.733-4.337-.144.718-1.9,5.88-.18,5.163" transform="translate(-372.947 -43.568)" fill="#fadf4a"/>
    <path id="Path_150516" data-name="Path 150516" d="M573.482,342.447c.961-.4,2.183-4.985,2.752-8.7.355,4.274,1.174,9.983,2.523,9.786,2.445-.355,0-6.5-.419-8.3.57.9,3.9,8.08,4.98,5.609.5-1.129-2.778-6.744-5.151-9.75,3.172,2.8,9.191,7.563,10.125,6.3,1.467-1.987-4.619-4.572-6.188-5.544,1.041.228,8.48,2.922,7.49.412-.339-.86-3.969-1.991-7.368-2.686,4.029-.084,8.589-.5,8.511-1.713-.16-2.465-6.479-.516-8.3-.247.942-.5,8.365-3.236,5.99-4.516-1.053-.566-6.594,2.062-9.834,4.159,2.856-3.226,7.232-8.741,6.031-9.647-1.972-1.489-4.619,4.572-5.606,6.13.238-1.037,3.006-8.45.487-7.484-.976.374-2.342,4.952-3.021,8.652-.231-4.268-.878-9.884-2.218-9.729-2.455.282-.192,6.5.167,8.306-.544-.916-3.65-8.194-4.808-5.758-.461.969,1.827,5.416,3.93,8.582-3.375-2.679-8.265-6.114-9.055-4.974-1.409,2.03,4.754,4.43,6.351,5.355-1.047-.2-8.564-2.664-7.5-.186.364.846,4,1.863,7.405,2.456-4.05.2-8.675.755-8.56,1.975.234,2.459,6.492.32,8.309,0-.928.525-8.264,3.488-5.851,4.695,1.046.524,6.3-2.145,9.5-4.316-2.754,3.294-7.071,9.056-5.829,9.936,2.016,1.428,4.478-4.711,5.417-6.3-.206,1.044-2.749,8.537-.26,7.5" transform="translate(-383.127 -34.236)" fill="#908aa5"/>
    <path id="Path_150517" data-name="Path 150517" d="M600.253,350.691c0,12.2.06,24.405-.048,36.607a5.379,5.379,0,0,0,2.382,5.032c9.537,6.646,10.72,18.852,7.213,26.706-4.757,10.649-14.952,15.7-25.937,13.025-8.17-1.985-13.842-7.219-16.126-15.23-2.392-8.39-1.169-16.875,5.8-22.44,4.409-3.519,4.654-7.033,4.635-11.709-.095-23.4.067-46.806.044-70.208a10.846,10.846,0,0,1,8.329-10.935,10.643,10.643,0,0,1,12.56,6.156,17.147,17.147,0,0,1,1.094,6.69c.1,12.1.048,24.2.051,36.306m-4.773,1.547h.01q0-4.8,0-9.6c-.01-9.8,0-19.6-.052-29.405-.019-3.265-1.753-5.963-4.141-6.613-2.727-.743-5.526-.449-6.859,2.129a15.546,15.546,0,0,0-1.286,6.914c.007,23.8.035,47.608.326,71.409.052,4.357-.8,7.18-4.846,9.655-5.764,3.525-7.826,9.556-6.789,16.137a16.747,16.747,0,0,0,11.635,13.931c8.525,2.887,18.029-1.21,21.5-8.835,3.95-8.672,1.235-17.947-7.014-22.832a4.426,4.426,0,0,1-2.519-4.482c.067-12.8.034-25.605.034-38.408" transform="translate(-381.115 -40.602)" fill="#296896"/>
    <path id="Path_150518" data-name="Path 150518" d="M583.162,331.91h6.981v3.682c0,13.9.063,27.8-.057,41.693-.023,2.709.721,4.242,3.223,5.633,10.141,5.638,11.248,18.377,2.269,25.268-4.766,3.658-10.141,4.007-15.473,1.389a13.692,13.692,0,0,1-8.028-11.754c-.6-7.094,2.621-12.07,8.632-15.326a4.076,4.076,0,0,0,2.494-4.184c-.079-14.2-.041-28.4-.041-42.594Z" transform="translate(-378.667 -26.635)" fill="#296896"/>
    <path id="Path_150519" data-name="Path 150519" d="M567.966,332.091a7.228,7.228,0,0,0,7.161,7.161h.6a7.161,7.161,0,0,0,0-14.322h-.6a7.228,7.228,0,0,0-7.161,7.161" transform="translate(-380.503 -29.806)" fill="#dae3db"/>
    <path id="Path_150520" data-name="Path 150520" d="M585.229,291.571c-4.19,0-4.19,6.5,0,6.5s4.19-6.5,0-6.5" transform="translate(-374.087 -44.962)" fill="#dae3db"/>
    <path id="Path_150521" data-name="Path 150521" d="M582.738,282.815c-2.784,0-2.784,4.318,0,4.318s2.784-4.318,0-4.318" transform="translate(-374.74 -48.94)" fill="#dae3db"/>
    <path id="Path_150522" data-name="Path 150522" d="M594.5,315.376c4.189,0,4.189-6.5,0-6.5s-4.19,6.5,0,6.5" transform="translate(-369.876 -37.098)" fill="#dae3db"/>
  </g>
</svg>
