<svg xmlns="http://www.w3.org/2000/svg" xmlns:xlink="http://www.w3.org/1999/xlink" width="138.165" height="138.163" viewBox="0 0 138.165 138.163">
  <defs>
    <clipPath id="clip-path">
      <rect id="Rectangle_5117" data-name="Rectangle 5117" width="55.744" height="39.055" fill="none"/>
    </clipPath>
  </defs>
  <g id="Group_55046" data-name="Group 55046" transform="translate(-84 -619)">
    <path id="Path_149578" data-name="Path 149578" d="M1112.6,483.425a69.082,69.082,0,1,1-69.081-69.081,69.081,69.081,0,0,1,69.081,69.081" transform="translate(-890.432 204.656)" fill="#fff"/>
    <path id="Path_149608" data-name="Path 149608" d="M1100.312,479.379a60.844,60.844,0,1,1-60.843-60.843,60.843,60.843,0,0,1,60.843,60.843" transform="translate(-886.624 208.464)" fill="#296896"/>
    <g id="Group_51950" data-name="Group 51950" transform="translate(125 668)">
      <g id="Group_51949" data-name="Group 51949" transform="translate(0 0)" clip-path="url(#clip-path)">
        <path id="Path_150400" data-name="Path 150400" d="M27.85,39.054q-11.4,0-22.792,0C1.737,39.051,0,37.307,0,33.963Q.01,19.4.034,4.84A4.475,4.475,0,0,1,4.865.007Q23.3-.014,41.733.005C44.687.005,47.641,0,50.6,0c3.462.005,5.132,1.683,5.132,5.113q0,14.482.016,28.964c0,3.255-1.708,4.975-4.943,4.975q-11.475,0-22.951,0M7.506,4.135c.452.507.675.786.926,1.039Q15.961,12.744,23.5,20.31c2.969,2.985,5.8,3,8.773.026q6.6-6.6,13.183-13.216c.9-.9,1.775-1.833,2.888-2.986ZM47.915,34.871l-12.1-12.146c-2.148,2.259-4.633,3.909-7.945,3.926s-5.745-1.75-7.618-3.64L8.27,34.871Zm3.765-2.519V7.09L39.059,19.634,51.68,32.352M4.138,31.989l12.5-12.436L4.138,7.128Z" transform="translate(0 0)" fill="#fadf4a"/>
      </g>
    </g>
  </g>
</svg>
