<svg id="Layer_1" data-name="Layer 1" xmlns="http://www.w3.org/2000/svg" xmlns:xlink="http://www.w3.org/1999/xlink" viewBox="0 0 158.48 158.48"><defs><clipPath id="clip-path" transform="translate(0 0)"><rect x="45" y="43" width="67.84" height="71.73" fill="none"/></clipPath></defs><g id="Group_55044" data-name="Group 55044"><path id="Path_4817" data-name="Path 4817" d="M158.48,79.24A79.24,79.24,0,1,1,79.24,0h0a79.24,79.24,0,0,1,79.24,79.24" transform="translate(0 0)" fill="#fff"/><path id="Path_4211" data-name="Path 4211" d="M151.54,78.77A72.77,72.77,0,1,1,78.77,6h0a72.77,72.77,0,0,1,72.77,72.77" transform="translate(0 0)" fill="#fadf4a"/><g id="Group_293" data-name="Group 293"><g clip-path="url(#clip-path)"><g id="Group_269" data-name="Group 269"><path id="Path_4343" data-name="Path 4343" d="M94.22,43.6a19,19,0,0,0-3.48,5.24,23.14,23.14,0,0,0-1.85,5.42c-.35,1.84.47,3.81.74,5.72a39.05,39.05,0,0,1-.17,5.62C89.15,69.32,88.64,73,88,76.71c0,.22-.08.44-.11.65h0a33.76,33.76,0,0,1-4.69-5.57C82,69.7,80.8,67.63,79.58,65.68s-2.15-4-3.3-5.8a29.86,29.86,0,0,0-3.73-4.58,51.49,51.49,0,0,0-6.8-5.89,22.43,22.43,0,0,0-3-1.87,3.6,3.6,0,0,0-5.06,4,22,22,0,0,0,1.14,3.38,51.63,51.63,0,0,0,4.21,8,29.76,29.76,0,0,0,3.62,4.67c1.46,1.51,3.25,2.91,4.9,4.52s3.38,3.25,5.13,4.93a32.61,32.61,0,0,1,4.23,5.61l-.6-.06c-1.81-.2-3.63-.39-5.43-.65a46.84,46.84,0,0,1-5.4-.92c-1.78-.53-3.52-1.29-5.29-1.84a15.47,15.47,0,0,0-2.69-.55,9.45,9.45,0,0,0-2.8.36c-3.74.63-7.45,1-11.18,1.57a2.91,2.91,0,0,0-.64,5.59c3.51,1.35,7,2.6,10.54,4a9.3,9.3,0,0,0,2.65,1,14.75,14.75,0,0,0,2.74.08c1.85-.14,3.72-.48,5.57-.6a47.64,47.64,0,0,1,5.47.32c1.81.15,3.62.38,5.43.59Q83,92,86.7,92.71c.53.9,1.07,1.77,1.63,2.61a39.92,39.92,0,0,0,4,5.23,43.48,43.48,0,0,0,4.52,4,62.59,62.59,0,0,1,6.45,6.16c1.47,1.56,2.23,2.52,2.24,2.54a4.09,4.09,0,1,0,6.39-5.11s-.76-1-2-2.73a62.52,62.52,0,0,1-4.55-7.68,44.07,44.07,0,0,0-2.82-5.3,40.13,40.13,0,0,0-4.2-5.09c-.9-1-1.87-1.91-2.87-2.85,0-2.29.08-4.57.24-6.84.24-3.74.57-7.45,1.11-11.15A38.38,38.38,0,0,1,98,60.94c.69-1.8,1.94-3.54,2-5.41a23.78,23.78,0,0,0-.57-5.7,19.43,19.43,0,0,0-2.21-5.89,1.74,1.74,0,0,0-.34-.42,1.9,1.9,0,0,0-2.68.08" transform="translate(0 0)" fill="#fefad8"/></g></g></g></g></svg>