<svg xmlns="http://www.w3.org/2000/svg" width="20.5" height="20.5" viewBox="0 0 20.5 20.5">
  <g id="feed_1_" data-name="feed (1)" transform="translate(-2 -1.5)">
    <path id="Path_150956" data-name="Path 150956" d="M19.007,21.633v.85a.716.716,0,0,1-.714.714H2.714A.716.716,0,0,1,2,22.483V6.9a.716.716,0,0,1,.714-.714h.85V20.919a.716.716,0,0,0,.714.714Z" transform="translate(0 -1.197)" fill="#262626"/>
    <path id="Path_150957" data-name="Path 150957" d="M22.483,2H6.9a.716.716,0,0,0-.714.714V18.293a.716.716,0,0,0,.714.714H22.483a.716.716,0,0,0,.714-.714V2.714A.716.716,0,0,0,22.483,2ZM18.59,15.107H10.8a.714.714,0,0,1,0-1.429H18.59a.714.714,0,1,1,0,1.429Zm0-3.893H10.8a.714.714,0,1,1,0-1.429H18.59a.714.714,0,1,1,0,1.429Zm0-3.893H10.8a.714.714,0,1,1,0-1.429H18.59a.714.714,0,1,1,0,1.429Z" transform="translate(-1.197)" fill="#296896" stroke="rgba(0,0,0,0)" stroke-miterlimit="10" stroke-width="1"/>
  </g>
</svg>
