<svg xmlns="http://www.w3.org/2000/svg" width="29.486" height="24" viewBox="0 0 29.486 24">
  <g id="Layer_2" data-name="Layer 2" transform="translate(-1.25 -3.25)">
    <g id="Group_50394" data-name="Group 50394" transform="translate(20.45 4.621)">
      <path id="Path_149312" data-name="Path 149312" d="M23.393,6.307H19.279a1.029,1.029,0,0,1,0-2.057h4.114a1.029,1.029,0,1,1,0,2.057Z" transform="translate(-14.136 -4.25)"/>
      <path id="Path_149313" data-name="Path 149313" d="M23.764,10.307H18.279a1.029,1.029,0,1,1,0-2.057h5.486a1.029,1.029,0,1,1,0,2.057Z" transform="translate(-14.507 -2.764)"/>
      <path id="Path_149314" data-name="Path 149314" d="M24.507,14.307H16.279a1.029,1.029,0,1,1,0-2.057h8.229a1.029,1.029,0,1,1,0,2.057Z" transform="translate(-15.25 -1.279)"/>
      <path id="Path_149315" data-name="Path 149315" d="M24.136,18.307H17.279a1.029,1.029,0,0,1,0-2.057h6.857a1.029,1.029,0,0,1,0,2.057Z" transform="translate(-14.879 0.207)"/>
    </g>
    <path id="Path_149316" data-name="Path 149316" d="M13.936,27.25H9.821a1.716,1.716,0,0,1-1.714-1.714V16.95L1.569,7.8a1.707,1.707,0,0,1-.319-1V4.964A1.716,1.716,0,0,1,2.964,3.25H20.793a1.716,1.716,0,0,1,1.714,1.714V6.8a1.7,1.7,0,0,1-.319,1L15.65,16.95v8.585A1.716,1.716,0,0,1,13.936,27.25Zm-3.771-2.057h3.429V16.841a1.7,1.7,0,0,1,.319-1L20.45,6.693V5.307H3.307V6.693l6.538,9.152a1.707,1.707,0,0,1,.319,1Z" transform="translate(0)"/>
    <circle id="Ellipse_15" data-name="Ellipse 15" cx="1.029" cy="1.029" r="1.029" transform="translate(19.079 21.079)"/>
  </g>
</svg>
