<svg xmlns="http://www.w3.org/2000/svg" xmlns:xlink="http://www.w3.org/1999/xlink" width="158.484" height="158.482" viewBox="0 0 158.484 158.482">
  <defs>
    <clipPath id="clip-path">
      <path id="Path_4213" data-name="Path 4213" d="M4.759,205.748a72.769,72.769,0,1,0,72.769-72.769A72.77,72.77,0,0,0,4.759,205.748" transform="translate(-4.759 -132.979)" fill="none"/>
    </clipPath>
  </defs>
  <g id="Group_292" data-name="Group 292" transform="translate(-47.112 -223.742)">
    <path id="Path_4817" data-name="Path 4817" d="M163.242,212.22A79.242,79.242,0,1,1,84,132.979a79.241,79.241,0,0,1,79.241,79.241" transform="translate(42.354 90.763)" fill="#fff"/>
    <path id="Path_4211" data-name="Path 4211" d="M150.3,205.748a72.77,72.77,0,1,1-72.769-72.769A72.77,72.77,0,0,1,150.3,205.748" transform="translate(48.825 97.235)" fill="#296896"/>
    <g id="Group_256" data-name="Group 256" transform="translate(53.586 230.214)" clip-path="url(#clip-path)">
      <path id="Path_4212" data-name="Path 4212" d="M90.994,178.069c-1.652-.976-4.188-.674-6-.24-4.1.983-8.253.429-12.407.841-.021-.168-.039-.336-.065-.5,3.157-.4,6.4.265,9.456-.778a36.724,36.724,0,0,0,8.743-4.322c.328-.407.673-.77.97-1.2,0,0,3.861-9.085-7.289-16.66l0,0a1.147,1.147,0,0,0-.623-.139c-2.849.25-5.881,3.143-8.035,4.893-3.053,2.48-6.279,4.819-8.822,7.851-.115-.1-.232-.2-.348-.3a61.277,61.277,0,0,1,7.786-7.086c2.285-1.762,4.458-3.661,4.137-6.789a3.932,3.932,0,0,0-1.736-2.9s-4.656-4.676-7.267-4.035a6.992,6.992,0,0,1-.465.765c-1.526,2.046-2.874,4.666-4.687,7.306a77.479,77.479,0,0,0-5.729,8.95c-.187-.037-.374-.073-.565-.1,1.068-2.264,1.926-4.622,2.738-6.91a29.092,29.092,0,0,0,1.881-9.532c-.024-3.306-5.481-4.718-8.871-4.819.474.016.2.01-.65-.068-1.333.905-2.777,1.128-2.857,2.938-.09,2.135-.684,4.124-.578,6.315.207,4.13.1,8.553.587,12.641-.127.039-.252.082-.378.124a32.766,32.766,0,0,0-2.982-9.111c-1.336-3.075-3.63-8.877-4.519-8.888-6-.079-6.8,2.172-9.111,4.266-1.6,3.4,2.012,5.857,3.777,8.383,2.152,3.082,4.464,5.91,6.872,8.787-.092.079-.182.158-.273.24-3.6-4.079-6.578-8.606-10.129-12.714-1.713-1.98-3.127-4.516-5.731-5.311a2.643,2.643,0,0,0-3.391,1.276,13.919,13.919,0,0,0-2.572,8,10.055,10.055,0,0,0,1.225,4.935c.684,1.576,3.372,3.958,4.648,4.764,3.746,2.37,7.154,5.279,10.833,7.749-.04.168-.082.336-.118.507-2.683-1.81-5.394-1.589-8.319-2.561-1.891-.629-10.5-1.089-12.549-.508a6.489,6.489,0,0,1-.686,1.187l.006.037c-.021.011-.039.031-.061.045a10.115,10.115,0,0,0-.941,10.349c2.117,2.94,5.245,3.27,8.732,2.406,2.2-.545,4.222-1.646,6.415-2.238a65.146,65.146,0,0,1,7.483-1.286c.034.147.063.3.1.439-6.549.9-16.909,5.05-19.961,6.049-.5.163-1.179.681-1.225.594,1.981,3.729,3.58,7.322,7.483,9.526.161.055.91.476,1.023.529,2.567.54,5.321-2.652,6.717-4.288a67.6,67.6,0,0,1,6.62-7.27l-.029-.042a9.382,9.382,0,0,0,1-1.023c.119.216.244.431.373.641-3.2,2.59-5.442,5.582-8.148,8.646-2.2,2.5-7.235,6.07-7.162,9.808a23.1,23.1,0,0,0,14.063,10.026c2.115.461,3.661-3.545,4.182-4.6,2.714-5.518,4.834-10.562,5.818-16.676.239.087.484.171.728.248-.018.307-.037.611-.056.918a15.153,15.153,0,0,0-.834,2.982l-.082-.006a33.966,33.966,0,0,1-3.082,8.712c-1.447,3.146-4.095,6.242-2.365,9.834a7.8,7.8,0,0,0,2.1,2.728c.749.708,5.213,3.506,7.5,3.238.292-.034.437.09.568-.045.75-.779,1.964-3.838,2.435-6.144.523-2.559,1.221-4.156,1.326-6.767.2-4.835.482-9.95-.594-14.7.184-.019.365-.04.545-.063.955,4.566-.116,9.374.931,13.838.513,2.188,2.761,10.423,6.258,9.671,1.639-.353,2.041-.465,2.669-.653L73,219.087c.752-.779.4.1,1.152-1.462.8-1.654-1.784-6.955-3.3-10.937a54.166,54.166,0,0,0-6.467-11.154c.131-.081.26-.166.389-.249a93.968,93.968,0,0,0,7.062,9.037c2.16,2.291,4.852,6.8,8.162,6.912,2.585-1.975,8.95-6.3,6.347-10.465.027-.008-5.063-3.293-7.435-5.308a33.627,33.627,0,0,0-8.824-5.571c.087-.14.173-.282.255-.426,3.433,1.428,6.513,3.238,10.09,4.392,2.912.939,8.182,3.6,11.2,2,.5-.687,1.181-1.431,1.5-1.843,1.62-1.831,5.528-11.415-2.146-15.945M46.825,190.906c-5.061-4.148-7.017-11.814-2.243-17.009a12.4,12.4,0,0,1,8.146-3.94,10.1,10.1,0,0,1,3.974.51q7.282,2.367.532,9.845a1.265,1.265,0,0,0-.329,2.475c4.116.753,7.99-1.73,8.319-6.181a7.28,7.28,0,0,0-.208-2.214c11.444,8.64-6.928,25.733-18.191,16.513" transform="translate(17.527 -111.201)" fill="#fadf4a"/>
    </g>
  </g>
</svg>
