<svg xmlns="http://www.w3.org/2000/svg" xmlns:xlink="http://www.w3.org/1999/xlink" width="138.165" height="138.163" viewBox="0 0 138.165 138.163">
  <defs>
    <clipPath id="clip-path">
      <rect id="Rectangle_5113" data-name="Rectangle 5113" width="49.068" height="49.128" transform="translate(0 0)" fill="none"/>
    </clipPath>
  </defs>
  <g id="Group_55042" data-name="Group 55042" transform="translate(-56.354 -95.449)">
    <path id="Path_149508" data-name="Path 149508" d="M1112.6,257.762a69.082,69.082,0,1,1-69.081-69.081,69.081,69.081,0,0,1,69.081,69.081" transform="translate(-918.078 -93.232)" fill="#fff"/>
    <path id="Path_149593" data-name="Path 149593" d="M1100.312,253.716a60.844,60.844,0,1,1-60.843-60.843,60.842,60.842,0,0,1,60.843,60.843" transform="translate(-914.27 -88.424)" fill="#296896"/>
    <g id="Group_51940" data-name="Group 51940" transform="translate(100.354 140.45)">
      <g id="Group_51939" data-name="Group 51939" clip-path="url(#clip-path)">
        <path id="Path_150391" data-name="Path 150391" d="M4.844,0h40.5a3.4,3.4,0,0,1,2.846,1.492,6.38,6.38,0,0,1,.874,3.652c-.08,12.95-.031,25.9-.044,38.852,0,4.054-1.058,5.109-5.2,5.115q-19.284.033-38.568,0C1.1,49.1.051,48.056.047,44,.034,31.051.085,18.1,0,5.149q0-.3.011-.591A4.818,4.818,0,0,1,4.844,0M15.192,37.109a1.25,1.25,0,0,0,1.671-.287c2.824-3.666,5.527-7.207,8.279-10.71,2.636-3.354,6-3.488,8.784-.29,3.3,3.789,6.5,7.674,9.754,11.506a.2.2,0,0,1,.019.022,1.236,1.236,0,0,0,2.169-.812V4.446A1.247,1.247,0,0,0,44.621,3.2H4.506A1.247,1.247,0,0,0,3.259,4.446V39.553a1.248,1.248,0,0,0,2.177.83c4.884-5.438,6.055-5.706,9.756-3.274" fill="#fadf4a"/>
        <path id="Path_150392" data-name="Path 150392" d="M12.361,23.673C9.988,21.728,9.072,18.135,11.31,15.7a5.8,5.8,0,0,1,3.819-1.847,4.722,4.722,0,0,1,1.862.239q3.414,1.109.25,4.615a.593.593,0,0,0-.155,1.16,3.173,3.173,0,0,0,3.9-2.9,3.416,3.416,0,0,0-.1-1.038c5.365,4.05-3.248,12.062-8.528,7.741" fill="#fadf4a"/>
      </g>
    </g>
  </g>
</svg>
