<svg xmlns="http://www.w3.org/2000/svg" width="19.358" height="20" viewBox="0 0 19.358 20">
  <g id="Group_199" data-name="Group 199" transform="translate(-949.732 155.906)">
    <path id="Path_18" data-name="Path 18" d="M521.42,297.677a2.1,2.1,0,0,0-1.441-.058,21.588,21.588,0,0,1-2.977.2c-.005-.04-.01-.081-.016-.121a11.2,11.2,0,0,0,2.269-.187,8.825,8.825,0,0,0,2.1-1.037c.078-.1.161-.185.232-.287,0,0,.926-2.18-1.749-4h0a.275.275,0,0,0-.149-.033,4.381,4.381,0,0,0-1.928,1.174,14.874,14.874,0,0,0-2.117,1.883l-.084-.073a14.74,14.74,0,0,1,1.868-1.7c.548-.423,1.069-.878.992-1.629a.944.944,0,0,0-.416-.7s-1.117-1.122-1.744-.968a1.685,1.685,0,0,1-.111.184c-.366.491-.689,1.12-1.125,1.753a18.633,18.633,0,0,0-1.375,2.147c-.045-.009-.09-.018-.135-.024.256-.543.462-1.109.657-1.658a6.978,6.978,0,0,0,.451-2.287c-.006-.793-1.315-1.132-2.128-1.156.114,0,.047,0-.156-.016-.32.217-.666.271-.685.7-.022.512-.165.99-.139,1.516.049.991.025,2.052.141,3.033l-.091.03a7.856,7.856,0,0,0-.715-2.186c-.321-.738-.871-2.13-1.085-2.133a2.385,2.385,0,0,0-2.186,1.024c-.384.816.483,1.405.906,2.012.516.739,1.071,1.418,1.649,2.108l-.065.058c-.865-.979-1.578-2.065-2.43-3.051-.411-.475-.75-1.083-1.375-1.274a.634.634,0,0,0-.814.306,3.337,3.337,0,0,0-.617,1.919,2.412,2.412,0,0,0,.294,1.185,3.729,3.729,0,0,0,1.115,1.143c.9.569,1.716,1.267,2.6,1.859-.01.04-.02.081-.028.122a6.986,6.986,0,0,0-2-.614,10.415,10.415,0,0,0-3.011-.122,1.565,1.565,0,0,1-.165.285l0,.009-.015.011a2.427,2.427,0,0,0-.226,2.483,1.808,1.808,0,0,0,2.1.577c.527-.131,1.013-.394,1.54-.537a15.5,15.5,0,0,1,1.8-.309c.008.035.015.071.024.105a31.012,31.012,0,0,0-4.789,1.451c-.119.039-.283.163-.294.142a4.893,4.893,0,0,0,1.8,2.285c.039.013.218.115.245.127.616.13,1.277-.637,1.611-1.029a16.321,16.321,0,0,1,1.588-1.744l-.007-.01a2.2,2.2,0,0,0,.24-.246c.029.052.058.1.089.154a16.527,16.527,0,0,0-1.954,2.075c-.529.6-1.736,1.456-1.719,2.353a5.538,5.538,0,0,0,3.374,2.406c.508.111.878-.85,1-1.1a13.719,13.719,0,0,0,1.4-4c.057.021.116.041.174.06,0,.073-.009.147-.013.22a3.6,3.6,0,0,0-.2.716l-.02,0a8.149,8.149,0,0,1-.739,2.09c-.347.755-.982,1.5-.568,2.359a1.873,1.873,0,0,0,.5.655,3.58,3.58,0,0,0,1.8.777c.07-.008.1.022.136-.011a4.186,4.186,0,0,0,.584-1.474,9.068,9.068,0,0,0,.318-1.623,13.648,13.648,0,0,0-.142-3.528l.131-.015c.229,1.1-.028,2.249.223,3.321.123.525.662,2.5,1.5,2.32.393-.085.49-.111.64-.157l1.336-.4c.18-.187.1.025.276-.351.191-.4-.428-1.669-.791-2.624a12.989,12.989,0,0,0-1.551-2.676l.093-.06a22.423,22.423,0,0,0,1.694,2.168c.518.55,1.164,1.632,1.959,1.658.62-.474,2.147-1.511,1.523-2.511.006,0-1.215-.79-1.784-1.274a8.051,8.051,0,0,0-2.117-1.337q.032-.051.062-.1c.824.342,1.563.777,2.421,1.054.7.225,1.963.863,2.688.48.121-.165.284-.343.36-.442.389-.439,1.327-2.739-.515-3.826" transform="translate(446.569 -445)" fill="#296896"/>
    <path id="Path_19" data-name="Path 19" d="M552.556,328.033a.057.057,0,0,1,.014-.05.834.834,0,0,0-.333-.912.952.952,0,0,0-1.132-.052c-.059.037-.743.788-.588.835a.07.07,0,0,1,.051.066,1.029,1.029,0,0,1,.146.039.948.948,0,0,1,.418.295.124.124,0,0,1,.1-.026.656.656,0,0,1,.588.511,1.211,1.211,0,0,0,.735-.707" transform="translate(409.005 -474.97)" fill="#262626"/>
    <path id="Path_20" data-name="Path 20" d="M541.5,327.649a1.116,1.116,0,0,1,.908.044.087.087,0,0,1,.03.027,1.139,1.139,0,0,1,.712-.294c-.109-.294.15-.669.408-.915a1.461,1.461,0,0,0-1.2-.2c-.495.156-1.128.762-.859,1.338" transform="translate(416.193 -474.49)" fill="#262626"/>
    <path id="Path_21" data-name="Path 21" d="M546.661,320.155a1.54,1.54,0,0,0-1.058,1.017.062.062,0,0,1-.036.034,1.532,1.532,0,0,1,1.47.279l.031-.022a1.21,1.21,0,0,1,.848-.191,1.042,1.042,0,0,0-1.255-1.117" transform="translate(412.918 -469.63)" fill="#262626"/>
    <path id="Path_22" data-name="Path 22" d="M541.314,350.588a2.079,2.079,0,0,0,1.17-.468.88.88,0,0,1-.4-.389,1.069,1.069,0,0,1-.385-.02,1.2,1.2,0,0,1-.669-.425,1.254,1.254,0,0,1-.76.185.966.966,0,0,0,1.043,1.117" transform="translate(417.134 -492.769)" fill="#262626"/>
    <path id="Path_23" data-name="Path 23" d="M531.4,334.448a1.007,1.007,0,0,1,.524-.7,1.231,1.231,0,0,1,.007-.346,1.063,1.063,0,0,1,.033-.137,1.05,1.05,0,0,1-.826-.935,1.093,1.093,0,0,0,.263,2.12" transform="translate(424.936 -479.311)" fill="#262626"/>
    <path id="Path_24" data-name="Path 24" d="M561.063,343.92a1.621,1.621,0,0,0,.053-1.272,1.448,1.448,0,0,1-1.007.366c-.01.017-.018.034-.029.05a1.158,1.158,0,0,1-.346.327,1.1,1.1,0,0,1-.16,1.1,1.685,1.685,0,0,0,1.488-.569" transform="translate(401.8 -487.501)" fill="#262626"/>
    <path id="Path_25" data-name="Path 25" d="M537.74,342.141a1.307,1.307,0,0,1-.155-.957,1.107,1.107,0,0,1-.772-.355,1.075,1.075,0,0,1-.223-.38,1.072,1.072,0,0,0-.226,1.31,1.121,1.121,0,0,0,1.376.382" transform="translate(420.333 -485.756)" fill="#262626"/>
    <path id="Path_26" data-name="Path 26" d="M551.87,347.351a1.056,1.056,0,0,0,.569-1.139,1.316,1.316,0,0,1-1.183-.094,1.1,1.1,0,0,1-.707,1.019,1.124,1.124,0,0,0,1.321.213" transform="translate(408.963 -490.256)" fill="#262626"/>
    <path id="Path_27" data-name="Path 27" d="M535.086,327.773a1.045,1.045,0,0,0,.634.9,1.292,1.292,0,0,1,.577-.588,1.038,1.038,0,0,1,.3-1.255,1.035,1.035,0,0,0-1.431.469,1.058,1.058,0,0,0-.074.284.124.124,0,0,1-.005.191" transform="translate(421.235 -474.856)" fill="#262626"/>
    <path id="Path_28" data-name="Path 28" d="M561.471,317.268a1.46,1.46,0,0,1,1.145.563,1.13,1.13,0,0,1,.082.124.938.938,0,0,0,.067-1.075,1.126,1.126,0,0,0-1.449-.5,1.28,1.28,0,0,1,.156.893" transform="translate(400.419 -466.575)" fill="#262626"/>
    <path id="Path_29" data-name="Path 29" d="M538.92,334.915a.9.9,0,0,0,.358.815c.152.112.35.134.5.229a1.159,1.159,0,0,1,.451-.547,1.268,1.268,0,0,1-.168-.421,1.094,1.094,0,0,1,.226-.9c-.6-.055-1.3.075-1.367.819" transform="translate(418.195 -480.705)" fill="#262626"/>
    <path id="Path_30" data-name="Path 30" d="M546.925,334.1q.51-.565-.04-.744a.76.76,0,0,0-.3-.039.937.937,0,0,0-.615.3.89.89,0,0,0,.169,1.285c.851.7,2.239-.595,1.375-1.248a.552.552,0,0,1,.016.167.512.512,0,0,1-.629.467.1.1,0,0,1,.025-.187" transform="translate(412.761 -480.097)" fill="#262626"/>
    <path id="Path_31" data-name="Path 31" d="M544.51,343.118a.89.89,0,0,0,.486.085.129.129,0,0,1,.133-.024.855.855,0,0,0,.644-.99,1.291,1.291,0,0,1-.273-.37.117.117,0,0,1-.006-.022,1.289,1.289,0,0,1-1.129-.393,1,1,0,0,0,.144,1.715" transform="translate(414.198 -486.513)" fill="#262626"/>
    <path id="Path_32" data-name="Path 32" d="M554.319,338.585c.014-.02.024-.041.036-.061a.1.1,0,0,1,.047-.09.835.835,0,0,0-.158-.92,1.354,1.354,0,0,0-.744-.32,1.5,1.5,0,0,1-.625,1.07,1.337,1.337,0,0,1-.283.135c.406.556,1.246.86,1.726.187" transform="translate(407.341 -483.172)" fill="#262626"/>
    <path id="Path_33" data-name="Path 33" d="M551.1,352.562a1.231,1.231,0,0,1-.319.2,1.61,1.61,0,0,1-1.08.029,2.32,2.32,0,0,1-.549.436.047.047,0,0,1-.011.036,4.91,4.91,0,0,1,.419.375,1.144,1.144,0,0,0,.789.306c.74-.039.976-.668,1.051-1.293,0,0,0-.006,0-.009a1.52,1.52,0,0,1-.243-.039.11.11,0,0,1-.06-.038" transform="translate(410.077 -495.369)" fill="#262626"/>
    <path id="Path_34" data-name="Path 34" d="M560.384,332.939a.129.129,0,0,1-.12-.116.961.961,0,0,0-.8-.271,1.161,1.161,0,0,1-.6.832,1.06,1.06,0,0,1,.691.463,1.1,1.1,0,0,1,.121.832c.51-.111,1.006-.36,1.047-.963a1.123,1.123,0,0,0-.335-.776" transform="translate(402.368 -479.477)" fill="#262626"/>
    <path id="Path_35" data-name="Path 35" d="M531.537,344.482a1.167,1.167,0,0,1-.642-.441,1.327,1.327,0,0,1-.211-.886.814.814,0,0,1-.632-.1,1.956,1.956,0,0,0-.461.729,1.263,1.263,0,0,0,.136.931,1.166,1.166,0,0,0,1.786.2,1.068,1.068,0,0,1,.023-.435" transform="translate(425.624 -487.824)" fill="#262626"/>
    <path id="Path_36" data-name="Path 36" d="M568.716,332.511c-.012,0-.023,0-.035,0a.131.131,0,0,1-.124-.095l-.009-.047a.121.121,0,0,1,0-.046,2.241,2.241,0,0,0-.74-.422.888.888,0,0,1-.277.4,1.283,1.283,0,0,1,.347.621,1.256,1.256,0,0,1-.312,1.061,2.285,2.285,0,0,1,.18.59,1.22,1.22,0,0,0,1.209-1.566,1.36,1.36,0,0,0-.238-.5" transform="translate(395.486 -478.974)" fill="#262626"/>
    <path id="Path_37" data-name="Path 37" d="M540.282,354a1.518,1.518,0,0,1-1.142.049,1.189,1.189,0,0,1-.684-.63,1.519,1.519,0,0,1-.254.154c.054,1.147,1.822,2.139,2.392.823a.938.938,0,0,1-.312-.4" transform="translate(418.763 -496.048)" fill="#262626"/>
    <path id="Path_38" data-name="Path 38" d="M569.913,324.484a1.172,1.172,0,0,0-.994-.871.818.818,0,0,1-.287.437,2.119,2.119,0,0,1,.114,1.021,1.566,1.566,0,0,1,.934.542,2.142,2.142,0,0,0,.257-.553,1.2,1.2,0,0,0-.023-.576" transform="translate(394.613 -472.395)" fill="#262626"/>
    <path id="Path_39" data-name="Path 39" d="M562.7,345.623a1.34,1.34,0,0,1-.216.886,1.744,1.744,0,0,1-1.334.628,1.163,1.163,0,0,1,.022.278,1.447,1.447,0,0,0,1.769-.061,1.261,1.261,0,0,0,.084-1.727,1.264,1.264,0,0,1-.325,0" transform="translate(400.55 -489.862)" fill="#262626"/>
    <path id="Path_40" data-name="Path 40" d="M548.232,315.544a1.44,1.44,0,0,1,.615-.107,1.384,1.384,0,0,1,1.135.755,1.305,1.305,0,0,1,.6-.278.134.134,0,0,1,0-.043,1.129,1.129,0,0,0-1-1.313c-.475-.071-1.521.188-1.659.762a.962.962,0,0,1,.3.215.05.05,0,0,1,.005.009" transform="translate(411.041 -465.199)" fill="#262626"/>
    <path id="Path_41" data-name="Path 41" d="M526.343,335.479a1.331,1.331,0,0,1-.488-.852,1.425,1.425,0,0,1,.194-.874.058.058,0,0,1-.056,0,1.088,1.088,0,0,1-.172-.129l0,0c-.51.288-.989.893-.669,1.492a2.267,2.267,0,0,0,.779.792,1.289,1.289,0,0,1,.415-.429" transform="translate(429.203 -480.338)" fill="#262626"/>
    <path id="Path_42" data-name="Path 42" d="M560.1,324.078a1.624,1.624,0,0,0-.082-.964.12.12,0,0,1-.07-.156,1.2,1.2,0,0,0-.212-.3,1.3,1.3,0,0,0-1.616-.138.938.938,0,0,1-.017.538,1.267,1.267,0,0,1,.324.178,1.252,1.252,0,0,0,1.414,1.263.776.776,0,0,0,.251-.394.1.1,0,0,1,.006-.022" transform="translate(402.97 -471.353)" fill="#262626"/>
    <path id="Path_43" data-name="Path 43" d="M538.555,319.186a1.559,1.559,0,0,0-.9,1.3,1.313,1.313,0,0,1,1.111.083.122.122,0,0,1,.049.052,1.473,1.473,0,0,1,.133-.092,1.545,1.545,0,0,1,.34-.151.081.081,0,0,1-.106-.072,1.281,1.281,0,0,1,.665-1.044,1.715,1.715,0,0,0-1.292-.075" transform="translate(419.196 -468.802)" fill="#262626"/>
    <path id="Path_44" data-name="Path 44" d="M533.581,315.42a1.626,1.626,0,0,1,.627-.559,1.78,1.78,0,0,1,1.263-.1.608.608,0,0,1,.068-.229.181.181,0,0,1-.018-.016c-.924-1.27-2.62-.3-3.107.817a1.667,1.667,0,0,1,1.167.092" transform="translate(423.355 -464.693)" fill="#262626"/>
    <path id="Path_45" data-name="Path 45" d="M528.44,324.341a1.517,1.517,0,0,1,.774-.613,1.246,1.246,0,0,1,.086-.381,1.184,1.184,0,0,1,.53-.6.113.113,0,0,1-.007-.025,1.518,1.518,0,0,1,.139-.789,1.476,1.476,0,0,0-1.728.485,1.653,1.653,0,0,0,.2,1.895.058.058,0,0,1,.009.024" transform="translate(426.851 -470.991)" fill="#262626"/>
  </g>
</svg>
