<svg xmlns="http://www.w3.org/2000/svg" width="19.977" height="20" viewBox="0 0 19.977 20">
  <g id="Layer_2" data-name="Layer 2" transform="translate(-1.43 -1.58)">
    <path id="Path_4344" data-name="Path 4344" d="M21.3,11.056a1.631,1.631,0,0,1-1.54,1.077h-1.02v7.794a1.661,1.661,0,0,1-1.653,1.653H5.747a1.661,1.661,0,0,1-1.653-1.653V12.133H3.074A1.654,1.654,0,0,1,2,9.232l8.333-7.255a1.685,1.685,0,0,1,2.173,0l8.333,7.255A1.625,1.625,0,0,1,21.3,11.056Z" fill="#282828"/>
    <path id="Path_4345" data-name="Path 4345" d="M14.891,18.32v4.015H8.75V18.32a3.07,3.07,0,0,1,6.141,0Z" transform="translate(-0.405 -0.756)" fill="#717171"/>
  </g>
</svg>
