<svg xmlns="http://www.w3.org/2000/svg" width="158" height="157.998" viewBox="0 0 158 157.998">
  <g id="Group_50770" data-name="Group 50770" transform="translate(-136 -555.354)">
    <path id="Path_149637" data-name="Path 149637" d="M158,211.017a79,79,0,1,1-79-79,79,79,0,0,1,79,79" transform="translate(136 423.337)" fill="#fff"/>
    <path id="Path_149639" data-name="Path 149639" d="M143.917,206.355a69.58,69.58,0,1,1-69.579-69.579,69.579,69.579,0,0,1,69.579,69.579" transform="translate(140.661 428.226)" fill="#296896"/>
    <g id="Group_50773" data-name="Group 50773" transform="translate(0 3.187)">
      <path id="Path_149647" data-name="Path 149647" d="M14.943-6.961h-7L6.908-3.788H0L7.679-24.78h7.59l7.65,20.992H15.981Zm-1.6-4.951-1.9-5.841-1.9,5.841Z" transform="translate(166.991 645.842)" fill="#fadf4a"/>
      <path id="Path_149645" data-name="Path 149645" d="M1.19-22.244H6.853V-3.772h2.7V-22.244h5.633v-2.194H1.19ZM38.252-14.12A10.177,10.177,0,0,0,27.874-24.675,10.194,10.194,0,0,0,17.5-14.12,10.194,10.194,0,0,0,27.874-3.565,10.177,10.177,0,0,0,38.252-14.12Zm-18,0c0-5.07,3.261-8.213,7.62-8.213s7.62,3.143,7.62,8.213c0,5.04-3.261,8.213-7.62,8.213S20.254-9.079,20.254-14.12Z" transform="translate(195.275 645.826)" fill="#fadf4a"/>
      <path id="Path_149646" data-name="Path 149646" d="M8.785-8.778h8.18v5.1H1.7V-8.49L9.765-19H1.7v-5.069H16.965v4.81Z" transform="translate(243.315 644.886)" fill="#fadf4a"/>
    </g>
  </g>
</svg>
