<svg xmlns="http://www.w3.org/2000/svg" xmlns:xlink="http://www.w3.org/1999/xlink" width="199.999" height="200" viewBox="0 0 199.999 200">
  <defs>
    <clipPath id="clip-path">
      <rect id="Rectangle_5257" data-name="Rectangle 5257" width="185.432" height="185.432" fill="none"/>
    </clipPath>
    <clipPath id="clip-path-2">
      <rect id="Rectangle_5261" data-name="Rectangle 5261" width="153.634" height="119.082" fill="none"/>
    </clipPath>
  </defs>
  <g id="Group_55045" data-name="Group 55045" transform="translate(-68.002 -170)">
    <g id="Group_52243" data-name="Group 52243" transform="translate(-39.998 -46.63)">
      <path id="Path_150511" data-name="Path 150511" d="M713.326,370.958a100,100,0,1,1-100-100,100,100,0,0,1,100,100" transform="translate(-405.327 -54.328)" fill="#fff"/>
      <g id="Group_52209" data-name="Group 52209" transform="translate(115.283 223.873)" opacity="0.8">
        <g id="Group_52208" data-name="Group 52208" transform="translate(0 0)">
          <g id="Group_52207" data-name="Group 52207" clip-path="url(#clip-path)">
            <path id="Path_150512" data-name="Path 150512" d="M703.767,368.654a92.716,92.716,0,1,1-92.715-92.715,92.716,92.716,0,0,1,92.715,92.715" transform="translate(-518.335 -275.938)" fill="#fff"/>
          </g>
        </g>
      </g>
    </g>
    <g id="Group_52249" data-name="Group 52249" transform="translate(91.002 210)">
      <g id="Group_52248" data-name="Group 52248" clip-path="url(#clip-path-2)">
        <path id="Path_150523" data-name="Path 150523" d="M22.622,24.553c.844-2.346-3.1-7.925-5.382-8.233-2.441-.329-3.559,2.426-2.7,4.457.725,1.723,5.428,5.985,7.46,4.6q1.43,1.683,2.755,3.431c-2.454-1.025-6.157-1.273-7.423-.27-1.924,1.524-.738,4.271,1.3,5.088,1.639.657,7.374.348,8.322-1.763q1.849,2.7,3.487,5.519c-2.023-1.675-7.591-2.09-9.121-.72-1.83,1.636-.485,4.311,1.6,5,1.838.613,8.537-.228,8.292-2.938q1.878,3.356,3.5,6.85c-2.086-1.619-7.525-2.006-9.036-.655-1.828,1.636-.485,4.311,1.6,5,1.742.581,7.844-.144,8.273-2.525q1.739,3.891,3.224,7.9c-1.74-1.883-7.786-2.41-9.391-.974-1.828,1.636-.485,4.311,1.6,5,1.777.593,8.1-.175,8.294-2.675,1.987,5.479,3.684,11.08,5.236,16.682.176.636,1.163.4.987-.239-1.535-5.538-3.212-11.07-5.168-16.49a1.839,1.839,0,0,0,.5.3c2.322.947,7.673-3.769,7.7-6.149.033-2.473-2.825-3.311-4.729-2.25-1.308.729-3.946,4.231-4.049,6.541q-1.509-4.05-3.255-7.991a1.957,1.957,0,0,0,.3.082c2.455.48,6.789-5.2,6.363-7.542-.442-2.436-3.4-2.7-5.063-1.291a11.684,11.684,0,0,0-2.735,6.265q-1.653-3.486-3.549-6.841a1.673,1.673,0,0,0,.89.252c2.5.031,5.746-6.341,4.91-8.576-.868-2.323-3.823-2.054-5.2-.363a11.516,11.516,0,0,0-1.505,7.121q-1.6-2.694-3.383-5.282a1.888,1.888,0,0,0,.486.071c2.5.032,5.746-6.34,4.91-8.576-.868-2.322-3.823-2.054-5.2-.363a11.586,11.586,0,0,0-1.525,7.006q-1.687-2.293-3.551-4.478" transform="translate(2.691 3.077)" fill="#dae3db"/>
        <path id="Path_150524" data-name="Path 150524" d="M40.19,10.132c1.738-1.786.454-8.5-1.5-9.721-2.085-1.309-4.243.737-4.3,2.939-.052,1.869,2.467,7.693,4.888,7.274q.606,2.124,1.089,4.263c-1.811-1.948-5.079-3.707-6.647-3.317-2.381.592-2.438,3.584-.923,5.17,1.221,1.277,6.569,3.368,8.306,1.837q.567,3.221.89,6.466c-1.148-2.361-6.045-5.042-8-4.428-2.343.734-2.224,3.725-.618,5.217,1.419,1.32,7.868,3.324,8.765.756q.321,3.832.354,7.685c-1.23-2.337-6.023-4.94-7.957-4.334-2.342.734-2.224,3.725-.617,5.218,1.345,1.249,7.2,3.112,8.576,1.122-.018,2.841-.136,5.685-.334,8.529-.8-2.436-6.09-5.415-8.146-4.771-2.342.732-2.224,3.723-.617,5.217,1.372,1.274,7.448,3.192,8.658,1-.458,5.81-1.229,11.611-2.134,17.353-.1.651.894.843,1,.191.894-5.677,1.655-11.409,2.117-17.151a1.847,1.847,0,0,0,.333.481c1.721,1.822,8.544-.258,9.558-2.412,1.052-2.237-1.2-4.182-3.375-4-1.492.122-5.341,2.22-6.392,4.28.2-2.873.321-5.749.342-8.621a1.967,1.967,0,0,0,.235.2c2.036,1.452,8.33-1.922,8.913-4.235.6-2.4-1.979-3.871-4.076-3.27a11.686,11.686,0,0,0-5.082,4.572q-.061-3.857-.4-7.7a1.685,1.685,0,0,0,.707.6c2.261,1.06,7.855-3.4,8.017-5.778.17-2.474-2.631-3.451-4.588-2.482a11.518,11.518,0,0,0-4.317,5.861c-.226-2.077-.52-4.148-.9-6.209a1.86,1.86,0,0,0,.414.266c2.261,1.063,7.853-3.4,8.017-5.776.17-2.473-2.631-3.451-4.588-2.482a11.59,11.59,0,0,0-4.287,5.747q-.587-2.785-1.38-5.546" transform="translate(6 0)" fill="#dae3db"/>
        <path id="Path_150525" data-name="Path 150525" d="M10.533,52.792c-1.418-2.05-8.25-2.082-9.828-.4-1.685,1.794-.093,4.306,2.057,4.79,1.824.411,8.025-.94,8.079-3.4q2.2-.187,4.393-.25c-2.261,1.4-4.614,4.27-4.534,5.885.122,2.451,3.048,3.083,4.9,1.9,1.487-.951,4.57-5.8,3.4-7.8q3.27.064,6.517.371c-2.538.673-6.111,4.962-5.886,7,.267,2.439,3.226,2.9,5,1.611,1.567-1.14,4.776-7.082,2.428-8.456q3.823.421,7.61,1.131c-2.531.758-6.006,4.96-5.785,6.974.27,2.439,3.226,2.9,5,1.61,1.485-1.078,4.44-6.467,2.752-8.2q4.176.849,8.3,1.97c-2.544.321-6.485,4.935-6.248,7.076.269,2.438,3.225,2.9,5,1.61,1.516-1.1,4.565-6.694,2.643-8.305,5.614,1.567,11.157,3.44,16.619,5.433.619.226,1-.714.379-.94-5.4-1.97-10.877-3.82-16.424-5.378a1.83,1.83,0,0,0,.537-.234c2.12-1.339,1.391-8.434-.528-9.843-1.992-1.463-4.336.374-4.578,2.542-.168,1.487,1.15,5.668,2.97,7.1-2.782-.75-5.58-1.422-8.4-1.995a2.057,2.057,0,0,0,.239-.194c1.818-1.719-.283-8.544-2.441-9.561-2.24-1.056-4.178,1.2-3.993,3.37a11.681,11.681,0,0,0,3.509,5.867q-3.8-.681-7.629-1.087a1.674,1.674,0,0,0,.723-.579c1.477-2.014-1.822-8.361-4.128-8.979-2.394-.643-3.892,1.918-3.318,4.024A11.522,11.522,0,0,0,24.8,52.818c-2.082-.177-4.17-.288-6.265-.316a1.867,1.867,0,0,0,.341-.354c1.477-2.015-1.821-8.361-4.126-8.979-2.394-.643-3.893,1.918-3.319,4.024A11.59,11.59,0,0,0,16.242,52.5q-2.848.041-5.709.288" transform="translate(0 8.132)" fill="#dae3db"/>
        <path id="Path_150526" data-name="Path 150526" d="M128.574,60.416c1.238-2.164,8.044-2.778,9.757-1.241,1.833,1.644.461,4.283-1.639,4.949-1.781.565-8.075-.252-8.34-2.7q-2.208,0-4.4.126c2.372,1.2,4.961,3.861,5.019,5.477.087,2.453-2.774,3.331-4.716,2.311-1.563-.821-5.047-5.388-4.054-7.479q-3.253.341-6.461.925c2.587.454,6.512,4.422,6.462,6.476-.059,2.454-2.967,3.163-4.844,2.031-1.66-1-5.363-6.647-3.142-8.217q-3.772.745-7.484,1.776c2.586.539,6.407,4.428,6.358,6.454-.061,2.454-2.967,3.165-4.846,2.032-1.572-.949-4.976-6.065-3.442-7.937q-4.089,1.2-8.107,2.671c2.563.1,6.883,4.363,6.831,6.516-.059,2.454-2.967,3.165-4.844,2.031-1.6-.968-5.121-6.279-3.343-8.048-5.459,2.04-10.823,4.381-16.094,6.831-.6.278-1.056-.627-.458-.9C82,72.075,87.3,69.765,92.7,67.739a1.837,1.837,0,0,1-.555-.188c-2.227-1.153-2.107-8.284-.315-9.852,1.861-1.629,4.351,0,4.779,2.141.294,1.468-.662,5.746-2.354,7.324,2.708-.986,5.439-1.894,8.195-2.7a2.042,2.042,0,0,1-.254-.172c-1.957-1.559-.447-8.537,1.616-9.734,2.142-1.242,4.266.837,4.267,3.017a11.691,11.691,0,0,1-3,6.145q3.725-1,7.509-1.733a1.67,1.67,0,0,1-.769-.516c-1.644-1.881,1.1-8.486,3.345-9.3,2.33-.845,4.042,1.578,3.65,3.726a11.524,11.524,0,0,1-4.445,5.765c2.058-.354,4.13-.643,6.215-.85a1.83,1.83,0,0,1-.371-.325c-1.643-1.881,1.1-8.486,3.345-9.3,2.33-.845,4.043,1.578,3.651,3.726a11.6,11.6,0,0,1-4.345,5.7q2.841-.2,5.712-.2" transform="translate(14.447 9.633)" fill="#dae3db"/>
        <path id="Path_150527" data-name="Path 150527" d="M126.705,37.136c.232-2.481,6.174-5.856,8.371-5.165,2.348.739,2.19,3.709.554,5.183-1.389,1.252-7.456,3.111-8.708,1q-2.01.915-3.952,1.934c2.658.115,6.114,1.463,6.836,2.91,1.093,2.2-1.148,4.18-3.338,4.054-1.763-.1-6.824-2.818-6.785-5.132q-2.819,1.657-5.5,3.514c2.543-.656,7.759,1.334,8.563,3.223.961,2.259-1.393,4.109-3.571,3.853-1.925-.225-7.631-3.834-6.259-6.182q-3.126,2.24-6.08,4.712c2.577-.579,7.666,1.383,8.459,3.247.961,2.259-1.392,4.109-3.571,3.853-1.822-.213-7.039-3.463-6.416-5.8q-3.226,2.785-6.276,5.785c2.376-.967,8.071,1.126,8.915,3.108.959,2.258-1.393,4.107-3.571,3.853-1.862-.219-7.26-3.6-6.372-5.947C93.876,63.25,89.96,67.6,86.174,72.012c-.429.5-1.221-.134-.792-.636,3.742-4.361,7.612-8.657,11.685-12.732a1.8,1.8,0,0,1-.584.058c-2.5-.128-5.343-6.67-4.361-8.839,1.021-2.253,3.964-1.8,5.237-.027.874,1.215,1.774,5.505.887,7.642q3.085-3.026,6.341-5.851a2.07,2.07,0,0,1-.3-.051c-2.426-.61-3.937-7.588-2.555-9.531,1.436-2.017,4.23-1,5.132.982a11.688,11.688,0,0,1-.185,6.833q2.976-2.454,6.119-4.684a1.668,1.668,0,0,1-.913-.15c-2.274-1.033-2.507-8.181-.8-9.851,1.771-1.733,4.333-.234,4.863,1.883a11.516,11.516,0,0,1-1.663,7.087c1.729-1.173,3.5-2.293,5.307-3.344a1.939,1.939,0,0,1-.471-.141c-2.274-1.033-2.507-8.181-.8-9.849,1.773-1.733,4.333-.235,4.865,1.882a11.589,11.589,0,0,1-1.6,6.99q2.5-1.359,5.118-2.545" transform="translate(16.099 5.674)" fill="#dae3db"/>
        <path id="Path_150528" data-name="Path 150528" d="M113.761,91.952c2.48-.25,6.934,4.931,6.68,7.22-.273,2.447-3.218,2.864-4.98,1.541-1.5-1.121-4.488-6.718-2.653-8.353q-1.284-1.8-2.658-3.506c.4,2.631-.259,6.282-1.541,7.267-1.945,1.5-4.323-.321-4.621-2.5-.239-1.749,1.453-7.238,3.732-7.644q-2.168-2.448-4.508-4.722c1.133,2.369.184,7.87-1.515,9.022-2.032,1.378-4.3-.575-4.469-2.762-.149-1.932,2.294-8.227,4.862-7.331q-2.8-2.637-5.794-5.06c1.064,2.418.119,7.788-1.559,8.926-2.032,1.377-4.3-.577-4.468-2.763-.141-1.831,2.044-7.575,4.458-7.414q-3.354-2.63-6.884-5.045c1.405,2.146.449,8.138-1.334,9.347-2.032,1.377-4.3-.577-4.468-2.763-.145-1.869,2.135-7.818,4.608-7.4-4.833-3.256-9.854-6.263-14.911-9.128-.574-.326-.1-1.224.471-.9,5,2.832,9.96,5.8,14.743,9.016a1.87,1.87,0,0,1-.17-.561c-.355-2.482,5.519-6.528,7.836-5.981,2.406.568,2.526,3.543,1.034,5.133-1.024,1.091-5.061,2.8-7.328,2.341q3.563,2.447,6.962,5.1a2,2,0,0,1-.007-.307c.131-2.5,6.688-5.325,8.86-4.342,2.256,1.021,1.8,3.958.024,5.226a11.689,11.689,0,0,1-6.741,1.133q2.98,2.448,5.773,5.1a1.665,1.665,0,0,1-.027-.925c.577-2.431,7.545-4.035,9.512-2.681,2.041,1.405,1.064,4.207-.912,5.136a11.533,11.533,0,0,1-7.274-.269q2.227,2.2,4.3,4.564a1.818,1.818,0,0,1,.049-.489c.575-2.431,7.545-4.035,9.511-2.681,2.042,1.405,1.065,4.207-.911,5.136a11.6,11.6,0,0,1-7.167-.221q1.815,2.193,3.483,4.532" transform="translate(13.497 10.937)" fill="#dae3db"/>
        <path id="Path_150529" data-name="Path 150529" d="M105.415,85.565c.584.618,1.31,1.836,2.2,1.865.7-.533,2.416-1.7,1.713-2.825.007,0-1.367-.889-2.007-1.433a9.028,9.028,0,0,0-2.382-1.5c.024-.038.046-.077.069-.115.927.385,1.758.874,2.724,1.185.787.253,2.209.971,3.024.54.137-.185.32-.385.405-.5.438-.495,1.493-3.081-.579-4.3a2.367,2.367,0,0,0-1.62-.065,24.252,24.252,0,0,1-3.35.227c0-.045-.011-.09-.017-.136a12.516,12.516,0,0,0,2.552-.209,9.9,9.9,0,0,0,2.36-1.167c.089-.109.182-.208.262-.323,0,0,1.043-2.453-1.968-4.5a.32.32,0,0,0-.169-.038,4.925,4.925,0,0,0-2.168,1.322,16.818,16.818,0,0,0-2.382,2.118c-.031-.027-.062-.055-.094-.081a16.616,16.616,0,0,1,2.1-1.914c.617-.476,1.2-.988,1.118-1.832a1.064,1.064,0,0,0-.468-.782s-1.258-1.263-1.963-1.089a1.7,1.7,0,0,1-.125.206c-.411.553-.775,1.26-1.265,1.972a20.9,20.9,0,0,0-1.547,2.416c-.051-.01-.1-.019-.153-.027a19.8,19.8,0,0,0,.739-1.865,7.816,7.816,0,0,0,.508-2.573c-.006-.893-1.479-1.273-2.394-1.3.128,0,.053,0-.176-.018-.359.244-.749.3-.77.793-.025.577-.185,1.114-.157,1.7.056,1.115.029,2.309.159,3.413-.034.01-.069.021-.1.033a8.831,8.831,0,0,0-.8-2.46c-.36-.83-.98-2.4-1.22-2.4a2.688,2.688,0,0,0-2.46,1.152c-.432.919.542,1.581,1.019,2.264.581.832,1.205,1.6,1.856,2.372-.025.021-.05.043-.074.065-.974-1.1-1.776-2.323-2.734-3.432-.462-.535-.844-1.22-1.548-1.434a.713.713,0,0,0-.915.344,3.76,3.76,0,0,0-.694,2.16,2.735,2.735,0,0,0,.33,1.333,4.227,4.227,0,0,0,1.255,1.286c1.01.64,1.931,1.424,2.925,2.091-.012.045-.023.09-.032.137a7.873,7.873,0,0,0-2.246-.692,11.773,11.773,0,0,0-3.388-.137,1.664,1.664,0,0,1-.185.321l0,.009-.017.013a2.733,2.733,0,0,0-.254,2.794,2.036,2.036,0,0,0,2.357.649c.593-.147,1.14-.445,1.732-.6a17.318,17.318,0,0,1,2.02-.347c.01.039.018.08.027.118A34.965,34.965,0,0,0,91.06,82c-.133.044-.317.183-.33.16a5.513,5.513,0,0,0,2.021,2.571c.044.014.246.128.276.143.693.146,1.436-.717,1.813-1.158a18.389,18.389,0,0,1,1.787-1.963l-.007-.011a2.478,2.478,0,0,0,.27-.277c.033.058.067.117.1.174a18.65,18.65,0,0,0-2.2,2.334c-.594.675-1.953,1.639-1.933,2.648a6.226,6.226,0,0,0,3.8,2.707c.571.125.988-.957,1.129-1.244a15.456,15.456,0,0,0,1.57-4.5c.064.025.131.046.2.068,0,.082-.011.165-.015.247a4.116,4.116,0,0,0-.225.806l-.023,0a9.189,9.189,0,0,1-.832,2.353c-.391.849-1.106,1.685-.638,2.655a2.1,2.1,0,0,0,.567.736,4.028,4.028,0,0,0,2.026.875c.08-.01.118.024.153-.013a4.7,4.7,0,0,0,.657-1.658,10.3,10.3,0,0,0,.358-1.827,15.3,15.3,0,0,0-.16-3.969l.147-.017c.258,1.233-.031,2.531.252,3.736.138.591.744,2.814,1.689,2.611.442-.1.55-.126.72-.177l1.5-.453c.2-.21.108.029.311-.394.214-.447-.483-1.878-.89-2.953a14.65,14.65,0,0,0-1.746-3.011c.036-.021.07-.045.106-.068a25.2,25.2,0,0,0,1.906,2.441m-6.753-3.622a3.178,3.178,0,0,1-.605-4.591,3.339,3.339,0,0,1,2.2-1.064,2.7,2.7,0,0,1,1.072.138q1.965.638.144,2.657a.342.342,0,0,0-.089.668,1.827,1.827,0,0,0,2.246-1.668,1.964,1.964,0,0,0-.056-.6c3.09,2.332-1.87,6.946-4.911,4.458" transform="translate(17.003 12.995)" fill="#fadf4a"/>
        <path id="Path_150530" data-name="Path 150530" d="M102,66.761c1.022,1.084,2.3,3.219,3.863,3.27,1.222-.933,4.233-2.98,3-4.95.013,0-2.4-1.559-3.519-2.513a15.89,15.89,0,0,0-4.175-2.636c.042-.067.082-.134.121-.2,1.625.675,3.081,1.532,4.774,2.077,1.379.445,3.872,1.7,5.3.947.239-.326.56-.678.711-.871.767-.867,2.615-5.4-1.015-7.547a4.151,4.151,0,0,0-2.841-.113c-1.941.465-3.9.2-5.87.4-.01-.08-.019-.159-.031-.239,1.494-.19,3.026.126,4.475-.367a17.4,17.4,0,0,0,4.137-2.045c.155-.193.317-.365.459-.567,0,0,1.826-4.3-3.45-7.883a.532.532,0,0,0-.295-.067c-1.348.118-2.783,1.487-3.8,2.316a29.4,29.4,0,0,0-4.175,3.715c-.053-.049-.109-.1-.165-.144a29.147,29.147,0,0,1,3.684-3.354c1.082-.833,2.11-1.732,1.958-3.212a1.86,1.86,0,0,0-.821-1.371s-2.2-2.212-3.438-1.909a3.478,3.478,0,0,1-.22.363c-.722.968-1.36,2.208-2.218,3.457a36.676,36.676,0,0,0-2.711,4.235c-.089-.018-.177-.034-.267-.049.505-1.071.912-2.186,1.3-3.269a13.728,13.728,0,0,0,.889-4.51c-.011-1.564-2.593-2.233-4.2-2.28.225.007.093,0-.308-.033-.63.428-1.314.535-1.352,1.391-.043,1.011-.325,1.951-.273,2.988.1,1.956.05,4.048.277,5.982-.059.018-.119.039-.178.059a15.506,15.506,0,0,0-1.41-4.312c-.632-1.455-1.718-4.2-2.139-4.206-2.84-.037-3.217,1.027-4.311,2.019-.757,1.61.951,2.771,1.787,3.967,1.018,1.459,2.113,2.8,3.251,4.157-.044.038-.087.075-.128.114-1.706-1.931-3.114-4.072-4.795-6.015-.81-.938-1.479-2.138-2.712-2.514a1.251,1.251,0,0,0-1.6.6,6.59,6.59,0,0,0-1.217,3.785,4.756,4.756,0,0,0,.58,2.336,7.348,7.348,0,0,0,2.2,2.254c1.774,1.121,3.386,2.5,5.126,3.666-.019.08-.038.159-.055.24-1.271-.857-2.554-.753-3.937-1.213a20.56,20.56,0,0,0-5.938-.239,3.009,3.009,0,0,1-.325.561l0,.018a.253.253,0,0,0-.029.021,4.786,4.786,0,0,0-.446,4.9c1,1.391,2.482,1.547,4.131,1.138,1.04-.257,2-.779,3.036-1.058a30.721,30.721,0,0,1,3.54-.609c.017.069.031.139.049.208-3.1.427-8,2.388-9.445,2.862-.235.077-.559.322-.58.281.938,1.765,1.694,3.465,3.542,4.508.076.026.43.226.484.251,1.215.256,2.518-1.255,3.178-2.029A31.929,31.929,0,0,1,86.6,60.08l-.013-.02a4.336,4.336,0,0,0,.473-.484c.057.1.115.2.177.3a32.527,32.527,0,0,0-3.855,4.092c-1.043,1.182-3.423,2.872-3.389,4.64a10.922,10.922,0,0,0,6.654,4.745c1,.219,1.732-1.677,1.979-2.179a27.079,27.079,0,0,0,2.753-7.891c.113.042.228.081.344.118-.008.145-.017.29-.026.435a7.146,7.146,0,0,0-.395,1.411l-.039,0A16.067,16.067,0,0,1,89.8,69.368c-.686,1.49-1.938,2.954-1.12,4.653a3.676,3.676,0,0,0,1,1.291c.354.335,2.466,1.66,3.55,1.532.138-.015.207.043.269-.023a8.234,8.234,0,0,0,1.152-2.907,17.913,17.913,0,0,0,.628-3.2A26.939,26.939,0,0,0,95,63.756c.087-.008.172-.019.258-.029.452,2.16-.055,4.436.441,6.548.243,1.035,1.305,4.932,2.96,4.576.776-.166.967-.22,1.264-.309l2.634-.794c.355-.369.189.05.546-.692.376-.782-.845-3.291-1.561-5.175a25.707,25.707,0,0,0-3.06-5.278c.062-.038.122-.078.184-.118A44.242,44.242,0,0,0,102,66.761M90.166,60.413c-2.4-1.963-3.32-5.591-1.062-8.048A5.875,5.875,0,0,1,92.96,50.5a4.782,4.782,0,0,1,1.881.243q3.445,1.118.251,4.658a.6.6,0,0,0-.156,1.171,3.2,3.2,0,0,0,3.936-2.925,3.456,3.456,0,0,0-.1-1.047c5.415,4.088-3.279,12.176-8.608,7.814" transform="translate(14.173 7.064)" fill="#fadf4a"/>
        <path id="Path_150531" data-name="Path 150531" d="M86.3,56.611c1.354-.566,3.074-7.024,3.876-12.253.5,6.02,1.655,14.063,3.555,13.786,3.444-.5-.007-9.154-.59-11.687.8,1.267,5.488,11.381,7.015,7.9.7-1.589-3.914-9.5-7.257-13.734,4.469,3.94,12.946,10.654,14.261,8.873,2.07-2.8-6.505-6.441-8.715-7.811,1.467.322,11.947,4.117,10.551.581-.478-1.211-5.591-2.806-10.378-3.784,5.675-.12,12.1-.707,11.988-2.413-.225-3.474-9.128-.728-11.7-.35,1.328-.7,11.784-4.558,8.438-6.359-1.482-.8-9.288,2.9-13.853,5.857,4.025-4.545,10.189-12.311,8.5-13.589-2.778-2.1-6.506,6.442-7.9,8.637.336-1.462,4.235-11.9.686-10.544-1.375.528-3.3,6.976-4.255,12.188C90.2,25.9,89.286,17.987,87.4,18.2c-3.459.4-.271,9.152.234,11.7-.764-1.291-5.14-11.541-6.773-8.109-.649,1.362,2.573,7.627,5.538,12.088-4.755-3.773-11.645-8.612-12.757-7.007-1.983,2.86,6.7,6.241,8.947,7.543-1.475-.277-12.064-3.753-10.563-.262.512,1.192,5.633,2.625,10.432,3.459C76.753,37.9,70.237,38.682,70.4,40.4c.329,3.465,9.144.451,11.7,0-1.307.739-11.641,4.912-8.241,6.612,1.474.737,8.879-3.022,13.387-6.08-3.882,4.641-9.962,12.756-8.212,14,2.84,2.011,6.308-6.636,7.632-8.872-.292,1.473-3.873,12.026-.367,10.56" transform="translate(13.293 3.436)" fill="#908aa5"/>
        <path id="Path_150532" data-name="Path 150532" d="M32.735,78.032c1.354-.566,3.074-7.024,3.876-12.253.5,6.02,1.655,14.063,3.555,13.786,3.444-.5-.007-9.154-.59-11.687.8,1.267,5.488,11.381,7.015,7.9.7-1.589-3.914-9.5-7.257-13.734C43.8,65.983,52.281,72.7,53.6,70.917c2.07-2.8-6.505-6.441-8.715-7.811,1.467.322,11.946,4.117,10.551.581-.478-1.211-5.591-2.806-10.378-3.784,5.675-.12,12.1-.707,11.988-2.413-.225-3.474-9.128-.728-11.7-.35,1.328-.7,11.784-4.558,8.438-6.359-1.482-.8-9.288,2.9-13.853,5.857,4.025-4.545,10.189-12.311,8.5-13.589-2.778-2.1-6.506,6.442-7.9,8.637.336-1.462,4.235-11.9.686-10.544-1.375.528-3.3,6.976-4.255,12.188-.326-6.012-1.238-13.922-3.124-13.706-3.459.4-.271,9.152.234,11.7-.764-1.291-5.14-11.541-6.773-8.109-.649,1.362,2.573,7.628,5.538,12.088-4.755-3.773-11.645-8.612-12.757-7.007-1.983,2.86,6.7,6.241,8.947,7.543-1.475-.277-12.064-3.753-10.563-.262.512,1.192,5.633,2.625,10.432,3.459-5.705.284-12.221,1.065-12.058,2.782.329,3.465,9.144.451,11.7,0-1.307.739-11.641,4.912-8.241,6.612,1.474.737,8.879-3.022,13.387-6.08-3.882,4.641-9.962,12.756-8.212,14,2.84,2.011,6.308-6.636,7.632-8.872-.292,1.473-3.873,12.026-.367,10.56" transform="translate(3.178 7.481)" fill="#908aa5"/>
        <path id="Path_150533" data-name="Path 150533" d="M50.87,41.183c.946,1,2.127,2.983,3.578,3.03,1.133-.865,3.924-2.762,2.783-4.588.012,0-2.22-1.444-3.26-2.329a14.752,14.752,0,0,0-3.87-2.442c.039-.062.076-.125.113-.187,1.505.625,2.856,1.419,4.424,1.925,1.278.413,3.588,1.579,4.912.877.221-.3.518-.627.659-.807.711-.8,2.424-5.006-.94-6.993a3.839,3.839,0,0,0-2.633-.1c-1.8.43-3.618.188-5.44.369-.01-.074-.018-.147-.029-.221,1.385-.176,2.8.117,4.147-.34a16.132,16.132,0,0,0,3.834-1.895c.144-.178.295-.338.424-.525,0,0,1.693-3.984-3.2-7.305h0a.5.5,0,0,0-.273-.061c-1.249.109-2.579,1.378-3.522,2.146a27.244,27.244,0,0,0-3.868,3.443c-.05-.045-.1-.089-.153-.133a26.939,26.939,0,0,1,3.414-3.108c1-.773,1.954-1.6,1.814-2.977a1.722,1.722,0,0,0-.761-1.27s-2.042-2.051-3.187-1.77a3,3,0,0,1-.2.336c-.669.9-1.26,2.046-2.055,3.2a34.034,34.034,0,0,0-2.512,3.924c-.082-.015-.164-.032-.247-.044.467-.994.844-2.027,1.2-3.03a12.762,12.762,0,0,0,.824-4.18c-.01-1.449-2.4-2.069-3.89-2.113.209.006.087,0-.284-.031-.585.4-1.217.5-1.253,1.289-.04.937-.3,1.808-.253,2.769.09,1.812.046,3.751.257,5.543-.056.017-.111.036-.165.055a14.338,14.338,0,0,0-1.307-3.994c-.586-1.349-1.592-3.893-1.983-3.9-2.631-.036-2.98.951-3.994,1.87-.7,1.492.882,2.569,1.656,3.677.944,1.351,1.958,2.59,3.014,3.852-.04.034-.081.07-.12.106-1.58-1.789-2.884-3.773-4.441-5.574-.751-.869-1.371-1.981-2.513-2.33a1.159,1.159,0,0,0-1.486.56,6.1,6.1,0,0,0-1.128,3.507,4.4,4.4,0,0,0,.537,2.165,6.8,6.8,0,0,0,2.038,2.089c1.643,1.039,3.136,2.315,4.749,3.4-.018.074-.036.147-.051.222-1.177-.794-2.366-.7-3.647-1.123a19.085,19.085,0,0,0-5.5-.222,2.833,2.833,0,0,1-.3.521l0,.017a.148.148,0,0,0-.027.02,4.433,4.433,0,0,0-.413,4.538c.927,1.289,2.3,1.434,3.828,1.053.964-.238,1.852-.72,2.814-.981a28.529,28.529,0,0,1,3.281-.562c.014.063.027.128.044.191-2.871.4-7.415,2.214-8.752,2.652-.219.073-.517.3-.537.26.869,1.636,1.57,3.211,3.281,4.176.071.025.4.209.449.233,1.125.238,2.332-1.164,2.945-1.881a29.849,29.849,0,0,1,2.9-3.188l-.012-.018a4.02,4.02,0,0,0,.439-.449c.053.1.107.189.164.282A30.105,30.105,0,0,0,33.611,38.6c-.967,1.1-3.173,2.662-3.141,4.3a10.122,10.122,0,0,0,6.166,4.4c.927.2,1.6-1.555,1.834-2.02a25.091,25.091,0,0,0,2.55-7.312c.1.039.213.075.32.109l-.025.4a6.656,6.656,0,0,0-.366,1.308l-.036,0A14.875,14.875,0,0,1,39.563,43.6c-.635,1.38-1.8,2.738-1.038,4.313a3.416,3.416,0,0,0,.923,1.2c.328.31,2.285,1.537,3.289,1.419.128-.014.193.04.25-.02a7.653,7.653,0,0,0,1.068-2.694,16.69,16.69,0,0,0,.581-2.966,24.959,24.959,0,0,0-.26-6.448c.081-.007.159-.018.239-.027.42,2-.051,4.111.409,6.069.225.959,1.21,4.57,2.744,4.241.718-.156.9-.2,1.17-.288l2.442-.735c.329-.342.175.046.505-.641.348-.725-.783-3.051-1.447-4.8A23.794,23.794,0,0,0,47.6,37.329l.171-.109a41.047,41.047,0,0,0,3.1,3.964M39.9,35.3c-2.22-1.819-3.077-5.181-.983-7.457a5.437,5.437,0,0,1,3.572-1.729,4.433,4.433,0,0,1,1.742.223q3.194,1.038.234,4.318a.554.554,0,0,0-.145,1.084,2.968,2.968,0,0,0,3.647-2.709,3.187,3.187,0,0,0-.09-.971C52.9,31.847,44.839,39.342,39.9,35.3" transform="translate(4.891 2.64)" fill="#fadf4a"/>
        <path id="Path_150534" data-name="Path 150534" d="M108.362,28.069c.078-.287.288-.777.213-.826-.541-.35-1.183-.906-1.712-.83A1.516,1.516,0,0,1,105,25.465a3.257,3.257,0,0,0-.433-.555,2.187,2.187,0,0,0,.907,2.651c-.2.125-.429.267-.659.409.172.183.317.48.521.528.7.165,1.419.243,2.133.354,0,.147.007.3.012.445l-2.341-.392c.383.78.78,1.589,1.2,2.444h.707c-.422,1.217-.208,1.534.936,1.877.607.183,1.673.077,1.385,1.308-.018.078.238.195.313.325a4.58,4.58,0,0,1,.489,1c.069.247-.128.593-.023.8.836,1.655,2.33,3,2.313,5.054,0,.026.043.051.056.081.169.379.323.766.508,1.138.466.946.5,2.208,1.657,2.67a3.1,3.1,0,0,0,3.633-.75c1.19-1.229,2.428-2.413,3.65-3.612a11.934,11.934,0,0,0,3.243-5.48,16.5,16.5,0,0,0,.076-4.432c0-.206-.316-.407-.5-.63-.509.742-.988.442-1.343-.008a7.407,7.407,0,0,1-.938-1.574,23.548,23.548,0,0,0-7.309-9.068,5.791,5.791,0,0,0-4.9-1.153c-.355.073-.635.524-.95.8.227.188.455.373.68.564.1.086.289.2.277.266-.209,1.186.856,1.134,1.511,1.53-.121.66-.241,1.309-.394,2.136l.911-.493c-.15.388-.259.672-.367.956l.241.139c.354-.6,2.143.089,1.286-1.623-.076-.152.111-.437.175-.66.657.306.189-.527.315-.53l1.437,1.2L113.8,25.049l.25.437-.78.4c.38.247.6.39.982.636-1.3.119-1.208-.706-1.272-1.4l-.287-.086c-.15.336-.3.672-.379.848l-1.242-.378-.153.434,2.525.835a3.125,3.125,0,0,0-.405.971c-.01.176.327.369.584.632-.033.184-.094.52-.17.946-.926-1.122-1.065-2.7-2.7-3l-1.316.881c.026.089.053.18.081.269.473,0,.95-.03,1.419.014a.727.727,0,0,1,.533.316,2.128,2.128,0,0,1,.013.769,2.227,2.227,0,0,1-.743-.068c-.758-.354-1.484-.816-2.374-.441m-4.591-9.487c-1.553-.717-2.905-1.359-4.274-1.97q-6.478-2.9-12.972-5.757a4.114,4.114,0,0,0-1.575-.3c-5.857-.045-11.716-.017-17.573-.118a7.675,7.675,0,0,0-4.321,1.488,12.124,12.124,0,0,1-4.416,2.2,9.352,9.352,0,0,0-7.012,5.08,27.216,27.216,0,0,0-2.165,5.324,40.584,40.584,0,0,1-5.106,11.245,3.293,3.293,0,0,0-.409,1.116,14.783,14.783,0,0,1-.663,3.583c-1.062,2.215-2.5,4.244-3.62,6.435a39.622,39.622,0,0,0-2,3.918c-.839,2.21-1.512,4.594-3.367,6.329a32.342,32.342,0,0,0-2.526,2.911c-.536.64-1.081,1.277-1.554,1.962-.634.918-1.158,1.913-1.808,2.819-1.093,1.523-2.2,3.041-3.387,4.488-1.293,1.574-2.64,3.111-4.055,4.576-.987,1.022-2.166,1.857-3.181,2.854a7.47,7.47,0,0,0-.95,1.655c1,.155,1.759.291,2.526.388,2.674.336,5.352.631,8.021.994,2.359.319,4.7.739,7.063,1.057,3.413.459,6.838.832,10.249,1.3,4.082.562,8.151,1.22,12.234,1.774,4.357.59,8.726,1.095,13.084,1.685a1.291,1.291,0,0,1,.869.728,8.211,8.211,0,0,0,1.852,3.362,3.715,3.715,0,0,1,1.31,2.882,1.233,1.233,0,0,0,.222.776c1.777,2.212,2,5.112,3.349,7.518a3.6,3.6,0,0,1,.246,1.594c.059,2.008-.424,4.1.98,5.887a.4.4,0,0,1,.052.195,6.7,6.7,0,0,0,3.638,5.247,3.6,3.6,0,0,1,1.857,2.555c.109.619.376.755.951.748,3.181-.039,6.364-.024,9.545-.065q14.587-.189,29.173-.405c1.472-.02,2.945,0,4.308,0a23.477,23.477,0,0,0-1.3-3.468,3.679,3.679,0,0,1-.392-2.727,4.345,4.345,0,0,0-.243-2.745c-.788-1.4-.386-2.538.2-3.758.111-.228.24-.446.39-.724-5.121.685-8.587-4.021-6.447-9.344a8.989,8.989,0,0,0-1.072-.241,5.019,5.019,0,0,1-3.924-3.115,8.2,8.2,0,0,0-.77-1.286,17.587,17.587,0,0,1-1.561-2.854c-.479-1.394-.7-2.877-1.047-4.318-.246-1.01-.561-2.007-.787-3.022-.3-1.342-.521-2.7-.816-4.043-.3-1.38-.6-2.765-.993-4.122-.613-2.132-1.578-4.2-1.1-6.5.175-.846.384-1.686.61-2.674-.447.184-.793.292-1.1.461a2.309,2.309,0,0,1-2.726-.386c-.306-.246-.411-.726-.693-1.018-.5-.518-1.068-.975-1.606-1.458l.18-.225c-1.233-.185-1.856.637-2.466,1.487A3.939,3.939,0,0,1,98.441,62.1l-.158-.216.575-.549c-1.189-.483-1.189-.483-1.589.332l.559.5a3.84,3.84,0,0,1-3.131,1.8,3.563,3.563,0,0,1-1.983-.632c-.195-.117-.021-.837-.025-1.28,0-.2.05-.465-.055-.586-.712-.83.1-1.018.553-1.311a4.852,4.852,0,0,1,.942-.366c-.043-.125-.087-.25-.13-.374a17.806,17.806,0,0,1-1.7.544c-1,.22-2.1.7-3,.466a2.7,2.7,0,0,0-2.329.371c-1.089.641-1.261.548-1.648-.684.254-.215.615-.373.719-.634.516-1.286.86-1.455,1.838-.953a84.814,84.814,0,0,1,5.927-6.988c1.661-1.6,3.871-2.614,5.767-3.985a6.588,6.588,0,0,1,5.036-1.2,24.434,24.434,0,0,1,4.527,1.126,7.11,7.11,0,0,1,3.77,3.09,7.071,7.071,0,0,1,.632-1.312c.883-1.176.879-1.266.049-2.458a14.891,14.891,0,0,1-1.24-2.2c-.638-1.373-1.264-2.756-1.8-4.17-.524-1.383-1.377-2.675-1.248-4.265a1.016,1.016,0,0,0-.4-.844,8,8,0,0,1-1.694-1.191,3.194,3.194,0,0,1-1.28-1.725c-.26-.7-.611-1.362-.912-2.046-.906-2.06-1.915-4.1-1.05-6.455a1.828,1.828,0,0,0-.006-.806c-.082-.665-.19-1.327-.3-2.095-1.058-.747.212-1.745.117-2.407m15.3,37.724c1.228.083,2.362.1,3.476.263a2.136,2.136,0,0,1,1.417.685,3.23,3.23,0,0,0,1.994,1.419,3.17,3.17,0,0,0,1.144-.1,3.822,3.822,0,0,0-.436-1.205,22.981,22.981,0,0,0-1.915-1.951,3.173,3.173,0,0,0-.785-.517c-.8-.4-1.618-.767-2.429-1.147-1.865-.378-2.134,1.07-2.466,2.551m-7.563-33.725c-1.033-1.084-1.888-1.983-2.776-2.916-.9.894-1.316,2.513-3.268,1.9.3.812.509,1.366.716,1.921l.181-.221a11.009,11.009,0,0,1,1.711.931,1.914,1.914,0,0,0,2.829-.32,10.089,10.089,0,0,0,.607-1.295m-5.321-5.343c-2.18,2.294-2.18,2.294-1.866,3.251,2.945-.491,4.869-3.336,8.084-3.343-.994-.316-2.091-.162-2.862-.592a3.52,3.52,0,0,0-3.55.176c-.078.037-.125.143-.2.238l.4.27" transform="translate(3.178 1.97)" fill="#296896"/>
        <path id="Path_150535" data-name="Path 150535" d="M103.771,18.582c.1.662-1.173,1.661-.115,2.407.113.768.22,1.43.3,2.095a1.827,1.827,0,0,1,0,.806c-.864,2.355.145,4.4,1.051,6.455.3.684.651,1.348.912,2.046a3.194,3.194,0,0,0,1.28,1.725,7.937,7.937,0,0,0,1.694,1.191,1.019,1.019,0,0,1,.4.844c-.128,1.591.724,2.883,1.248,4.265.536,1.414,1.161,2.8,1.8,4.17a14.784,14.784,0,0,0,1.24,2.2c.829,1.192.835,1.283-.05,2.458a7.065,7.065,0,0,0-.631,1.312,7.117,7.117,0,0,0-3.771-3.09,24.4,24.4,0,0,0-4.526-1.126,6.578,6.578,0,0,0-5.036,1.2c-1.9,1.371-4.107,2.386-5.767,3.985a84.6,84.6,0,0,0-5.929,6.988c-.977-.5-1.321-.333-1.837.953-.1.26-.465.418-.719.634.386,1.232.559,1.324,1.647.684a2.707,2.707,0,0,1,2.33-.371c.9.238,2-.246,3-.466.577-.127,1.131-.359,1.7-.544.044.125.087.25.13.374a4.841,4.841,0,0,0-.94.366c-.457.294-1.266.481-.554,1.31.1.122.052.388.055.586,0,.445-.169,1.165.025,1.282a3.588,3.588,0,0,0,1.983.632,3.84,3.84,0,0,0,3.131-1.8l-.558-.5c.4-.816.4-.816,1.588-.333l-.575.55c.053.071.106.144.158.216a3.931,3.931,0,0,0,2.253-1.542c.61-.85,1.233-1.673,2.466-1.487l-.18.225c.54.483,1.106.939,1.607,1.458.281.291.388.772.692,1.018a2.308,2.308,0,0,0,2.726.385c.313-.168.657-.276,1.106-.46-.227.988-.436,1.827-.61,2.674-.474,2.309.49,4.372,1.1,6.5.39,1.356.69,2.741.993,4.122.294,1.343.516,2.7.814,4.043.227,1.015.541,2.01.787,3.022.352,1.441.569,2.923,1.049,4.318a17.5,17.5,0,0,0,1.561,2.854,8.237,8.237,0,0,1,.77,1.286,5.018,5.018,0,0,0,3.923,3.115,8.83,8.83,0,0,1,1.074.241c-2.141,5.324,1.324,10.029,6.447,9.344-.151.278-.281.5-.39.724-.588,1.22-.99,2.36-.2,3.758a4.353,4.353,0,0,1,.243,2.745,3.668,3.668,0,0,0,.392,2.727,23.34,23.34,0,0,1,1.295,3.468c-1.364,0-2.835-.017-4.308,0q-14.585.2-29.171.405c-3.181.042-6.364.026-9.546.065-.574.007-.84-.128-.95-.748a3.6,3.6,0,0,0-1.858-2.556,6.7,6.7,0,0,1-3.637-5.246.4.4,0,0,0-.052-.195c-1.405-1.786-.92-3.879-.98-5.887a3.635,3.635,0,0,0-.246-1.594c-1.346-2.406-1.573-5.306-3.349-7.518a1.234,1.234,0,0,1-.223-.776,3.715,3.715,0,0,0-1.31-2.882,8.2,8.2,0,0,1-1.851-3.362,1.29,1.29,0,0,0-.87-.728c-4.357-.59-8.726-1.095-13.084-1.685-4.082-.554-8.152-1.211-12.233-1.774-3.412-.468-6.836-.842-10.249-1.3-2.36-.317-4.7-.738-7.064-1.058-2.669-.361-5.347-.656-8.02-.993-.768-.1-1.529-.233-2.526-.388a7.423,7.423,0,0,1,.95-1.655c1.014-1,2.193-1.832,3.181-2.854,1.415-1.465,2.76-3,4.054-4.576,1.189-1.447,2.3-2.965,3.388-4.489.649-.9,1.173-1.9,1.807-2.818.473-.685,1.019-1.322,1.555-1.962a32.329,32.329,0,0,1,2.525-2.911c1.856-1.736,2.529-4.119,3.368-6.329a39.265,39.265,0,0,1,2-3.92c1.119-2.19,2.558-4.219,3.619-6.434a14.841,14.841,0,0,0,.665-3.583,3.244,3.244,0,0,1,.409-1.116A40.618,40.618,0,0,0,49.463,24.53a27.143,27.143,0,0,1,2.165-5.324,9.345,9.345,0,0,1,7.012-5.08,12.133,12.133,0,0,0,4.416-2.2,7.672,7.672,0,0,1,4.321-1.488c5.856.1,11.716.073,17.573.118a4.123,4.123,0,0,1,1.575.3q6.5,2.846,12.972,5.757c1.367.611,2.721,1.253,4.273,1.97" transform="translate(3.178 1.97)" fill="#296896"/>
        <path id="Path_150536" data-name="Path 150536" d="M93.187,27.975c0-.149-.008-.3-.012-.445q.444-.392.89-.783c.889-.374,1.614.087,2.374.441a2.186,2.186,0,0,0,.742.068,2.121,2.121,0,0,0-.013-.768.719.719,0,0,0-.531-.316c-.47-.045-.946-.015-1.421-.015-.027-.089-.053-.18-.081-.269l1.317-.881c1.632.3,1.773,1.878,2.7,3,.077-.427.137-.762.17-.946-.257-.264-.593-.457-.584-.632a3.154,3.154,0,0,1,.405-.971l-2.525-.835.153-.434c.422.13.845.258,1.242.378.08-.176.229-.511.38-.846l.285.084c.064.694-.029,1.519,1.272,1.4-.382-.246-.6-.389-.982-.636l.781-.4-.251-.437,1.613-1.877-1.437-1.2c-.126,0,.344.836-.314.53-.065.223-.252.508-.176.66.857,1.712-.932,1.025-1.285,1.623l-.243-.139c.109-.284.218-.567.367-.956l-.909.493c.152-.827.271-1.477.392-2.136-.655-.4-1.72-.344-1.511-1.529.012-.071-.176-.182-.277-.266-.225-.19-.453-.377-.679-.564.314-.277.593-.729.95-.8a5.789,5.789,0,0,1,4.9,1.153A23.548,23.548,0,0,1,108.2,27.79a7.407,7.407,0,0,0,.938,1.574c.355.451.836.75,1.345.008.187.223.5.424.5.631a16.494,16.494,0,0,1-.076,4.431,11.934,11.934,0,0,1-3.243,5.48c-1.222,1.2-2.46,2.384-3.65,3.612a3.1,3.1,0,0,1-3.633.75c-1.158-.461-1.19-1.724-1.657-2.67-.183-.372-.338-.758-.508-1.138-.013-.03-.056-.055-.055-.081.015-2.048-1.478-3.4-2.315-5.053-.106-.209.092-.555.023-.8a4.58,4.58,0,0,0-.489-1c-.075-.13-.33-.246-.313-.323.288-1.232-.777-1.126-1.385-1.309-1.144-.344-1.358-.66-.936-1.877l.014-.448c.214-.176.606-.347.612-.529.027-1.02.731-.95,1.384-.908.432.029.852.2,1.285.264a5.892,5.892,0,0,0,1-.062c-.819-.654-1.853.082-2.266-.707l-1.625.3Z" transform="translate(17.476 3.292)" fill="#296896"/>
        <path id="Path_150537" data-name="Path 150537" d="M102.832,49.436c.332-1.481.6-2.929,2.466-2.551.811.38,1.626.751,2.429,1.146a3.177,3.177,0,0,1,.785.518,23.328,23.328,0,0,1,1.915,1.95,3.84,3.84,0,0,1,.436,1.207,3.146,3.146,0,0,1-1.145.1,3.224,3.224,0,0,1-1.992-1.418,2.137,2.137,0,0,0-1.417-.685c-1.114-.162-2.249-.18-3.476-.263" transform="translate(19.417 8.842)" fill="#296896"/>
        <path id="Path_150538" data-name="Path 150538" d="M97.43,21.115a9.857,9.857,0,0,1-.607,1.3,1.912,1.912,0,0,1-2.828.319,10.82,10.82,0,0,0-1.712-.93l-.18.22c-.207-.554-.414-1.109-.717-1.92,1.953.612,2.367-1.007,3.269-1.9.887.932,1.743,1.832,2.775,2.915" transform="translate(17.256 3.437)" fill="#296896"/>
        <path id="Path_150539" data-name="Path 150539" d="M92.314,16.332l-.4-.27c.078-.1.125-.2.2-.237a3.52,3.52,0,0,1,3.55-.177c.77.43,1.868.276,2.862.592-3.215.007-5.139,2.852-8.084,3.343-.314-.956-.314-.956,1.866-3.251" transform="translate(17.051 2.877)" fill="#296896"/>
        <path id="Path_150540" data-name="Path 150540" d="M94.449,25.771l-.89.782c-.712-.111-1.433-.188-2.133-.353-.2-.049-.348-.345-.52-.528l.659-.409a2.188,2.188,0,0,1-.908-2.651,3.376,3.376,0,0,1,.434.554,1.517,1.517,0,0,0,1.859.949c.528-.076,1.17.48,1.711.829.076.049-.134.541-.212.827" transform="translate(17.092 4.27)" fill="#296896"/>
        <path id="Path_150541" data-name="Path 150541" d="M93.037,27.967l-.014.448h-.707l-1.2-2.444,2.34.392-.036-.037-.385,1.641" transform="translate(17.205 4.904)" fill="#296896"/>
        <path id="Path_150542" data-name="Path 150542" d="M92.732,27.959l.385-1.641,1.625-.3c.414.789,1.447.053,2.266.707a5.749,5.749,0,0,1-.994.062c-.433-.059-.854-.235-1.286-.263-.653-.043-1.356-.113-1.384.907,0,.182-.4.353-.612.529" transform="translate(17.51 4.912)" fill="#296896"/>
      </g>
    </g>
  </g>
</svg>
