<svg xmlns="http://www.w3.org/2000/svg" width="60" height="60" viewBox="0 0 60 60">
  <g id="Group_55048" data-name="Group 55048" transform="translate(-29 -738)">
    <rect id="Rectangle_16905" data-name="Rectangle 16905" width="60" height="60" rx="30" transform="translate(29 738)" fill="#fff"/>
    <rect id="Rectangle_16906" data-name="Rectangle 16906" width="51.429" height="51.429" rx="25.714" transform="translate(33.285 742)" fill="#296896"/>
    <g id="Group_53561" data-name="Group 53561" transform="translate(-0.503 201.503)">
      <path id="Path_150553" data-name="Path 150553" d="M568.092,326.587a1.994,1.994,0,0,0,1.975,1.975h.165a1.975,1.975,0,1,0,0-3.95h-.165a1.994,1.994,0,0,0-1.975,1.975" transform="translate(-517.506 235.267)" fill="#447498"/>
      <path id="Path_150554" data-name="Path 150554" d="M583,291.449a.9.9,0,0,0,0,1.792.9.9,0,0,0,0-1.792" transform="translate(-525.879 255.048)" fill="#447498"/>
      <path id="Path_150558" data-name="Path 150558" d="M566.987,358.934c.436.463.98,1.374,1.648,1.4.522-.4,1.807-1.271,1.281-2.112.006,0-1.022-.665-1.5-1.072a6.772,6.772,0,0,0-1.781-1.124c.018-.029.035-.057.052-.086.693.288,1.315.654,2.037.886.588.19,1.652.727,2.262.4.1-.138.239-.288.3-.372.327-.37,1.116-2.3-.433-3.219a1.771,1.771,0,0,0-1.212-.048,18.222,18.222,0,0,1-2.5.17c0-.034-.008-.068-.013-.1a9.389,9.389,0,0,0,1.909-.157,7.405,7.405,0,0,0,1.765-.872c.066-.082.136-.155.2-.242,0,0,.779-1.834-1.472-3.363h0a.232.232,0,0,0-.126-.028,3.685,3.685,0,0,0-1.622.988,12.547,12.547,0,0,0-1.781,1.585l-.071-.061a12.375,12.375,0,0,1,1.572-1.431c.461-.356.9-.739.835-1.371a.792.792,0,0,0-.35-.585s-.94-.944-1.467-.815a1.5,1.5,0,0,1-.094.155c-.308.413-.58.942-.946,1.475a15.707,15.707,0,0,0-1.157,1.807c-.038-.007-.075-.015-.114-.021.215-.457.389-.933.553-1.395a5.868,5.868,0,0,0,.38-1.925c0-.667-1.106-.952-1.791-.973.1,0,.04,0-.131-.014-.269.182-.561.228-.577.593-.018.431-.138.833-.117,1.275.042.834.021,1.727.118,2.552l-.076.025a6.592,6.592,0,0,0-.6-1.84c-.27-.621-.733-1.792-.912-1.795a2.008,2.008,0,0,0-1.84.861c-.323.687.406,1.182.763,1.693.435.622.9,1.193,1.387,1.774l-.055.048c-.728-.824-1.328-1.737-2.045-2.567-.346-.4-.631-.911-1.157-1.072a.534.534,0,0,0-.685.258,2.81,2.81,0,0,0-.519,1.614,2.037,2.037,0,0,0,.247,1,3.133,3.133,0,0,0,.938.962c.756.479,1.444,1.066,2.187,1.564-.008.034-.017.068-.024.1a5.885,5.885,0,0,0-1.679-.517,8.786,8.786,0,0,0-2.534-.1,1.349,1.349,0,0,1-.139.24l0,.007-.012.009a2.042,2.042,0,0,0-.19,2.089,1.521,1.521,0,0,0,1.763.485c.444-.11.853-.332,1.3-.452a13.185,13.185,0,0,1,1.511-.259c.007.029.013.059.021.088a26.107,26.107,0,0,0-4.03,1.221c-.1.033-.238.138-.247.12a4.114,4.114,0,0,0,1.511,1.923c.033.011.184.1.207.107.518.109,1.074-.535,1.356-.866a13.705,13.705,0,0,1,1.336-1.467l-.006-.008a1.869,1.869,0,0,0,.2-.207c.025.044.049.087.075.13a13.885,13.885,0,0,0-1.645,1.746c-.445.5-1.461,1.225-1.446,1.98a4.661,4.661,0,0,0,2.839,2.024c.427.093.739-.716.845-.93a11.545,11.545,0,0,0,1.175-3.367c.048.018.1.035.146.05,0,.062-.007.123-.011.185a3.082,3.082,0,0,0-.168.6l-.017,0a6.839,6.839,0,0,1-.622,1.759c-.292.635-.827,1.26-.478,1.985a1.574,1.574,0,0,0,.424.551,3.013,3.013,0,0,0,1.515.654c.059-.007.088.018.115-.009a3.518,3.518,0,0,0,.491-1.24,7.615,7.615,0,0,0,.268-1.366,11.5,11.5,0,0,0-.12-2.968l.11-.012c.193.922-.023,1.893.188,2.794.1.441.557,2.1,1.263,1.952.331-.071.412-.094.539-.132l1.124-.339c.152-.158.081.021.233-.3.16-.334-.361-1.4-.666-2.208a10.943,10.943,0,0,0-1.305-2.252l.079-.05a18.856,18.856,0,0,0,1.425,1.825m-5.05-2.709a2.377,2.377,0,0,1-.453-3.434,2.5,2.5,0,0,1,1.645-.8,2.042,2.042,0,0,1,.8.1q1.47.478.108,1.988a.255.255,0,0,0-.067.5,1.367,1.367,0,0,0,1.679-1.248,1.474,1.474,0,0,0-.042-.447c2.31,1.744-1.4,5.195-3.672,3.334" transform="translate(-509.99 222.263)" fill="#447498"/>
      <path id="Path_150556" data-name="Path 150556" d="M592.21,310.448a.9.9,0,0,0,0-1.792.9.9,0,0,0,0,1.792" transform="translate(-531.376 244.784)" fill="#447498"/>
      <path id="Path_150557" data-name="Path 150557" d="M592.13,319.211c-.222-1.23,2.193-3.659,3.347-3.621,1.234.041,1.557,1.5.965,2.429-.5.791-3.182,2.506-4.071,1.653q-.848.712-1.648,1.466c1.3-.3,3.15-.117,3.693.485.824.914.008,2.173-1.066,2.407-.865.188-3.675-.442-3.967-1.566q-1.139,1.18-2.183,2.438c1.14-.659,3.926-.4,4.569.4.768.962-.119,2.172-1.205,2.341-.96.15-4.2-.824-3.855-2.143q-1.208,1.5-2.3,3.095c1.167-.627,3.888-.364,4.522.429.768.962-.12,2.171-1.206,2.341-.909.142-3.866-.725-3.88-1.938q-1.183,1.779-2.252,3.638c1.017-.786,4.049-.543,4.724.3.768.961-.12,2.171-1.206,2.341-.928.145-3.991-.761-3.878-2.014-1.438,2.544-2.744,5.171-3.978,7.811-.14.3-.608.1-.468-.2,1.22-2.61,2.511-5.206,3.929-7.722a.924.924,0,0,1-.274.107c-1.227.275-3.479-2.5-3.3-3.682a1.516,1.516,0,0,1,2.525-.718,5.48,5.48,0,0,1,1.457,3.571q1.083-1.877,2.275-3.679a.962.962,0,0,1-.153.016c-1.254.033-2.924-3.134-2.517-4.259a1.51,1.51,0,0,1,2.611-.216,5.858,5.858,0,0,1,.83,3.325q1.108-1.586,2.325-3.086a.84.84,0,0,1-.462.05c-1.237-.193-2.312-3.614-1.712-4.649a1.5,1.5,0,0,1,2.6.255,5.782,5.782,0,0,1,.151,3.646q1.014-1.2,2.113-2.33a.925.925,0,0,1-.247-.005c-1.237-.192-2.312-3.613-1.712-4.649a1.5,1.5,0,0,1,2.6.255,5.81,5.81,0,0,1,.17,3.591q1.025-.993,2.129-1.918" transform="translate(-522.675 240.649)" fill="#447498"/>
      <path id="Path_150559" data-name="Path 150559" d="M586.753,299.849a3.678,3.678,0,0,0,.526-1.662c.068.817.224,1.908.482,1.87.467-.068,0-1.242-.08-1.585.109.172.744,1.544.952,1.072.094-.215-.531-1.289-.985-1.863.606.535,1.756,1.446,1.935,1.2.28-.38-.883-.874-1.182-1.06.2.044,1.62.558,1.431.079-.065-.164-.759-.38-1.408-.513.77-.016,1.641-.1,1.627-.328-.03-.471-1.238-.1-1.587-.047.18-.095,1.6-.618,1.145-.863-.2-.109-1.26.394-1.879.794.546-.616,1.382-1.67,1.153-1.844-.377-.284-.882.874-1.071,1.172.046-.2.575-1.615.093-1.43a3.7,3.7,0,0,0-.577,1.654c-.044-.815-.168-1.889-.424-1.859-.469.054-.037,1.242.032,1.587-.1-.175-.7-1.566-.919-1.1-.088.185.349,1.035.751,1.64-.645-.512-1.58-1.169-1.731-.951-.269.388.908.847,1.214,1.024-.2-.038-1.637-.509-1.433-.036a3.052,3.052,0,0,0,1.415.469c-.774.039-1.658.144-1.636.377.044.47,1.24.061,1.587,0-.177.1-1.579.666-1.118.9.2.1,1.2-.41,1.817-.825-.527.629-1.352,1.731-1.114,1.9.385.273.856-.9,1.036-1.2-.04.2-.526,1.631-.05,1.432" transform="translate(-527.351 253.146)" fill="#447498"/>
      <path id="Path_150560" data-name="Path 150560" d="M565.324,322.745a5.337,5.337,0,0,0,.763-2.413c.1,1.186.326,2.77.7,2.715.678-.1,0-1.8-.116-2.3.158.25,1.081,2.242,1.382,1.556.138-.313-.771-1.871-1.429-2.705.88.776,2.55,2.1,2.809,1.748.407-.551-1.281-1.269-1.717-1.538.289.063,2.353.811,2.078.114-.094-.238-1.1-.552-2.044-.745,1.118-.023,2.383-.139,2.361-.475-.044-.684-1.8-.143-2.3-.069.261-.138,2.321-.9,1.662-1.253-.292-.157-1.829.572-2.728,1.154.792-.895,2.007-2.425,1.673-2.676-.547-.413-1.281,1.269-1.555,1.7.066-.288.834-2.344.135-2.076a5.373,5.373,0,0,0-.838,2.4c-.064-1.184-.244-2.742-.615-2.7-.681.078-.053,1.8.046,2.3-.151-.254-1.013-2.273-1.334-1.6-.128.269.507,1.5,1.09,2.381-.936-.743-2.293-1.7-2.512-1.38-.391.563,1.319,1.229,1.762,1.486-.29-.054-2.376-.739-2.08-.052a4.427,4.427,0,0,0,2.055.682c-1.124.056-2.407.209-2.375.548.065.682,1.8.089,2.305,0-.258.146-2.293.968-1.623,1.3.29.145,1.749-.6,2.636-1.2-.764.914-1.962,2.513-1.617,2.757.559.4,1.242-1.307,1.5-1.747-.057.29-.763,2.368-.072,2.08" transform="translate(-513.986 240.893)" fill="#447498"/>
      <path id="Path_150562" data-name="Path 150562" d="M567.966,326.917a2.005,2.005,0,0,0,1.987,1.987h.166a1.987,1.987,0,1,0,0-3.974h-.166a2.005,2.005,0,0,0-1.987,1.987" transform="translate(-517.431 235.076)" fill="#447498"/>
      <path id="Path_150563" data-name="Path 150563" d="M582.958,291.571a.9.9,0,0,0,0,1.8.9.9,0,0,0,0-1.8" transform="translate(-525.854 254.976)" fill="#447498"/>
      <path id="Path_150565" data-name="Path 150565" d="M592.227,310.682a.9.9,0,0,0,0-1.8.9.9,0,0,0,0,1.8" transform="translate(-531.382 244.65)" fill="#447498"/>
    </g>
    <g id="Layer_16" data-name="Layer 16" transform="translate(48.915 750.221)">
      <path id="Path_150568" data-name="Path 150568" d="M17.288,20.037a.915.915,0,0,0-.987.834c-.081.954-.181,1.784-.269,2.221V23.1a4.036,4.036,0,0,1-2.818,2.942l-.337.066c.1-1.239.168-2.823.158-4.045a54.14,54.14,0,0,0-.323-5.884A8.6,8.6,0,0,0,9.7,10.744l-.009-.006A16.285,16.285,0,0,0,6.51,9.067q-.3-.116-.592-.217A20.516,20.516,0,0,1,9.13,8.609a19.882,19.882,0,0,1,4.085.4,4.034,4.034,0,0,1,2.818,2.942v.005c.087.433.187,1.263.268,2.215a.915.915,0,0,0,1.823-.155c-.088-1.03-.2-1.911-.3-2.417A5.852,5.852,0,0,0,13.6,7.221l-.012,0a21.948,21.948,0,0,0-4.466-.439,21.326,21.326,0,0,0-4.46.44l-.012,0A5.425,5.425,0,0,0,2.19,8.564a2.275,2.275,0,0,0-.5.517A5.577,5.577,0,0,0,.432,11.6a38.558,38.558,0,0,0-.454,5.925c-.011,1.033.056,2.343.156,3.507.053.746.113,1.4.171,1.813a8.6,8.6,0,0,0,3.012,5.433l.008.006a16.3,16.3,0,0,0,3.183,1.671,12.443,12.443,0,0,0,3.18.816H9.7c1.353.121,2.583-1.054,2.955-2.771q.472-.075.937-.171l.012,0a5.851,5.851,0,0,0,4.224-4.379c.1-.508.209-1.39.3-2.422a.915.915,0,0,0-.833-.989Z" transform="translate(0 0)" fill="#fadf4a"/>
      <path id="Path_150569" data-name="Path 150569" d="M307.538,147.033a.576.576,0,0,0,0-.091.026.026,0,0,0,0-.006.835.835,0,0,0-.013-.085v-.006a.91.91,0,0,0-.248-.459L304,143.11A.915.915,0,1,0,302.7,144.4l1.718,1.717H298.1a.915.915,0,1,0,0,1.83h6.308l-1.716,1.716a.915.915,0,0,0,1.294,1.294l3.259-3.259a.908.908,0,0,0,.25-.406.8.8,0,0,0,.02-.084.1.1,0,0,0,0-.012c0-.025.009-.048.011-.074a.433.433,0,0,0,0-.056v-.032Z" transform="translate(-282.902 -129.511)" fill="#fadf4a"/>
    </g>
  </g>
</svg>
