<svg id="Layer_1" data-name="Layer 1" xmlns="http://www.w3.org/2000/svg" viewBox="0 0 60 60"><g id="Group_55046" data-name="Group 55046"><path id="Rectangle_17141" data-name="Rectangle 17141" d="M30,0h0A30,30,0,0,1,60,30h0A30,30,0,0,1,30,60h0A30,30,0,0,1,0,30H0A30,30,0,0,1,30,0Z" transform="translate(0 0)" fill="#fff"/><rect id="Rectangle_17142" data-name="Rectangle 17142" x="4" y="4" width="51.43" height="51.43" rx="25.71" fill="#296896"/><g id="Group_53995" data-name="Group 53995"><path id="Path_150553" data-name="Path 150553" d="M21.08,25.36a2,2,0,0,0,2,2h.16a2,2,0,1,0,0-3.95h-.16a2,2,0,0,0-2,2" transform="translate(0 0)" fill="#447498"/><path id="Path_150554" data-name="Path 150554" d="M27.62,10a.9.9,0,1,0,.81.81.9.9,0,0,0-.81-.81" transform="translate(0 0)" fill="#447498"/><path id="Path_150558" data-name="Path 150558" d="M27.49,44.7c.44.46,1,1.37,1.65,1.4.52-.4,1.81-1.27,1.28-2.11,0,0-1-.67-1.5-1.07a6.64,6.64,0,0,0-1.78-1.13l.05-.08c.7.28,1.32.65,2,.88s1.65.73,2.26.4c.1-.14.24-.29.3-.37.33-.37,1.12-2.3-.43-3.22a1.8,1.8,0,0,0-1.21,0,17.5,17.5,0,0,1-2.5.17s0-.07,0-.1a9.31,9.31,0,0,0,1.9-.15,7.31,7.31,0,0,0,1.77-.88,2.31,2.31,0,0,0,.2-.24s.78-1.83-1.47-3.36h0a.31.31,0,0,0-.13,0,3.58,3.58,0,0,0-1.62,1,12.73,12.73,0,0,0-1.78,1.58l-.07-.06A12.51,12.51,0,0,1,28,35.84c.46-.35.9-.74.83-1.37a.76.76,0,0,0-.35-.58s-.94-1-1.46-.82a1.4,1.4,0,0,1-.1.16c-.3.41-.58.94-.94,1.47a15,15,0,0,0-1.16,1.81l-.11,0c.21-.46.39-.94.55-1.4a6,6,0,0,0,.38-1.92c0-.67-1.11-1-1.79-1h-.13c-.27.18-.56.23-.58.59s-.14.84-.12,1.28c0,.83,0,1.72.12,2.55l-.07,0a7.21,7.21,0,0,0-.6-1.84c-.27-.62-.74-1.79-.92-1.79a2,2,0,0,0-1.84.86c-.32.69.41,1.18.77,1.69s.9,1.2,1.38,1.78l-.05,0c-.73-.83-1.33-1.74-2.05-2.57-.34-.4-.63-.91-1.15-1.07a.54.54,0,0,0-.69.25,2.86,2.86,0,0,0-.52,1.62,2.06,2.06,0,0,0,.25,1,3.19,3.19,0,0,0,.94,1c.75.48,1.44,1.07,2.18,1.56a.3.3,0,0,1,0,.1,6.16,6.16,0,0,0-1.68-.51,8.59,8.59,0,0,0-2.53-.1c0,.08-.09.16-.14.24h0A2,2,0,0,0,16.21,41a1.51,1.51,0,0,0,1.76.49c.44-.11.85-.33,1.3-.45a11.08,11.08,0,0,1,1.51-.26s0,.06,0,.08a26,26,0,0,0-4,1.23c-.1,0-.24.13-.25.12A4.11,4.11,0,0,0,18,44.08l.2.11c.52.1,1.08-.54,1.36-.87a14.23,14.23,0,0,1,1.33-1.47h0l.2-.2s.05.08.07.13a15,15,0,0,0-1.64,1.74c-.45.5-1.46,1.23-1.45,2a4.66,4.66,0,0,0,2.84,2c.43.09.74-.72.85-.93A11.53,11.53,0,0,0,23,43.22l.15.05c0,.06,0,.12,0,.19a2.43,2.43,0,0,0-.17.6h0a6.41,6.41,0,0,1-.62,1.75c-.29.64-.83,1.26-.48,2a1.53,1.53,0,0,0,.43.55,2.89,2.89,0,0,0,1.51.65c.06,0,.09,0,.12,0a3.7,3.7,0,0,0,.49-1.24,7.2,7.2,0,0,0,.26-1.37,11.37,11.37,0,0,0-.12-3h.11c.2.92,0,1.89.19,2.79.1.44.56,2.1,1.27,2l.53-.14,1.13-.34c.15-.15.08,0,.23-.3s-.36-1.4-.66-2.2A11.57,11.57,0,0,0,26,42.92l.08-.05A19.44,19.44,0,0,0,27.5,44.7M22.45,42a2.39,2.39,0,0,1-.54-3.32l.09-.11a2.5,2.5,0,0,1,1.65-.8,2,2,0,0,1,.8.1c1,.32,1,1,.1,2a.26.26,0,0,0-.25.26.25.25,0,0,0,.19.24,1.36,1.36,0,0,0,1.64-1,1.85,1.85,0,0,0,0-.23,1.73,1.73,0,0,0-.05-.45c2.31,1.74-1.4,5.2-3.67,3.33" transform="translate(0 0)" fill="#447498"/><path id="Path_150556" data-name="Path 150556" d="M31.33,18.73a.89.89,0,0,0,.81-1,.82.82,0,1,0-.81,1" transform="translate(0 0)" fill="#447498"/><path id="Path_150557" data-name="Path 150557" d="M40,23.36c-.22-1.23,2.2-3.66,3.35-3.62s1.56,1.5,1,2.43-3.18,2.51-4.07,1.65c-.56.48-1.11,1-1.64,1.47,1.3-.3,3.15-.12,3.69.48.82.92,0,2.18-1.07,2.41-.86.19-3.67-.44-4-1.56-.76.78-1.49,1.6-2.19,2.43,1.14-.66,3.93-.4,4.57.4.77,1-.12,2.18-1.2,2.34s-4.2-.82-3.86-2.14c-.8,1-1.57,2-2.3,3.1,1.17-.63,3.89-.37,4.52.43.77,1-.12,2.17-1.2,2.34-.91.14-3.87-.73-3.88-1.94-.79,1.18-1.54,2.4-2.25,3.64,1-.79,4-.55,4.72.3s-.12,2.17-1.21,2.34c-.92.14-4-.76-3.87-2-1.44,2.55-2.75,5.17-4,7.81-.14.3-.61.1-.47-.2,1.22-2.61,2.51-5.2,3.93-7.72a1,1,0,0,1-.28.11c-1.22.27-3.47-2.5-3.3-3.68a1.52,1.52,0,0,1,2.53-.72A5.49,5.49,0,0,1,29,37c.72-1.25,1.48-2.48,2.27-3.68l-.15,0c-1.26,0-2.93-3.14-2.52-4.26a1.51,1.51,0,0,1,2-.73,1.56,1.56,0,0,1,.6.51A5.89,5.89,0,0,1,32,32.2c.74-1.06,1.52-2.09,2.33-3.09a.81.81,0,0,1-.46.05c-1.24-.19-2.32-3.61-1.72-4.65a1.49,1.49,0,0,1,2.09-.36,1.4,1.4,0,0,1,.51.62,5.68,5.68,0,0,1,.15,3.64c.68-.8,1.38-1.57,2.12-2.33a1,1,0,0,1-.25,0c-1.24-.19-2.31-3.61-1.71-4.65a1.5,1.5,0,0,1,2.09-.37,1.61,1.61,0,0,1,.51.62,5.91,5.91,0,0,1,.17,3.6q1-1,2.13-1.92" transform="translate(0 0)" fill="#447498"/><path id="Path_150559" data-name="Path 150559" d="M29.9,16.5a3.67,3.67,0,0,0,.52-1.66c.07.81.23,1.9.49,1.87.46-.07,0-1.25-.08-1.59.11.17.74,1.55,1,1.07a4.55,4.55,0,0,0-1-1.86c.61.53,1.76,1.45,1.94,1.2s-.88-.87-1.18-1.06c.2,0,1.62.56,1.43.08A3.13,3.13,0,0,0,31.57,14c.77,0,1.64-.1,1.63-.33,0-.47-1.24-.1-1.59-.05.18-.09,1.6-.62,1.15-.86-.2-.11-1.26.39-1.88.79.54-.61,1.38-1.67,1.15-1.84-.38-.29-.88.87-1.07,1.17,0-.2.57-1.61.09-1.43a3.76,3.76,0,0,0-.58,1.65c0-.81-.16-1.88-.42-1.85-.47.05,0,1.24,0,1.58-.1-.17-.7-1.56-.92-1.1a3.9,3.9,0,0,0,.75,1.64c-.64-.51-1.58-1.17-1.73-.95-.27.39.91.85,1.22,1-.2,0-1.64-.51-1.44,0a3.15,3.15,0,0,0,1.42.47c-.78,0-1.66.14-1.64.38.05.47,1.24.06,1.59,0-.18.1-1.58.66-1.12.9.2.1,1.2-.41,1.82-.83-.53.63-1.35,1.73-1.12,1.9.39.27.86-.9,1-1.2,0,.2-.53,1.63-.05,1.43" transform="translate(0 0)" fill="#447498"/><path id="Path_150560" data-name="Path 150560" d="M21.83,27.14a5.31,5.31,0,0,0,.77-2.41c.1,1.18.32,2.77.7,2.71.68-.1,0-1.8-.12-2.3.16.25,1.08,2.25,1.38,1.56.14-.31-.77-1.87-1.43-2.71.88.78,2.55,2.1,2.81,1.75.41-.55-1.28-1.27-1.71-1.54.29.07,2.35.82,2.07.12-.09-.24-1.09-.55-2-.75,1.12,0,2.38-.14,2.36-.47,0-.69-1.8-.14-2.3-.07.26-.14,2.32-.9,1.66-1.25-.29-.16-1.82.57-2.72,1.15.79-.89,2-2.42,1.67-2.68-.55-.41-1.28,1.27-1.56,1.7.07-.28.84-2.34.14-2.07a5.28,5.28,0,0,0-.84,2.4c-.06-1.19-.24-2.74-.61-2.7-.69.08-.06,1.8,0,2.3-.15-.26-1-2.27-1.33-1.6-.13.27.51,1.5,1.09,2.38-.94-.74-2.3-1.7-2.51-1.38-.39.56,1.31,1.23,1.76,1.49-.29-.06-2.38-.74-2.08-.06a4.43,4.43,0,0,0,2,.69c-1.12.05-2.4.2-2.37.54.06.69,1.8.09,2.3,0-.26.15-2.29,1-1.62,1.3.29.15,1.75-.6,2.64-1.2-.77.92-2,2.52-1.62,2.76.56.4,1.24-1.31,1.5-1.75-.06.29-.76,2.37-.07,2.08" transform="translate(0 0)" fill="#447498"/><path id="Path_150562" data-name="Path 150562" d="M21,25.5a2,2,0,0,0,2,2h.16a2,2,0,0,0,0-4H23a2,2,0,0,0-2,2" transform="translate(0 0)" fill="#447498"/><path id="Path_150563" data-name="Path 150563" d="M27.6,10.05a.9.9,0,1,0,.9.9.9.9,0,0,0-.9-.9" transform="translate(0 0)" fill="#447498"/><path id="Path_150565" data-name="Path 150565" d="M31.34,18.83a.9.9,0,1,0,0-1.79.88.88,0,0,0-.89.9.89.89,0,0,0,.89.89" transform="translate(0 0)" fill="#447498"/></g><g id="feed"><path id="Path_150956" data-name="Path 150956" d="M37,38.44v.85a.71.71,0,0,1-.72.71H20.71a.71.71,0,0,1-.71-.71V23.7a.71.71,0,0,1,.71-.71h.85V37.72a.73.73,0,0,0,.72.72Z" transform="translate(0 0)" fill="#fadf4a"/><path id="Path_150957" data-name="Path 150957" d="M39.29,20H23.7a.71.71,0,0,0-.71.71V36.29a.71.71,0,0,0,.71.72H39.29a.71.71,0,0,0,.71-.72V20.71A.71.71,0,0,0,39.29,20Zm-3.9,13.11H27.6a.72.72,0,0,1,0-1.43h7.79a.72.72,0,1,1,0,1.43Zm0-3.9H27.6a.72.72,0,0,1,0-1.43h7.79a.72.72,0,1,1,0,1.43Zm0-3.89H27.6a.72.72,0,0,1,0-1.43h7.79a.72.72,0,1,1,0,1.43Z" transform="translate(0 0)" fill="#fadf4a"/></g></g></svg>