<svg xmlns="http://www.w3.org/2000/svg" xmlns:xlink="http://www.w3.org/1999/xlink" width="172" height="171.998" viewBox="0 0 172 171.998">
  <defs>
    <clipPath id="clip-path">
      <path id="Path_4213" data-name="Path 4213" d="M4.759,211.954a78.975,78.975,0,1,0,78.975-78.975A78.976,78.976,0,0,0,4.759,211.954" transform="translate(-4.759 -132.979)" fill="none"/>
    </clipPath>
  </defs>
  <g id="Group_55042" data-name="Group 55042" transform="translate(-129 -149.242)">
    <g id="Group_54001" data-name="Group 54001" transform="translate(-7 -93.262)">
      <g id="Group_292" data-name="Group 292" transform="translate(136 242.504)">
        <path id="Path_4817" data-name="Path 4817" d="M176.758,218.978a86,86,0,1,1-86-86,86,86,0,0,1,86,86" transform="translate(-4.758 -132.979)" fill="#fff"/>
        <path id="Path_4211" data-name="Path 4211" d="M162.711,211.954a78.977,78.977,0,1,1-78.975-78.975,78.976,78.976,0,0,1,78.975,78.975" transform="translate(1.754 -125.929)" fill="#296896"/>
      </g>
    </g>
    <g id="feed_1_" data-name="feed (1)" transform="translate(181.468 201.395)">
      <path id="Path_150956" data-name="Path 150956" d="M56.161,55.37v2.707a2.281,2.281,0,0,1-2.275,2.275H4.275A2.281,2.281,0,0,1,2,58.077V8.465A2.281,2.281,0,0,1,4.275,6.19H6.982v46.9A2.281,2.281,0,0,0,9.256,55.37Z" transform="translate(0 5.341)" fill="#fadf4a"/>
      <path id="Path_150957" data-name="Path 150957" d="M58.077,2H8.465A2.281,2.281,0,0,0,6.19,4.275V53.887a2.281,2.281,0,0,0,2.275,2.275H58.077a2.281,2.281,0,0,0,2.275-2.275V4.275A2.281,2.281,0,0,0,58.077,2Zm-12.4,41.741H20.885a2.275,2.275,0,0,1,0-4.549H45.679a2.275,2.275,0,0,1,0,4.549Zm0-12.4H20.885a2.275,2.275,0,1,1,0-4.549H45.679a2.275,2.275,0,1,1,0,4.549Zm0-12.4H20.885a2.275,2.275,0,0,1,0-4.549H45.679a2.275,2.275,0,1,1,0,4.549Z" transform="translate(5.341)" fill="#fadf4a" stroke="rgba(0,0,0,0)" stroke-miterlimit="10" stroke-width="1"/>
    </g>
  </g>
</svg>
