<svg xmlns="http://www.w3.org/2000/svg" width="54.841" height="54.853" viewBox="0 0 54.841 54.853">
  <g id="Group_51926" data-name="Group 51926" transform="translate(-187.76 -351.75)">
    <g id="g25" transform="translate(188.01 352)">
      <path id="path27" d="M-435.5-413.845a21.63,21.63,0,0,1-15.4-6.377,21.8,21.8,0,0,1,0-30.791,21.63,21.63,0,0,1,15.4-6.377,21.63,21.63,0,0,1,15.4,6.377,21.8,21.8,0,0,1,0,30.791A21.63,21.63,0,0,1-435.5-413.845Zm0-41.421a19.52,19.52,0,0,0-13.894,5.755,19.671,19.671,0,0,0,0,27.788,19.52,19.52,0,0,0,13.894,5.755,19.521,19.521,0,0,0,13.894-5.755,19.671,19.671,0,0,0,0-27.788A19.521,19.521,0,0,0-435.5-455.266Z" transform="translate(457.262 457.39)" fill="#262626" stroke="#262626" stroke-width="0.5"/>
    </g>
    <g id="g29" transform="translate(193.74 373.772)">
      <path id="path31" transform="translate(0)" fill="#262626" stroke="#000" stroke-width="0.5"/>
    </g>
    <g id="g33" transform="translate(193.417 356.671)">
      <path id="path35" d="M-390.339-241.513a16.989,16.989,0,0,1-12.092-5.009,17.117,17.117,0,0,1-4.206-6.922,1.062,1.062,0,0,1,.693-1.332,1.062,1.062,0,0,1,1.332.693,14.78,14.78,0,0,0,3.683,6.06,14.88,14.88,0,0,0,10.591,4.387,14.88,14.88,0,0,0,10.591-4.387,14.877,14.877,0,0,0,4.38-10.591,14.876,14.876,0,0,0-4.38-10.591,14.88,14.88,0,0,0-10.591-4.387,14.88,14.88,0,0,0-10.591,4.387,14.985,14.985,0,0,0-3.689,6.079,1.062,1.062,0,0,1-1.331.695,1.062,1.062,0,0,1-.695-1.331,17.116,17.116,0,0,1,4.213-6.944,16.989,16.989,0,0,1,12.092-5.009,16.989,16.989,0,0,1,12.092,5.009,16.986,16.986,0,0,1,5,12.092,16.986,16.986,0,0,1-5,12.092A16.989,16.989,0,0,1-390.339-241.513Z" transform="translate(406.694 275.715)" fill="#fadf4a" stroke="#fadf4a" stroke-width="0.5"/>
    </g>
    <g id="g37" transform="translate(223.618 387.618)">
      <path id="path39" d="M-60.313-7.054a1.058,1.058,0,0,1-.751-.311l-4.156-4.156a1.062,1.062,0,0,1,0-1.5,1.062,1.062,0,0,1,1.5,0l4.156,4.156a1.062,1.062,0,0,1,0,1.5A1.058,1.058,0,0,1-60.313-7.054Z" transform="translate(65.531 13.333)" fill="#262626" stroke="#262626" stroke-width="0.5"/>
    </g>
    <g id="g41" transform="translate(225.44 389.44)">
      <path id="path43" d="M-12.925-170.041a4.334,4.334,0,0,1-3.085-1.278l-9.155-9.155a1.062,1.062,0,0,1,0-1.5l4.668-4.668a1.062,1.062,0,0,1,1.5,0l9.155,9.155a4.367,4.367,0,0,1,0,6.17A4.334,4.334,0,0,1-12.925-170.041Zm-9.988-11.184,8.4,8.4a2.225,2.225,0,0,0,1.583.656,2.225,2.225,0,0,0,1.583-.656,2.242,2.242,0,0,0,0-3.167l-8.4-8.4Z" transform="translate(25.476 186.954)" fill="#262626" stroke="#262626" stroke-width="0.5"/>
    </g>
    <g id="g45" transform="translate(202.228 366.226)">
      <path id="path47" d="M-155.585-108.417a3.5,3.5,0,0,1-2.489-1.031l-1.537-1.537-1.537,1.537a3.5,3.5,0,0,1-2.489,1.031,3.5,3.5,0,0,1-2.489-1.031,3.524,3.524,0,0,1,0-4.978l1.537-1.537-1.537-1.537a3.524,3.524,0,0,1,0-4.978,3.5,3.5,0,0,1,2.489-1.031,3.5,3.5,0,0,1,2.489,1.031l1.537,1.537,1.537-1.537a3.5,3.5,0,0,1,2.489-1.031,3.5,3.5,0,0,1,2.489,1.031,3.5,3.5,0,0,1,1.031,2.489A3.5,3.5,0,0,1-153.1-117.5l-1.537,1.537,1.537,1.537a3.5,3.5,0,0,1,1.031,2.489,3.5,3.5,0,0,1-1.031,2.489A3.5,3.5,0,0,1-155.585-108.417Zm-4.026-5.131a1.062,1.062,0,0,1,.751.311l2.288,2.288a1.387,1.387,0,0,0,.988.409,1.388,1.388,0,0,0,.988-.409,1.388,1.388,0,0,0,.409-.988,1.387,1.387,0,0,0-.409-.988l-2.288-2.288a1.062,1.062,0,0,1,0-1.5L-154.6-119a1.388,1.388,0,0,0,.409-.988,1.388,1.388,0,0,0-.409-.988,1.388,1.388,0,0,0-.988-.409,1.388,1.388,0,0,0-.988.409l-2.288,2.288a1.062,1.062,0,0,1-.751.311,1.062,1.062,0,0,1-.751-.311l-2.288-2.288a1.388,1.388,0,0,0-.988-.409,1.388,1.388,0,0,0-.988.409,1.4,1.4,0,0,0,0,1.975l2.288,2.288a1.062,1.062,0,0,1,0,1.5l-2.288,2.288a1.4,1.4,0,0,0,0,1.975,1.388,1.388,0,0,0,.988.409,1.388,1.388,0,0,0,.988-.409l2.288-2.288A1.062,1.062,0,0,1-159.611-113.548Z" transform="translate(167.155 123.509)" fill="#262626" stroke="#262626" stroke-width="0.5"/>
    </g>
  </g>
</svg>
