<svg xmlns="http://www.w3.org/2000/svg" width="159.671" height="159.672" viewBox="0 0 159.671 159.672">
  <g id="Group_55042" data-name="Group 55042" transform="translate(-83.329 -509)">
    <g id="Group_53984" data-name="Group 53984" transform="translate(-51.671 -15.123)">
      <path id="Path_150862" data-name="Path 150862" d="M1125.608,304.187a79.836,79.836,0,1,1-79.836-79.836,79.836,79.836,0,0,1,79.836,79.836" transform="translate(-830.937 299.771)" fill="#fadf4a"/>
      <path id="Path_150863" data-name="Path 150863" d="M1116.637,303.8a70.865,70.865,0,1,1-70.865-70.865,70.865,70.865,0,0,1,70.865,70.865" transform="translate(-830.906 299.771)" fill="#fff"/>
      <path id="Path_150884" data-name="Path 150884" d="M1080.521,333.171c1.735,3.189-3.308,6.9-4.893,3.69a1.839,1.839,0,0,0,.533.154,1.688,1.688,0,0,0,1.9-1.751.315.315,0,0,0-.621-.035q-2.147,1.3-2.388-.588a2.521,2.521,0,0,1,.059-1,3.1,3.1,0,0,1,1.345-1.813,2.938,2.938,0,0,1,4.064,1.341" transform="translate(-830.937 299.771)" fill="#fadf4a"/>
      <path id="Path_150885" data-name="Path 150885" d="M1087.674,333.171c1.735,3.189-3.308,6.9-4.893,3.69a1.84,1.84,0,0,0,.533.154,1.688,1.688,0,0,0,1.9-1.751.315.315,0,0,0-.621-.035q-2.147,1.3-2.388-.588a2.5,2.5,0,0,1,.06-1,3.1,3.1,0,0,1,1.344-1.813,2.938,2.938,0,0,1,4.064,1.341" transform="translate(-830.937 299.771)" fill="#fadf4a"/>
      <g id="Group_53982" data-name="Group 53982">
        <path id="Path_150886" data-name="Path 150886" d="M1005.3,261.379c-1.735,3.189,3.308,6.9,4.893,3.69a1.84,1.84,0,0,1-.533.154,1.688,1.688,0,0,1-1.9-1.751.315.315,0,0,1,.621-.035q2.146,1.3,2.388-.588a2.522,2.522,0,0,0-.06-1,3.1,3.1,0,0,0-1.344-1.813,2.938,2.938,0,0,0-4.064,1.341" transform="translate(-832.794 299.771)" fill="#fadf4a"/>
        <path id="Path_150887" data-name="Path 150887" d="M998.153,261.379c-1.736,3.189,3.308,6.9,4.892,3.69a1.825,1.825,0,0,1-.532.154,1.687,1.687,0,0,1-1.9-1.751.315.315,0,0,1,.62-.035q2.148,1.3,2.388-.588a2.56,2.56,0,0,0-.058-1,3.1,3.1,0,0,0-1.346-1.813,2.937,2.937,0,0,0-4.063,1.341" transform="translate(-832.794 299.771)" fill="#fadf4a"/>
      </g>
      <g id="Group_53983" data-name="Group 53983" transform="translate(-2)">
        <text id="we_" data-name="we " transform="translate(182.125 569.911)" fill="#296896" font-size="14.763" font-family="SegoeUI, Segoe UI"><tspan x="0" y="0">we </tspan></text>
        <text id="ROOT_" data-name="ROOT " transform="translate(207.325 569.911)" fill="#296896" font-size="14.763" font-family="SegoeUI, Segoe UI"><tspan x="0" y="0">ROOT </tspan></text>
        <text id="for_each_other" data-name="for each other" transform="translate(165 587.626)" fill="#296896" font-size="14.763" font-family="SegoeUI, Segoe UI"><tspan x="0" y="0">for each other</tspan></text>
        <text id="_watch" data-name="&amp; watch" transform="translate(186.731 605.342)" fill="#296896" font-size="14.763" font-family="SegoeUI, Segoe UI"><tspan x="0" y="0">&amp; watch</tspan></text>
        <text id="each_other_" data-name="each other " transform="translate(174.921 623.057)" fill="#296896" font-size="14.763" font-family="SegoeUI, Segoe UI"><tspan x="0" y="0">each other </tspan></text>
        <text id="GROW" transform="translate(192.872 640.772)" fill="#296896" font-size="14.763" font-family="SegoeUI, Segoe UI"><tspan x="0" y="0">GROW</tspan></text>
      </g>
      <text id="anonymous" transform="translate(201 655.907)" fill="#296896" font-size="4.59" font-family="SegoeUI, Segoe UI"><tspan x="0" y="0">anonymous</tspan></text>
    </g>
  </g>
</svg>
