<svg xmlns="http://www.w3.org/2000/svg" xmlns:xlink="http://www.w3.org/1999/xlink" width="138.165" height="138.163" viewBox="0 0 138.165 138.163">
  <defs>
    <clipPath id="clip-path">
      <rect id="Rectangle_5114" data-name="Rectangle 5114" width="52.071" height="62.916" transform="translate(0 0)" fill="none"/>
    </clipPath>
  </defs>
  <g id="Group_55043" data-name="Group 55043" transform="translate(-221 -228)">
    <path id="Path_149510" data-name="Path 149510" d="M1179.943,316.965a69.082,69.082,0,1,1-69.081-69.081,69.081,69.081,0,0,1,69.081,69.081" transform="translate(-820.779 -19.884)" fill="#fff"/>
    <path id="Path_149603" data-name="Path 149603" d="M1167.659,312.965a60.844,60.844,0,1,1-60.843-60.843,60.842,60.842,0,0,1,60.843,60.843" transform="translate(-816.971 -15.472)" fill="#296896"/>
    <g id="Group_51942" data-name="Group 51942" transform="translate(264 265.651)" clip-path="url(#clip-path)">
      <path id="Path_150393" data-name="Path 150393" d="M32.5,22.1c2.864-1.585,6.846-6.94,5.108-10.407-1.782-3.558-5.407-1.264-6.887,1.217-.857,1.437-2.274,5.92-1.783,8.31A67.313,67.313,0,0,0,22.5,13.9c.6-.132,1.22-.7,1.831-1.888,1.5-2.91,1.823-9.575-1.551-11.487-3.46-1.963-5.194,1.96-5.043,4.845a18.352,18.352,0,0,0,1.71,5.74,54.954,54.954,0,0,0-6.314-4.651,5.45,5.45,0,0,0-.712-1.433C10.6,2.3,4.948-1.234,1.632.777-1.771,2.839.806,6.269,3.4,7.545c1.655.814,7.057,2.01,9.072.844a53.3,53.3,0,0,1,5.707,4.236c-3.062-1.457-8.011-2.119-10.1.4-2.539,3.064,1.02,5.459,3.887,5.815,2.022.251,8.513-.556,9.186-2.762a1.34,1.34,0,0,0,0-.726,65.324,65.324,0,0,1,6.237,7.091c-.112-.1-.227-.193-.357-.292-2.6-1.985-9.108-3.473-11.583-.486-2.538,3.064,1.021,5.46,3.888,5.815,2.022.251,8.513-.556,9.186-2.763a1.34,1.34,0,0,0,0-.749,87.467,87.467,0,0,1,5.738,9.128,6.711,6.711,0,0,0-.767-.673c-2.6-1.985-9.108-3.473-11.583-.486C19.376,35,22.935,37.392,25.8,37.748c2.022.251,8.512-.556,9.185-2.763a1.286,1.286,0,0,0,.047-.463c1.386,2.621,2.669,5.312,3.861,8.04-2.781-1.865-8.884-3.13-11.262-.259-2.54,3.064,1.02,5.46,3.887,5.815,1.819.226,7.253-.406,8.815-2.142C42.542,51.4,44.427,56.915,46.112,62.3c.384,1.223,2.216.458,1.836-.752-1.717-5.481-3.646-11.089-5.9-16.59a5.387,5.387,0,0,0,1.612-.043c3.236-.5,8.822-4.146,8.39-8-.444-3.954-4.638-3.055-6.883-1.237a17.576,17.576,0,0,0-4.349,6.372c-1.123-2.578-2.324-5.123-3.615-7.613a4.278,4.278,0,0,0,2.069-.408c3.032-1.234,7.62-6.079,6.305-9.728-1.349-3.743-5.22-1.9-6.983.392a17.609,17.609,0,0,0-2.752,7.2,89.368,89.368,0,0,0-5.816-9.2A3.371,3.371,0,0,0,32.5,22.1" transform="translate(0 0)" fill="#fadf4a"/>
    </g>
  </g>
</svg>
