<svg xmlns="http://www.w3.org/2000/svg" width="70" height="84.577" viewBox="0 0 70 84.577">
  <path id="Path_150869" data-name="Path 150869" d="M1034.487,439.025c3.851-2.131,9.2-9.328,6.867-13.99-2.4-4.783-7.269-1.7-9.258,1.636-1.152,1.931-3.057,7.959-2.4,11.172a90.685,90.685,0,0,0-8.653-9.838c.809-.178,1.64-.939,2.461-2.537,2.013-3.914,2.45-12.872-2.085-15.444-4.651-2.638-6.983,2.635-6.779,6.514a24.654,24.654,0,0,0,2.3,7.716,73.988,73.988,0,0,0-8.488-6.251,7.324,7.324,0,0,0-.958-1.927c-2.434-3.666-10.038-8.422-14.5-5.719-4.575,2.773-1.109,7.384,2.374,9.1,2.226,1.1,9.488,2.7,12.2,1.135a71.757,71.757,0,0,1,7.673,5.694c-4.117-1.96-10.769-2.85-13.573.534-3.413,4.119,1.371,7.338,5.226,7.816,2.716.338,11.442-.748,12.347-3.713a1.794,1.794,0,0,0,.005-.975,87.983,87.983,0,0,1,8.385,9.532c-.152-.128-.306-.259-.481-.392-3.5-2.667-12.243-4.668-15.571-.653-3.412,4.119,1.373,7.339,5.226,7.816,2.717.337,11.443-.748,12.347-3.713a1.787,1.787,0,0,0,0-1.008,117.024,117.024,0,0,1,7.714,12.27,8.974,8.974,0,0,0-1.031-.905c-3.5-2.667-12.243-4.669-15.57-.653-3.413,4.119,1.372,7.338,5.225,7.815,2.718.339,11.443-.747,12.348-3.713a1.733,1.733,0,0,0,.063-.623c1.864,3.524,3.587,7.141,5.19,10.808-3.739-2.508-11.942-4.208-15.139-.348-3.414,4.119,1.371,7.339,5.225,7.816,2.445.3,9.75-.545,11.849-2.879,2.967,7.288,5.5,14.7,7.769,21.936.515,1.646,2.977.617,2.467-1.01-2.308-7.37-4.9-14.907-7.934-22.3a7.276,7.276,0,0,0,2.166-.059c4.35-.668,11.86-5.573,11.279-10.754-.6-5.316-6.234-4.108-9.253-1.664a23.632,23.632,0,0,0-5.847,8.566c-1.509-3.465-3.123-6.888-4.859-10.235a5.721,5.721,0,0,0,2.781-.548c4.076-1.658,10.244-8.171,8.477-13.077-1.813-5.033-7.018-2.548-9.388.528a23.681,23.681,0,0,0-3.7,9.681,119.9,119.9,0,0,0-7.819-12.365c.764.231,1.842.027,3.322-.792" transform="translate(-990.803 -409.314)" fill="#fff"/>
</svg>
