<svg xmlns="http://www.w3.org/2000/svg" width="52" height="52" viewBox="0 0 52 52">
  <g id="Group_53990" data-name="Group 53990" transform="translate(-71.5 -490.5)">
    <rect id="Rectangle_17140" data-name="Rectangle 17140" width="50" height="50" rx="25" transform="translate(72.5 491.5)" fill="#296896" stroke="#fff" stroke-miterlimit="10" stroke-width="2"/>
    <path id="phone-flip" d="M1.826,1.82,2.876.91a3.1,3.1,0,0,1,4.38,0c.03.03,1.88,2.44,1.88,2.44a3.106,3.106,0,0,1,0,4.28L7.976,9.09a12.8,12.8,0,0,0,6.93,6.95l1.46-1.17a3.086,3.086,0,0,1,4.28,0s2.41,1.85,2.44,1.88a3.082,3.082,0,0,1,.05,4.33l-1,1.15a6.127,6.127,0,0,1-4.38,1.78C10.116,24.01,0,13.88,0,6.25a6.145,6.145,0,0,1,1.83-4.42ZM17.756,22a4.07,4.07,0,0,0,2.91-1.15l1-1.15a1.1,1.1,0,0,0,.04-1.51s-2.39-1.84-2.42-1.87a1.13,1.13,0,0,0-1.55,0c-.03.03-2.04,1.64-2.04,1.64a.993.993,0,0,1-.98.15A14.986,14.986,0,0,1,5.9,9.3a1.009,1.009,0,0,1,.15-1s1.61-2.02,1.63-2.04a1.092,1.092,0,0,0,0-1.55c-.03-.03-1.87-2.42-1.87-2.42a1.118,1.118,0,0,0-1.56.08L3.2,3.28A4.148,4.148,0,0,0,2,6.24C2,13.2,11.766,22,17.756,22Z" transform="translate(85.504 504.498)" fill="#fadf4a" stroke="#fadf4a" stroke-width="0.4"/>
  </g>
</svg>
