<svg xmlns="http://www.w3.org/2000/svg" width="16.065" height="20" viewBox="0 0 16.065 20">
  <g id="flag_7_" data-name="flag (7)" transform="translate(-50.372)">
    <path id="Path_149350" data-name="Path 149350" d="M66.254,1.1A1.887,1.887,0,0,0,64.529,0h-13.2a.952.952,0,0,0-.952.952v18.1a.952.952,0,1,0,1.9,0V13.333H64.529a1.9,1.9,0,0,0,1.463-3.124L63.04,6.667l2.952-3.543A1.888,1.888,0,0,0,66.254,1.1Zm-5.186,4.96a.953.953,0,0,0,0,1.219l3.461,4.152H52.277V1.9H64.529Z" transform="translate(0 0)" fill="#262626"/>
  </g>
</svg>
