<svg xmlns="http://www.w3.org/2000/svg" width="138.165" height="138.163" viewBox="0 0 138.165 138.163">
  <g id="Group_55045" data-name="Group 55045" transform="translate(-221 -489)">
    <path id="Path_149516" data-name="Path 149516" d="M1179.943,428.524a69.082,69.082,0,1,1-69.081-69.081,69.081,69.081,0,0,1,69.081,69.081" transform="translate(-820.779 129.557)" fill="#fff"/>
    <path id="Path_149612" data-name="Path 149612" d="M1167.659,424.478a60.844,60.844,0,1,1-60.843-60.843,60.843,60.843,0,0,1,60.843,60.843" transform="translate(-816.971 133.125)" fill="#296896"/>
    <g id="handshake_2_" data-name="handshake (2)" transform="translate(254.001 521.571)">
      <path id="Path_150960" data-name="Path 150960" d="M71.706,115.83,59.655,100.176a1.412,1.412,0,0,0-1.876-.33L50,104.794H39.851a1.4,1.4,0,0,0-.388.065l-7.868,2.265-8.164-2.233L15.5,99.846a1.411,1.411,0,0,0-1.856.3L.313,116.661a1.411,1.411,0,0,0,.178,1.957l6.986,6.012,6.268,8.446a4.985,4.985,0,0,0,3.136,8.374,5.022,5.022,0,0,0-.058.763,4.99,4.99,0,0,0,4.989,4.989l.053,0c0,.034,0,.068,0,.1a4.989,4.989,0,0,0,4.989,4.989,5.091,5.091,0,0,0,.779-.061,4.989,4.989,0,0,0,8.491,3.038l.763-.763.32.258a4.987,4.987,0,0,0,8.456-3.664,4.981,4.981,0,0,0,5.065-5.062,4.985,4.985,0,0,0,5.064-5.067,4.987,4.987,0,0,0,4.262-7.7l4.576-9.584,6.88-5.921A1.412,1.412,0,0,0,71.706,115.83Zm-56.66-12.925,5.7,3.627L8.342,121.649,3.37,117.37Zm.8,32.052,1.722-1.722c.052-.052.107-.1.163-.148a2.161,2.161,0,0,1,1.176-.477l.037,0c.062,0,.123-.008.185-.008a2.153,2.153,0,0,1,1.545.678,2.219,2.219,0,0,1-.1,3.071l-1.669,1.669a2.166,2.166,0,0,1-3.062-3.063Zm4.429,8.787a2.165,2.165,0,0,1,0-3.062l3.338-3.338a2.189,2.189,0,0,1,2.462-.425,2.158,2.158,0,0,1,1.193,2.236,2.285,2.285,0,0,1-.645,1.3l-3.285,3.285a2.166,2.166,0,0,1-3.063,0Zm5.041,5.089a2.165,2.165,0,0,1,0-3.062l3.338-3.338a2.19,2.19,0,0,1,2.618-.343,2.155,2.155,0,0,1,1.034,2.188,2.288,2.288,0,0,1-.642,1.271l-3.285,3.285a2.166,2.166,0,0,1-3.063,0Zm5.741,4.438a2.168,2.168,0,0,1,0-3.062l1.722-1.722c.052-.052.107-.1.163-.147l0,0a2.158,2.158,0,0,1,.96-.446l.025,0c.06-.011.122-.02.183-.025l.075,0c.051,0,.1-.006.152-.005a2.152,2.152,0,0,1,1.545.678,1.956,1.956,0,0,1,.14.164,2.235,2.235,0,0,1-.244,2.916l-1.661,1.661A2.168,2.168,0,0,1,31.062,153.271ZM57.4,137.515a2.167,2.167,0,0,1-3.062,0,1.29,1.29,0,0,0-.1-.086l-9.078-9.174a1.412,1.412,0,0,0-2.007,1.986l9.176,9.272,0,0a2.166,2.166,0,1,1-3.063,3.063l-6.139-6.2a1.412,1.412,0,1,0-2.007,1.986l6.045,6.107a1.339,1.339,0,0,0,.1.11,2.166,2.166,0,1,1-3.064,3.062l-3.35-3.385a1.412,1.412,0,0,0-2.007,1.986l3.257,3.29a1.259,1.259,0,0,0,.1.111,2.166,2.166,0,0,1-3.062,3.063,3.121,3.121,0,0,0-.32-.255c-.092-.07-.116-.119-.07-.231s.116-.216.163-.331.093-.259.134-.391a5.09,5.09,0,0,0,.183-2.172,4.938,4.938,0,0,0-4.209-4.25,5.036,5.036,0,0,0-1.209-4.543,4.952,4.952,0,0,0-3.556-1.561H30.11a4.941,4.941,0,0,0-4.891-5.089,5.076,5.076,0,0,0-1.2.128,4.971,4.971,0,0,0-8.25-2.954l-5.457-7.354L23.363,107.8l4.161,1.138-5.434,9.589a4.99,4.99,0,0,0,1.881,6.8q.109.062.22.118l.017.008a5.023,5.023,0,0,0,.6.251,4.989,4.989,0,0,0,5.965-2.258l3.532-6.232,6.306.447L57.4,134.452A2.169,2.169,0,0,1,57.4,137.515Zm.585-6.471L42.233,115.293a1.254,1.254,0,0,0-.093-.086,1.413,1.413,0,0,0-.8-.324l-7.721-.548a1.435,1.435,0,0,0-1.328.712l-3.97,7.007a2.166,2.166,0,1,1-3.768-2.136l5.3-9.354,2.148-.618.042-.014,8.016-2.315h9.686l12.092,15.371Zm5.7-10.271L52.5,106.55l5.707-3.629,10.449,13.572Zm0,0" transform="translate(0 -85.186)" fill="#fadf4a" stroke="#fadf4a" stroke-width="1"/>
      <path id="Path_150961" data-name="Path 150961" d="M301.556,41.339a1.408,1.408,0,0,0,1-.414l9.644-9.644a1.412,1.412,0,1,0-2-2l-9.644,9.644a1.412,1.412,0,0,0,1,2.41Zm0,0" transform="translate(-257.937 -24.381)" fill="#fadf4a" stroke="#fadf4a" stroke-width="1"/>
      <path id="Path_150962" data-name="Path 150962" d="M133.253,40.925a1.412,1.412,0,0,0,2-2l-9.644-9.644a1.412,1.412,0,0,0-2,2Zm0,0" transform="translate(-105.871 -24.381)" fill="#fadf4a" stroke="#fadf4a" stroke-width="1"/>
      <path id="Path_150963" data-name="Path 150963" d="M247.373,51.5a1.412,1.412,0,0,0,1.412-1.412V42.111a1.412,1.412,0,0,0-2.823,0v7.981A1.412,1.412,0,0,0,247.373,51.5Zm0,0" transform="translate(-211.373 -34.546)" fill="#fadf4a" stroke="#fadf4a" stroke-width="1"/>
      <path id="Path_150964" data-name="Path 150964" d="M246.092,2.448a1.411,1.411,0,1,0,2.162-1.66,1.411,1.411,0,0,0-2.162,1.66Zm0,0" transform="translate(-211.395)" fill="#fadf4a" stroke="#fadf4a" stroke-width="1"/>
    </g>
  </g>
</svg>
