<svg xmlns="http://www.w3.org/2000/svg" xmlns:xlink="http://www.w3.org/1999/xlink" width="138.165" height="138.163" viewBox="0 0 138.165 138.163">
  <defs>
    <clipPath id="clip-path">
      <rect id="Rectangle_5115" data-name="Rectangle 5115" width="54.632" height="49.458" transform="translate(0 0)" fill="none"/>
    </clipPath>
  </defs>
  <g id="Group_55044" data-name="Group 55044" transform="translate(-84 -359)">
    <path id="Path_149512" data-name="Path 149512" d="M1112.6,370.594a69.082,69.082,0,1,1-69.081-69.081,69.081,69.081,0,0,1,69.081,69.081" transform="translate(-890.432 57.487)" fill="#fff"/>
    <path id="Path_149598" data-name="Path 149598" d="M1100.312,366.548a60.844,60.844,0,1,1-60.843-60.843,60.842,60.842,0,0,1,60.843,60.843" transform="translate(-886.624 62.295)" fill="#296896"/>
    <g id="Group_51946" data-name="Group 51946" transform="translate(126 404)">
      <g id="Group_51945" data-name="Group 51945" clip-path="url(#clip-path)">
        <path id="Path_150396" data-name="Path 150396" d="M.218,18.483A11.538,11.538,0,0,1,.093,14.77v-.011A13.494,13.494,0,0,1,17.01,2.992,2.461,2.461,0,0,0,18.675,2.7a15.272,15.272,0,0,1,17.353.006,3.157,3.157,0,0,0,1.661.3c2.079-.02,4.234-.483,6.224-.091,7.873,1.553,12.29,9.1,10.2,17.087-1.338,5.121-3.9,9.693-6.474,14.259-.244.434-.476.875-.682,1.255,1.434.807,2.787,1.424,3.981,2.267,2.884,2.036,2.961,4.6.045,6.554A20.8,20.8,0,0,1,45.343,47c-10.163,2.988-20.488,3.04-30.86,1.278a26.359,26.359,0,0,1-10.314-3.6C.782,42.455.8,39.751,4.188,37.507c1.095-.724,2.309-1.269,3.537-1.934-.111-.236-.194-.45-.307-.648-3-5.237-5.974-10.483-7.2-16.442m15.734-7.916a13.827,13.827,0,0,0-.418,8.106A32.049,32.049,0,0,0,16.569,22.2C19.02,28.846,22.8,34.818,26.426,40.86c.643,1.073,1.293,1,1.991-.225,2.409-4.216,4.986-8.354,7.1-12.714A51.379,51.379,0,0,0,39.4,17.387c1.14-4.828-.638-9-4.575-12A12.386,12.386,0,0,0,21.812,4.173a11.359,11.359,0,0,0-5.86,6.394m-.861-4.973A8.807,8.807,0,0,0,9.9,6.008c-5.6,2-8.284,7.662-6.469,13.887,1.971,6.758,5.858,12.575,9.37,18.569.536.915,1.03.577,1.458-.156,1.01-1.728,2-3.467,3.067-5.16a2.1,2.1,0,0,0,.088-2.331c-1.4-2.911-2.761-5.857-3.912-8.875-1.2-3.148-1.893-6.473-.978-9.8a62.65,62.65,0,0,1,2.563-6.543m24.256.058a.353.353,0,0,0,0,.142,2.377,2.377,0,0,0,.2.367,14.775,14.775,0,0,1,2.136,13.985c-1.259,3.677-2.938,7.214-4.5,10.784a1.814,1.814,0,0,0,.008,1.963c1.1,1.728,2.092,3.522,3.152,5.275.681,1.126,1.053,1.161,1.669.062,2.444-4.361,5.02-8.661,7.195-13.154a28.826,28.826,0,0,0,2.543-8.121c1.024-6.78-5.874-12.921-12.41-11.3" fill="#fadf4a"/>
      </g>
    </g>
  </g>
</svg>
