<svg id="Layer_1" data-name="Layer 1" xmlns="http://www.w3.org/2000/svg" viewBox="0 0 25.44 22"><path id="heart" d="M12.72,22a.79.79,0,0,1-.37-.1,44.11,44.11,0,0,1-6.12-4.4A25.05,25.05,0,0,1,2,13,9.56,9.56,0,0,1,0,7.5,7.9,7.9,0,0,1,2,2.22,6.59,6.59,0,0,1,6.91,0a6.82,6.82,0,0,1,5.81,3.44A6.79,6.79,0,0,1,18.52,0a6.65,6.65,0,0,1,4.72,2,7.8,7.8,0,0,1,2.2,5.5,9.81,9.81,0,0,1-2,5.45,26.13,26.13,0,0,1-4.24,4.55,46.09,46.09,0,0,1-6.08,4.4.86.86,0,0,1-.38.1Z" fill="#2a6997"/><path id="heart-2" data-name="heart" d="M12.45,21.38a.48.48,0,0,1-.29-.09A35.55,35.55,0,0,1,7.4,17.35a21.5,21.5,0,0,1-3.31-4.07A9.39,9.39,0,0,1,2.55,8.39,7.65,7.65,0,0,1,4.11,3.67a4.88,4.88,0,0,1,3.81-2,5.23,5.23,0,0,1,4.52,3.09A5.25,5.25,0,0,1,17,1.68a4.85,4.85,0,0,1,3.67,1.8A7.52,7.52,0,0,1,22.35,8.4a9.71,9.71,0,0,1-1.58,4.88,22.17,22.17,0,0,1-3.3,4.07,35.1,35.1,0,0,1-4.73,3.93.52.52,0,0,1-.29.09Z" fill="#fff"/></svg>