<svg xmlns="http://www.w3.org/2000/svg" width="116" height="101.944" viewBox="0 0 116 101.944">
  <g id="warning_3_" data-name="warning (3)" transform="translate(0 -31.021)">
    <path id="Path_150938" data-name="Path 150938" d="M106.921,132.972H9.079a9.062,9.062,0,0,1-7.828-13.633L50.172,35.526a9.064,9.064,0,0,1,15.656,0l48.921,83.813A9.062,9.062,0,0,1,106.921,132.972Z" transform="translate(0 -0.007)" fill="#ff6b6b"/>
    <path id="Path_150939" data-name="Path 150939" d="M83.12,65.658,34.2,149.472a1.368,1.368,0,0,0,1.184,2.061h97.842a1.368,1.368,0,0,0,1.184-2.061L85.488,65.658A1.368,1.368,0,0,0,83.12,65.658Z" transform="translate(-26.304 -26.262)" fill="#fa4a4a"/>
    <g id="Group_53999" data-name="Group 53999" transform="translate(53.804 70.306)">
      <path id="Path_150940" data-name="Path 150940" d="M241.7,358.131a4.082,4.082,0,1,1,0,8.163,4.144,4.144,0,0,1-4.22-4.054A4.221,4.221,0,0,1,241.7,358.131Z" transform="translate(-237.482 -323.305)" fill="#e4eaf8"/>
      <path id="Path_150941" data-name="Path 150941" d="M242.54,232.9c-2.34,0-3.975-1.133-3.975-2.756V207.227c0-1.357,1.6-2.81,3.975-2.81,2.143,0,4.024,1.313,4.024,2.81v22.916C246.564,231.74,244.872,232.9,242.54,232.9Z" transform="translate(-238.32 -204.417)" fill="#e4eaf8"/>
    </g>
    <path id="Path_150942" data-name="Path 150942" d="M5.921,119.331,54.842,35.518a8.97,8.97,0,0,1,5.494-4.2,9.041,9.041,0,0,0-10.162,4.2L1.253,119.331a9.062,9.062,0,0,0,7.828,13.633h4.668A9.062,9.062,0,0,1,5.921,119.331Z" transform="translate(-0.002)" fill="#fa4a4a"/>
    <path id="Path_150943" data-name="Path 150943" d="M38.867,149.472,86.638,67.629l-1.15-1.971a1.368,1.368,0,0,0-2.368,0L34.2,149.472a1.368,1.368,0,0,0,1.184,2.061h4.668A1.368,1.368,0,0,1,38.867,149.472Z" transform="translate(-26.304 -26.262)" fill="#e23b3b"/>
    <g id="Group_54000" data-name="Group 54000" transform="translate(53.805 70.306)">
      <path id="Path_150944" data-name="Path 150944" d="M242.151,362.24a4.116,4.116,0,0,1,1.873-3.391,4.146,4.146,0,0,0-2.32-.718,4.221,4.221,0,0,0-4.22,4.108,4.207,4.207,0,0,0,6.524,3.357A4.013,4.013,0,0,1,242.151,362.24Z" transform="translate(-237.483 -323.305)" fill="#d8dce5"/>
      <path id="Path_150945" data-name="Path 150945" d="M243.233,230.143V207.227a2.752,2.752,0,0,1,1.634-2.257,5.121,5.121,0,0,0-2.327-.554c-2.378,0-3.975,1.453-3.975,2.81v22.916c0,1.623,1.634,2.756,3.975,2.756a5.584,5.584,0,0,0,2.333-.469A2.542,2.542,0,0,1,243.233,230.143Z" transform="translate(-238.32 -204.417)" fill="#d8dce5"/>
    </g>
  </g>
</svg>
