<svg xmlns="http://www.w3.org/2000/svg" width="24.177" height="20.999" viewBox="0 0 24.177 20.999">
  <g id="cloudy_1_" data-name="cloudy (1)" transform="translate(0.512 -34.474)">
    <path id="Path_4346" data-name="Path 4346" d="M170.422,37.7a.679.679,0,0,0,.679-.679V35.653a.679.679,0,0,0-1.357,0v1.367A.679.679,0,0,0,170.422,37.7Z" transform="translate(-162.063)" fill="#717171" stroke="rgba(0,0,0,0)" stroke-miterlimit="10" stroke-width="1"/>
    <path id="Path_4347" data-name="Path 4347" d="M2.2,133.744l-1.184-.683a.679.679,0,0,0-.679,1.175l1.184.683a.679.679,0,1,0,.679-1.175Z" transform="translate(0 -93.562)" fill="#717171" stroke="rgba(0,0,0,0)" stroke-miterlimit="10" stroke-width="1"/>
    <path id="Path_4348" data-name="Path 4348" d="M1.534,313.959l-1.184.683a.679.679,0,0,0,.34,1.267c.308,0,.385-.149,1.522-.774a.679.679,0,0,0-.679-1.175Z" transform="translate(-0.011 -266.275)" fill="#717171" stroke="rgba(0,0,0,0)" stroke-miterlimit="10" stroke-width="1"/>
    <path id="Path_4349" data-name="Path 4349" d="M314.34,134.92l1.184-.683a.679.679,0,0,0-.679-1.175l-1.184.683a.679.679,0,0,0,.679,1.175Z" transform="translate(-299.146 -93.562)" fill="#717171" stroke="rgba(0,0,0,0)" stroke-miterlimit="10" stroke-width="1"/>
    <path id="Path_4350" data-name="Path 4350" d="M68.8,133.12a6.445,6.445,0,0,1,5.5-5.237,5.426,5.426,0,1,0-8.1,7.222A5.194,5.194,0,0,1,68.8,133.12Z" transform="translate(-61.814 -86.882)" fill="#282828" stroke="rgba(0,0,0,0)" stroke-miterlimit="10" stroke-width="1"/>
    <path id="Path_4351" data-name="Path 4351" d="M120.3,200.153a5.09,5.09,0,0,0-9.808,1.858,3.827,3.827,0,0,0,.433,7.63c10.678-.011,10.094.027,10.28-.03a4.751,4.751,0,0,0-.9-9.457Z" transform="translate(-102.256 -154.67)" fill="#282828" stroke="rgba(0,0,0,0)" stroke-miterlimit="10" stroke-width="1"/>
  </g>
</svg>
