<svg xmlns="http://www.w3.org/2000/svg" width="199.999" height="200" viewBox="0 0 199.999 200">
  <g id="Group_52243" data-name="Group 52243" transform="translate(-108 -217)">
    <path id="Path_150509" data-name="Path 150509" d="M582.777,282.745c-2.768,0-2.768,4.292,0,4.292s2.768-4.292,0-4.292" transform="translate(-374.717 -48.972)" fill="#dae3db"/>
    <path id="Path_150511" data-name="Path 150511" d="M713.326,370.958a100,100,0,1,1-100-100,100,100,0,0,1,100,100" transform="translate(-405.327 -53.958)" fill="#fff"/>
    <g id="cloudy_1_" data-name="cloudy (1)" transform="translate(149 234.603)">
      <path id="Path_4346" data-name="Path 4346" d="M173.112,48.5a3.37,3.37,0,0,0,3.37-3.37V38.344a3.37,3.37,0,0,0-6.739,0v6.785A3.37,3.37,0,0,0,173.112,48.5Z" transform="translate(-131.613)" fill="#fadf4a"/>
      <path id="Path_4347" data-name="Path 4347" d="M10.931,136.815l-5.876-3.393a3.369,3.369,0,0,0-3.37,5.836l5.876,3.393a3.369,3.369,0,1,0,3.37-5.836Z" transform="translate(0 -75.983)" fill="#fadf4a"/>
      <path id="Path_4348" data-name="Path 4348" d="M7.57,314.32l-5.876,3.392A3.373,3.373,0,0,0,3.382,324c1.527,0,1.913-.738,7.558-3.845A3.369,3.369,0,0,0,7.57,314.32Z" transform="translate(-0.009 -216.244)" fill="#fadf4a"/>
      <path id="Path_4349" data-name="Path 4349" d="M318.377,142.651l5.876-3.393a3.369,3.369,0,0,0-3.369-5.836l-5.876,3.393a3.369,3.369,0,0,0,3.37,5.836Z" transform="translate(-242.939 -75.983)" fill="#fadf4a"/>
      <path id="Path_4350" data-name="Path 4350" d="M84.889,161.46a32,32,0,0,1,27.319-26A26.943,26.943,0,1,0,72,171.313,25.787,25.787,0,0,1,84.889,161.46Z" transform="translate(-50.2 -70.557)" fill="#fadf4a"/>
      <g id="Group_54017" data-name="Group 54017">
        <path id="Path_150508" data-name="Path 150508" d="M585.253,291.449c-4.165,0-4.165,6.457,0,6.457s4.165-6.457,0-6.457" transform="translate(-528.847 -269.394)" fill="#dae3db"/>
        <path id="Path_150509-2" data-name="Path 150509" d="M582.777,282.745c-2.768,0-2.768,4.292,0,4.292s2.768-4.292,0-4.292" transform="translate(-529.496 -273.348)" fill="#dae3db"/>
        <path id="Path_150510" data-name="Path 150510" d="M594.467,315.115c4.164,0,4.164-6.459,0-6.459s-4.165,6.459,0,6.459" transform="translate(-524.661 -261.576)" fill="#dae3db"/>
        <path id="Path_150513" data-name="Path 150513" d="M632.166,328.643c-.8-4.433,7.906-13.189,12.064-13.053,4.447.147,5.612,5.393,3.479,8.754-1.809,2.852-11.469,9.033-14.673,5.958q-3.056,2.568-5.941,5.285c4.682-1.089,11.354-.42,13.31,1.75,2.97,3.293.031,7.833-3.844,8.677-3.117.678-13.245-1.594-14.3-5.643q-4.106,4.252-7.869,8.787c4.108-2.376,14.152-1.443,16.467,1.456,2.769,3.466-.43,7.827-4.344,8.44-3.461.541-15.145-2.971-13.9-7.725q-4.354,5.417-8.3,11.155c4.2-2.259,14.013-1.313,16.3,1.547,2.768,3.466-.432,7.826-4.347,8.44-3.277.513-13.934-2.613-13.983-6.985q-4.265,6.411-8.118,13.114c3.666-2.835,14.6-1.956,17.026,1.085,2.768,3.464-.432,7.826-4.347,8.438-3.345.524-14.383-2.743-13.978-7.259-5.185,9.168-9.891,18.637-14.34,28.154-.5,1.081-2.19.359-1.686-.721,4.4-9.407,9.05-18.764,14.161-27.833a3.335,3.335,0,0,1-.986.384c-4.421.992-12.539-9.018-11.88-13.271.684-4.415,6.027-5.051,9.1-2.589,2.112,1.691,5.759,8.723,5.252,12.872q3.9-6.765,8.2-13.262a3.473,3.473,0,0,1-.551.057c-4.519.118-10.538-11.3-9.072-15.35,1.52-4.209,6.875-3.8,9.411-.78,1.518,1.806,3.4,7.833,2.992,11.985q3.992-5.716,8.378-11.123a3.026,3.026,0,0,1-1.664.182c-4.459-.7-8.333-13.026-6.171-16.758,2.243-3.877,7.429-2.512,9.38.918,1.248,2.193,2.043,9.209.544,13.143q3.656-4.324,7.615-8.4a3.335,3.335,0,0,1-.889-.019c-4.46-.694-8.333-13.024-6.172-16.757,2.244-3.876,7.429-2.512,9.381.918,1.229,2.157,2.016,8.975.614,12.942q3.7-3.58,7.673-6.914" transform="translate(-531.288 -258.426)" fill="#dae3db"/>
        <path id="Path_150515" data-name="Path 150515" d="M592.372,313.421c.662-.276,1.5-3.435,1.895-5.992.244,2.944.809,6.876,1.738,6.741,1.684-.244,0-4.476-.288-5.714.393.62,2.683,5.564,3.431,3.863.34-.777-1.914-4.645-3.549-6.716,2.184,1.927,6.331,5.211,6.973,4.34,1.011-1.369-3.182-3.15-4.261-3.819.717.157,5.841,2.013,5.158.284-.234-.592-2.734-1.371-5.076-1.85,2.775-.058,5.916-.346,5.862-1.181-.109-1.7-4.463-.355-5.72-.17.65-.342,5.762-2.228,4.126-3.109-.724-.391-4.542,1.419-6.774,2.864,1.968-2.222,4.983-6.019,4.155-6.645-1.358-1.025-3.181,3.15-3.861,4.223.164-.714,2.071-5.82.335-5.156-.672.259-1.613,3.41-2.08,5.96-.16-2.939-.6-6.808-1.529-6.7-1.691.193-.132,4.475.115,5.721-.374-.631-2.513-5.644-3.312-3.966-.317.666,1.258,3.73,2.708,5.912-2.325-1.846-5.694-4.212-6.238-3.428-.97,1.4,3.274,3.053,4.375,3.69-.721-.135-5.9-1.835-5.166-.128.252.583,2.755,1.283,5.1,1.691-2.789.14-5.976.521-5.9,1.36.16,1.694,4.471.221,5.721,0-.639.361-5.692,2.4-4.03,3.233.721.361,4.343-1.478,6.547-2.973-1.9,2.269-4.872,6.238-4.017,6.843,1.389.985,3.085-3.245,3.733-4.337-.144.718-1.9,5.88-.18,5.163" transform="translate(-527.726 -267.944)" fill="#fadf4a"/>
        <path id="Path_150520" data-name="Path 150520" d="M585.229,291.571c-4.19,0-4.19,6.5,0,6.5s4.19-6.5,0-6.5" transform="translate(-528.866 -269.338)" fill="#dae3db"/>
        <path id="Path_150521" data-name="Path 150521" d="M582.738,282.815c-2.784,0-2.784,4.318,0,4.318s2.784-4.318,0-4.318" transform="translate(-529.519 -273.316)" fill="#dae3db"/>
        <path id="Path_150522" data-name="Path 150522" d="M594.5,315.376c4.189,0,4.189-6.5,0-6.5s-4.19,6.5,0,6.5" transform="translate(-524.655 -261.474)" fill="#dae3db"/>
      </g>
      <path id="Path_150958" data-name="Path 150958" d="M172.651,212.764a25.273,25.273,0,0,0-48.7,9.224,19,19,0,0,0,2.148,37.883c53.017-.055,50.116.136,51.039-.151a23.589,23.589,0,0,0-4.488-46.956Z" transform="translate(-83.043 -125.608)" fill="#296896"/>
      <path id="Path_150959" data-name="Path 150959" d="M586.38,380.06c1.172,1.244,2.632,3.691,4.428,3.749,1.4-1.071,4.855-3.416,3.443-5.676.015,0-2.747-1.787-4.033-2.881a18.2,18.2,0,0,0-4.787-3.021c.048-.077.093-.154.139-.232,1.862.774,3.532,1.757,5.473,2.382,1.581.51,4.439,1.953,6.077,1.085.274-.372.642-.775.814-1,.879-.994,3-6.193-1.163-8.651a4.759,4.759,0,0,0-3.257-.13c-2.225.532-4.477.233-6.731.456-.011-.091-.022-.183-.035-.273,1.712-.218,3.469.144,5.131-.422a19.9,19.9,0,0,0,4.742-2.344c.178-.221.364-.417.526-.649,0,0,2.094-4.929-3.955-9.038h0a.623.623,0,0,0-.338-.076c-1.546.136-3.19,1.705-4.359,2.655a33.725,33.725,0,0,0-4.786,4.259c-.062-.055-.126-.109-.19-.164a33.239,33.239,0,0,1,4.224-3.845c1.239-.956,2.419-1.986,2.244-3.683a2.128,2.128,0,0,0-.941-1.571s-2.526-2.537-3.942-2.189a3.985,3.985,0,0,1-.253.415c-.827,1.109-1.558,2.532-2.542,3.963a42.21,42.21,0,0,0-3.108,4.855c-.1-.019-.2-.04-.306-.055.579-1.228,1.045-2.508,1.485-3.748a15.773,15.773,0,0,0,1.02-5.172c-.013-1.793-2.973-2.559-4.813-2.614.258.009.107,0-.351-.037-.723.49-1.507.611-1.551,1.593-.05,1.159-.372,2.238-.313,3.426.112,2.241.057,4.64.318,6.858-.068.022-.137.046-.205.068a17.716,17.716,0,0,0-1.616-4.943c-.724-1.669-1.969-4.816-2.451-4.823-3.256-.042-3.689,1.178-4.943,2.315-.867,1.845,1.091,3.177,2.049,4.548,1.168,1.672,2.422,3.2,3.727,4.766-.05.042-.1.086-.147.13-1.956-2.213-3.569-4.667-5.5-6.9-.929-1.074-1.7-2.449-3.108-2.882a1.436,1.436,0,0,0-1.84.693,7.55,7.55,0,0,0-1.4,4.338,5.477,5.477,0,0,0,.665,2.679,8.419,8.419,0,0,0,2.522,2.584c2.032,1.286,3.88,2.864,5.876,4.2-.023.092-.044.182-.064.275-1.456-.982-2.926-.862-4.512-1.39a23.606,23.606,0,0,0-6.808-.274,3.628,3.628,0,0,1-.373.644l0,.02c-.012.007-.022.017-.034.025a5.488,5.488,0,0,0-.511,5.614c1.148,1.595,2.846,1.774,4.737,1.3,1.193-.295,2.291-.892,3.48-1.214a35.434,35.434,0,0,1,4.059-.7c.018.079.035.159.055.237-3.553.489-9.172,2.739-10.829,3.281-.269.089-.638.37-.664.322,1.074,2.023,1.942,3.973,4.059,5.167.088.03.494.259.555.287,1.392.294,2.886-1.439,3.643-2.327a36.821,36.821,0,0,1,3.591-3.943l-.015-.023a5.038,5.038,0,0,0,.543-.555c.066.117.132.233.2.348a37.3,37.3,0,0,0-4.419,4.69c-1.2,1.355-3.925,3.293-3.886,5.32a12.524,12.524,0,0,0,7.628,5.439c1.148.249,1.985-1.923,2.269-2.5a31.023,31.023,0,0,0,3.156-9.047c.129.049.261.093.394.136-.009.166-.02.332-.03.5a8.27,8.27,0,0,0-.452,1.618l-.046,0a18.386,18.386,0,0,1-1.671,4.727c-.785,1.708-2.222,3.387-1.284,5.334a4.229,4.229,0,0,0,1.141,1.481c.406.384,2.828,1.9,4.07,1.756.158-.018.237.049.308-.025a9.452,9.452,0,0,0,1.32-3.333,20.429,20.429,0,0,0,.72-3.671,30.882,30.882,0,0,0-.322-7.976c.1-.01.2-.022.3-.034.518,2.477-.063,5.086.505,7.508.278,1.186,1.5,5.653,3.395,5.245.889-.192,1.107-.253,1.447-.355l3.021-.91c.408-.424.217.056.626-.794.43-.9-.969-3.772-1.79-5.933a29.4,29.4,0,0,0-3.507-6.051l.211-.136a50.67,50.67,0,0,0,3.83,4.9m-13.57-7.278c-2.746-2.251-3.807-6.409-1.217-9.227a6.721,6.721,0,0,1,4.419-2.138,5.485,5.485,0,0,1,2.155.276q3.95,1.285.289,5.342a.686.686,0,0,0-.179,1.341,3.672,3.672,0,0,0,4.512-3.352,3.963,3.963,0,0,0-.113-1.2c6.208,4.687-3.759,13.959-9.868,8.959" transform="translate(-533.478 -236.704)" fill="#fadf4a"/>
    </g>
  </g>
</svg>
