<svg xmlns="http://www.w3.org/2000/svg" width="52" height="52" viewBox="0 0 52 52">
  <g id="Group_55045" data-name="Group 55045" transform="translate(-21 -561)">
    <g id="Group_53991" data-name="Group 53991" transform="translate(-50.5 70.5)">
      <rect id="Rectangle_17140" data-name="Rectangle 17140" width="50" height="50" rx="25" transform="translate(72.5 491.5)" fill="#296896" stroke="#fff" stroke-miterlimit="10" stroke-width="2"/>
    </g>
    <path id="globe_7_" data-name="globe (7)" d="M12,0A12,12,0,1,0,24,12,12,12,0,0,0,12,0Zm8.647,7H17.426a19.676,19.676,0,0,0-2.821-4.644A10.031,10.031,0,0,1,20.647,7ZM16.5,12a10.211,10.211,0,0,1-.476,3H7.976A10.211,10.211,0,0,1,7.5,12a10.211,10.211,0,0,1,.476-3h8.048a10.211,10.211,0,0,1,.476,3ZM8.778,17h6.444A19.614,19.614,0,0,1,12,21.588,19.57,19.57,0,0,1,8.778,17Zm0-10A19.614,19.614,0,0,1,12,2.412,19.57,19.57,0,0,1,15.222,7ZM9.4,2.356A19.676,19.676,0,0,0,6.574,7H3.353A10.031,10.031,0,0,1,9.4,2.356ZM2.461,9H5.9a12.016,12.016,0,0,0-.4,3,12.016,12.016,0,0,0,.4,3H2.461a9.992,9.992,0,0,1,0-6Zm.892,8H6.574A19.676,19.676,0,0,0,9.4,21.644,10.031,10.031,0,0,1,3.353,17ZM14.6,21.644A19.676,19.676,0,0,0,17.426,17h3.221a10.031,10.031,0,0,1-6.042,4.644ZM21.539,15H18.1a12.016,12.016,0,0,0,.4-3,12.016,12.016,0,0,0-.4-3h3.437a9.992,9.992,0,0,1,0,6Z" transform="translate(34.5 575.5)" fill="#fadf4a" stroke="#fadf4a" stroke-width="0.2"/>
  </g>
</svg>
