<svg xmlns="http://www.w3.org/2000/svg" width="19.294" height="19.294" viewBox="0 0 19.294 19.294">
  <g id="Group_51928" data-name="Group 51928" transform="translate(-19.5 -45.851)">
    <path id="close_10_" data-name="close (10)" d="M10.823,9.283l7.123-7.124A1.185,1.185,0,0,0,16.27.483L9.147,7.607,2.024.483A1.185,1.185,0,0,0,.348,2.159L7.471,9.283.348,16.406a1.185,1.185,0,1,0,1.676,1.676l7.123-7.124,7.124,7.124a1.185,1.185,0,0,0,1.676-1.676Zm0,0" transform="translate(20 46.215)" fill="#262626"/>
    <path id="close_10_-_Outline" data-name="close (10) - Outline" d="M17.108,18.929a1.674,1.674,0,0,1-1.191-.494l-6.77-6.77-6.77,6.77a1.685,1.685,0,0,1-2.383,0,1.684,1.684,0,0,1,0-2.383l6.77-6.77-6.77-6.77A1.684,1.684,0,0,1-.006.13a1.684,1.684,0,0,1,2.383,0L9.147,6.9,15.917.13a1.686,1.686,0,0,1,2.877,1.192A1.674,1.674,0,0,1,18.3,2.513l-6.77,6.77,6.77,6.77a1.685,1.685,0,0,1-1.192,2.877ZM9.147,10.251l7.477,7.477a.685.685,0,1,0,.969-.969L10.116,9.283l7.477-7.477a.685.685,0,1,0-.969-.969L9.147,8.314,1.67.837A.685.685,0,1,0,.7,1.806L8.178,9.283.7,16.76a.685.685,0,1,0,.969.969Z" transform="translate(20 46.215)" fill="#262626"/>
  </g>
</svg>
